<?xml version="1.0" encoding="UTF-8" standalone="no"?><!DOCTYPE svg PUBLIC "-//W3C//DTD SVG 1.1//EN" "http://www.w3.org/Graphics/SVG/1.1/DTD/svg11.dtd"><svg width="100%" height="100%" viewBox="0 0 1000 1001" version="1.1" xmlns="http://www.w3.org/2000/svg" xmlns:xlink="http://www.w3.org/1999/xlink" xml:space="preserve" xmlns:serif="http://www.serif.com/" style="fill-rule:evenodd;clip-rule:evenodd;stroke-linecap:round;stroke-linejoin:round;stroke-miterlimit:1.5;"><rect id="about" x="0" y="0.482" width="1000" height="1000" style="fill:none;"/><g><path d="M732.563,284.488l-0,460.536c-0,42.136 -34.21,76.345 -76.346,76.345l-324.89,0c-35.262,0 -63.89,-28.628 -63.89,-63.889l0,-533.086c0,-10.483 8.511,-18.994 18.995,-18.994l367.043,-0c43.649,-0 79.088,35.438 79.088,79.088Z" style="fill:#fbf5e3;"/><path d="M707.464,282.79l-0,411.568c-0,55.857 -45.349,101.206 -101.206,101.206l-320.851,-0c-9.918,-0 -17.97,-8.052 -17.97,-17.969l0,-580.031c0,-9.918 8.052,-17.97 17.97,-17.97l318.861,0c56.955,0 103.196,46.241 103.196,103.196Z" style="fill:#59453c;"/></g><circle cx="500" cy="393.742" r="121.251" style="fill:none;stroke:#71a171;stroke-width:37.5px;"/><circle cx="500" cy="393.742" r="121.251" style="fill:#f6fabf;"/><path d="M621.251,596.034c-0,20.079 -16.301,36.38 -36.38,36.38l-169.742,0c-20.079,0 -36.38,-16.301 -36.38,-36.38c0,-20.078 16.301,-36.38 36.38,-36.38l169.742,0c20.079,0 36.38,16.302 36.38,36.38Z" style="fill:#71a171;"/><path d="M660.127,681.378c-0,17.102 -13.885,30.986 -30.987,30.986l-258.28,0c-17.102,0 -30.987,-13.884 -30.987,-30.986c0,-17.102 13.885,-30.986 30.987,-30.986l258.28,0c17.102,0 30.987,13.884 30.987,30.986Z" style="fill:#71a171;"/><g><clipPath id="_clip1"><circle cx="500" cy="393.742" r="121.251"/></clipPath><g clip-path="url(#_clip1)"><path d="M442.091,453.904c-3.02,1.404 -6.384,2.187 -9.929,2.187c-13.063,0 -23.668,-10.637 -23.668,-23.74c-0,-11.649 8.383,-21.349 19.423,-23.358c-0.042,-1.135 -0.064,-2.277 -0.064,-3.424c0,-45.009 32.763,-81.55 73.118,-81.55c40.354,-0 73.117,36.541 73.117,81.55c0,3.225 -0.168,6.406 -0.495,9.533c10.286,2.581 17.913,11.92 17.913,23.032c0,13.102 -10.605,23.739 -23.668,23.739c-4.189,0 -8.125,-1.093 -11.539,-3.011c-6.541,8.438 -14.605,15.366 -23.715,20.25l18.505,25.497c-33.235,15.716 -68.436,19.549 -101.687,2.126l16.769,-29.44c-9.487,-5.743 -17.71,-13.759 -24.08,-23.391Z" style="fill:#f4c361;"/><path d="M451.232,371.238c-0.109,0.191 -0.056,0.432 0.122,0.56c0.179,0.128 0.425,0.1 0.57,-0.064c2.582,-2.906 6.233,-7.018 7.383,-8.312c0.087,-0.098 0.214,-0.151 0.345,-0.143c0.131,0.007 0.252,0.075 0.327,0.182c1.861,2.672 11.52,16.537 13.52,19.407c0.081,0.117 0.215,0.186 0.357,0.184c0.143,-0.002 0.275,-0.075 0.352,-0.194c1.726,-2.639 9.37,-14.329 11.169,-17.08c0.081,-0.125 0.221,-0.198 0.37,-0.194c0.148,0.004 0.284,0.084 0.359,0.213c1.773,3.054 9.77,16.832 11.466,19.753c0.071,0.123 0.199,0.202 0.34,0.212c0.142,0.01 0.279,-0.051 0.367,-0.162c2.067,-2.624 11.715,-14.871 13.711,-17.404c0.084,-0.107 0.215,-0.167 0.351,-0.163c0.137,0.005 0.262,0.075 0.339,0.187c1.883,2.768 11.286,16.585 13.302,19.548c0.083,0.121 0.222,0.192 0.369,0.187c0.147,-0.005 0.281,-0.085 0.355,-0.212c2.335,-3.986 15.973,-27.261 20.994,-35.831c0.11,-0.187 0.062,-0.427 -0.111,-0.558c-0.174,-0.131 -0.418,-0.111 -0.568,0.046c-3.953,4.139 -11.316,11.848 -13.042,13.656c-0.09,0.094 -0.218,0.142 -0.347,0.131c-0.13,-0.011 -0.247,-0.081 -0.319,-0.189c-1.677,-2.513 -9.957,-14.915 -11.721,-17.558c-0.076,-0.115 -0.203,-0.185 -0.341,-0.19c-0.138,-0.005 -0.27,0.057 -0.354,0.166c-1.877,2.431 -10.442,13.522 -12.256,15.871c-0.081,0.105 -0.206,0.166 -0.339,0.166c-0.132,0 -0.257,-0.061 -0.338,-0.165c-1.964,-2.529 -11.855,-15.269 -13.903,-17.907c-0.085,-0.11 -0.218,-0.172 -0.357,-0.165c-0.139,0.006 -0.266,0.079 -0.341,0.196c-1.563,2.433 -8.25,12.848 -9.801,15.263c-0.074,0.116 -0.2,0.189 -0.338,0.197c-0.137,0.007 -0.27,-0.053 -0.356,-0.16c-2.1,-2.621 -12.435,-15.521 -14.591,-18.211c-0.088,-0.111 -0.226,-0.17 -0.368,-0.159c-0.141,0.011 -0.268,0.092 -0.338,0.215c-1.899,3.334 -11.969,21.009 -16.339,28.681Z"/><circle cx="530.667" cy="411.805" r="14.789"/><circle cx="469.701" cy="411.805" r="14.789"/><path d="M488.002,440.814c0,16.578 22.672,20.165 22.672,0" style="fill:none;stroke:#000;stroke-width:4.86px;"/></g></g></svg>
