<?xml version="1.0" encoding="UTF-8" standalone="no"?><!DOCTYPE svg PUBLIC "-//W3C//DTD SVG 1.1//EN" "http://www.w3.org/Graphics/SVG/1.1/DTD/svg11.dtd"><svg width="100%" height="100%" viewBox="0 0 1001 1001" version="1.1" xmlns="http://www.w3.org/2000/svg" xmlns:xlink="http://www.w3.org/1999/xlink" xml:space="preserve" xmlns:serif="http://www.serif.com/" style="fill-rule:evenodd;clip-rule:evenodd;stroke-linecap:round;stroke-linejoin:round;stroke-miterlimit:1.5;"><rect id="about" x="0.149" y="0.346" width="1000" height="1000" style="fill:none;"/><path d="M732.711,284.352l0,460.536c0,42.136 -34.209,76.345 -76.345,76.345l-324.891,0c-35.261,0 -63.889,-28.627 -63.889,-63.889l-0,-533.086c-0,-10.483 8.511,-18.994 18.994,-18.994l367.043,-0c43.65,-0 79.088,35.438 79.088,79.088Z" style="fill:#f7f5e6;"/><path d="M707.612,282.654l0,411.568c0,55.857 -45.349,101.206 -101.206,101.206l-320.851,0c-9.917,0 -17.969,-8.052 -17.969,-17.969l-0,-580.031c-0,-9.918 8.052,-17.97 17.969,-17.97l318.862,0c56.955,0 103.195,46.241 103.195,103.196Z" style="fill:#74664b;"/><circle cx="500.149" cy="393.607" r="121.251" style="fill:none;stroke:#71a171;stroke-width:37.5px;"/><circle cx="500.149" cy="393.607" r="121.251" style="fill:#f6fabf;"/><path d="M621.4,595.899c-0,20.078 -16.302,36.38 -36.381,36.38l-169.741,-0c-20.079,-0 -36.38,-16.302 -36.38,-36.38c-0,-20.079 16.301,-36.38 36.38,-36.38l169.741,-0c20.079,-0 36.381,16.301 36.381,36.38Z" style="fill:#71a171;"/><path d="M660.275,681.242c0,17.102 -13.884,30.987 -30.986,30.987l-258.281,-0c-17.102,-0 -30.986,-13.885 -30.986,-30.987c0,-17.101 13.884,-30.986 30.986,-30.986l258.281,0c17.102,0 30.986,13.885 30.986,30.986Z" style="fill:#71a171;"/><g><clipPath id="_clip1"><circle cx="500.149" cy="393.607" r="121.251"/></clipPath><g clip-path="url(#_clip1)"><path d="M442.24,453.768c-3.021,1.404 -6.385,2.187 -9.93,2.187c-13.062,0 -23.668,-10.637 -23.668,-23.739c0,-11.65 8.383,-21.35 19.423,-23.359c-0.042,-1.135 -0.063,-2.277 -0.063,-3.424c0,-45.009 32.763,-81.55 73.117,-81.55c40.355,-0 73.118,36.541 73.118,81.55c-0,3.225 -0.168,6.406 -0.495,9.533c10.285,2.581 17.913,11.92 17.913,23.032c0,13.102 -10.605,23.74 -23.668,23.74c-4.189,-0 -8.125,-1.094 -11.54,-3.012c-6.54,8.438 -14.605,15.366 -23.714,20.251l18.505,25.496c-33.236,15.717 -68.436,19.549 -101.687,2.126l16.768,-29.44c-9.487,-5.743 -17.71,-13.759 -24.079,-23.391Z" style="fill:#ffce7f;"/><path d="M451.38,371.102c-0.108,0.191 -0.055,0.433 0.123,0.56c0.178,0.128 0.424,0.101 0.57,-0.063c2.581,-2.907 6.233,-7.019 7.383,-8.313c0.087,-0.098 0.214,-0.151 0.345,-0.143c0.131,0.007 0.251,0.075 0.326,0.182c1.861,2.672 11.52,16.537 13.52,19.408c0.081,0.116 0.216,0.185 0.358,0.183c0.142,-0.002 0.274,-0.075 0.352,-0.194c1.726,-2.639 9.369,-14.329 11.169,-17.08c0.081,-0.125 0.221,-0.198 0.369,-0.194c0.149,0.004 0.285,0.085 0.359,0.213c1.773,3.055 9.771,16.832 11.467,19.753c0.071,0.123 0.198,0.202 0.34,0.212c0.141,0.01 0.279,-0.05 0.366,-0.162c2.067,-2.623 11.716,-14.871 13.711,-17.403c0.085,-0.108 0.215,-0.168 0.352,-0.163c0.136,0.004 0.262,0.074 0.339,0.187c1.883,2.767 11.285,16.584 13.302,19.547c0.082,0.121 0.222,0.192 0.368,0.187c0.147,-0.005 0.281,-0.085 0.355,-0.212c2.336,-3.985 15.974,-27.261 20.995,-35.831c0.11,-0.187 0.062,-0.427 -0.112,-0.558c-0.173,-0.131 -0.417,-0.111 -0.567,0.046c-3.954,4.139 -11.316,11.848 -13.043,13.656c-0.09,0.094 -0.217,0.142 -0.347,0.131c-0.129,-0.011 -0.247,-0.081 -0.319,-0.189c-1.677,-2.512 -9.956,-14.915 -11.72,-17.558c-0.077,-0.114 -0.204,-0.185 -0.342,-0.19c-0.137,-0.005 -0.269,0.057 -0.353,0.166c-1.878,2.431 -10.443,13.522 -12.257,15.871c-0.081,0.105 -0.205,0.166 -0.338,0.166c-0.132,0.001 -0.258,-0.061 -0.339,-0.165c-1.963,-2.529 -11.854,-15.269 -13.902,-17.907c-0.085,-0.11 -0.219,-0.171 -0.358,-0.165c-0.138,0.006 -0.266,0.079 -0.341,0.196c-1.562,2.433 -8.249,12.848 -9.8,15.264c-0.074,0.116 -0.2,0.189 -0.338,0.196c-0.138,0.007 -0.27,-0.052 -0.357,-0.16c-2.099,-2.621 -12.435,-15.521 -14.59,-18.211c-0.089,-0.11 -0.227,-0.17 -0.368,-0.159c-0.142,0.011 -0.268,0.092 -0.339,0.215c-1.899,3.334 -11.968,21.009 -16.339,28.681Z"/><circle cx="530.816" cy="411.669" r="14.789"/><circle cx="469.849" cy="411.669" r="14.789"/><path d="M488.151,440.678c-0,16.578 22.672,20.165 22.672,0" style="fill:none;stroke:#000;stroke-width:4.86px;"/></g></g></svg>