<?xml version="1.0" encoding="UTF-8" standalone="no"?><!DOCTYPE svg PUBLIC "-//W3C//DTD SVG 1.1//EN" "http://www.w3.org/Graphics/SVG/1.1/DTD/svg11.dtd"><svg width="100%" height="100%" viewBox="0 0 1000 860" version="1.1" xmlns="http://www.w3.org/2000/svg" xmlns:xlink="http://www.w3.org/1999/xlink" xml:space="preserve" xmlns:serif="http://www.serif.com/" style="fill-rule:evenodd;clip-rule:evenodd;stroke-linejoin:round;stroke-miterlimit:2;"><rect id="bg" x="0" y="0.921" width="1000" height="858.1" style="fill:none;"/><clipPath id="_clip1"><rect x="0" y="0.921" width="1000" height="858.1"/></clipPath><g clip-path="url(#_clip1)"><g><g><path id="path9187" d="M113.394,277.582l68.94,-9.898l-49.611,-56.294l-19.329,66.192Z" style="fill:#1f9869;fill-rule:nonzero;"/><path id="path9188" d="M310.549,250.363l75.383,-59.387l19.329,91.555l-94.712,-32.168Z" style="fill:#1f9869;fill-rule:nonzero;"/><path id="path9189" d="M407.266,244.019l1.817,-43.192l38.624,26.177l-40.441,17.015Z" style="fill:#17a644;fill-rule:nonzero;"/><path id="path91891" serif:id="path9189" d="M427.64,90.314l35.881,-24.114l1.779,46.625l-37.66,-22.511Z" style="fill:#17a644;fill-rule:nonzero;"/><path id="path9190" d="M77.958,217.576l23.839,75.471l-99.222,-6.805l75.383,-68.666Z" style="fill:#1f9869;fill-rule:nonzero;"/><path id="path9191" d="M387.221,341.299l67.007,-50.726l9.664,87.843l-76.671,-37.117Z" style="fill:#17a644;fill-rule:nonzero;"/><path id="path9192" d="M134.656,296.759l83.114,-1.238l-40.59,67.429l-42.524,-66.191Z" style="fill:#2fb630;fill-rule:nonzero;"/><path id="path9193" d="M208.106,356.146l57.987,-61.243l23.839,77.327l-81.826,-16.084Z" style="fill:#17a644;fill-rule:nonzero;"/><path id="path9194" d="M309.905,285.624l16.107,79.801l56.699,-51.345l-72.806,-28.456Z" style="fill:#2fb630;fill-rule:nonzero;"/><path id="path9195" d="M354.362,429.142l17.396,-67.429l57.986,64.336l-75.382,3.093Z" style="fill:#2fb630;fill-rule:nonzero;"/><path id="path9196" d="M329.878,430.379l3.221,-46.396l-49.61,27.838l46.389,18.558Z" style="fill:#1f9869;fill-rule:nonzero;"/><path id="path9197" d="M86.334,417.113l47.034,-58.768l32.214,69.903l-79.248,-11.135Z" style="fill:#2fb630;fill-rule:nonzero;"/><path id="path9206" d="M3.214,378.416l24.685,-31.875l-50.648,-5.312l25.963,37.187Z" style="fill:#1f9869;fill-rule:nonzero;"/><path id="path92061" serif:id="path9206" d="M500.503,378.416l24.686,-31.875l-50.648,-5.312l25.962,37.187Z" style="fill:#1f9869;fill-rule:nonzero;"/><path id="path9208" d="M225.913,209.299c-5.704,3.175 -11.785,5.855 -11.842,16.448c-4.14,-3.124 -8.278,-7.106 -12.417,-7.175l-1.38,6.513c5.386,2.032 10.933,3.93 14.242,7.672c-5.801,3.274 -12.633,4.923 -16.7,10.928c-3.676,5.428 -2.035,16.53 1.768,21.954c9.094,12.97 27.783,25.533 46.162,13.951c12.327,-8.175 23.674,-17.022 18.424,-37.326c-1.863,-7.203 -8.225,-18.096 -14.846,-21.815c-8.772,-4.929 -20.888,-5.854 -29.275,10.749l-3.449,-2.249c10.391,-6.341 5.581,-12.031 9.313,-19.65l-0,0Zm19.948,16.448c2.302,0 4.196,1.844 4.196,4.085c0,2.24 -1.894,4.084 -4.196,4.084c-2.303,-0 -4.197,-1.844 -4.197,-4.084c0,-2.241 1.894,-4.085 4.197,-4.085Z" style="fill:#17a644;fill-rule:nonzero;"/><path id="path9209" d="M11.797,324.344c8.543,8.33 17.374,9.538 26.605,0.881c1.004,1.749 1.079,4.557 4.495,5.616c-2.906,6.005 -2.39,13.72 -0.955,21.355c1.212,6.448 1.924,17.091 3.894,23.321c2.541,8.036 8.438,14.682 16.525,18.018c15.394,6.347 33.572,-1.25 40.598,-16.968c7.034,-15.72 0.247,-33.614 -15.156,-39.956c-3.227,-1.326 -6.673,-2.065 -10.181,-2.198c-2.757,-0.106 -6.957,-0.811 -9.382,-2.081c-5.901,-3.093 -11.944,-5.819 -19.737,-4.271c-1.857,0.37 -3.944,-0.481 -4.562,-2.225c-2.009,-5.665 -2.319,-10.954 -0.167,-15.681c-2.432,-0.111 -4.86,-0.238 -7.569,1.071c-0.167,2.771 -1.028,5.503 0.621,8.373c-10.26,-7.917 -20.671,0.698 -25.028,4.744l-0.001,0.001Zm33.532,25.157c0.228,-0.361 0.532,-0.653 0.894,-0.86c1.505,-0.85 3.677,-0.035 4.817,1.807c1.139,1.84 0.847,4.058 -0.648,4.921c-0.003,0.001 -0.006,0.003 -0.008,0.005c-1.504,0.859 -3.682,0.048 -4.826,-1.796c-0.002,-0.002 -0.003,-0.005 -0.004,-0.007c-0.838,-1.358 -0.928,-2.968 -0.227,-4.069l0.002,-0.001Z" style="fill:#17a644;fill-rule:nonzero;"/><path id="path9210" d="M224.661,427.097l-15.244,-5.479l-13.342,8.951l0.716,-15.613l-12.99,-9.418l15.687,-4.17l5.315,-14.772l8.979,13.035l16.274,0.289l-10.138,12.227l4.743,14.95Z" style="fill:#1f9869;fill-rule:nonzero;"/><path id="path9186" d="M-16.374,389.649l-0.644,82.276l74.094,-52.582l-73.45,-29.694Z" style="fill:#1f9869;fill-rule:nonzero;"/><path id="path91861" serif:id="path9186" d="M480.735,-37.148l-0.644,82.276l4.564,-3.239l0,-36.104l50.874,0l18.656,-13.239l-73.45,-29.694Z" style="fill:#1f9869;fill-rule:nonzero;"/><path id="path91862" serif:id="path9186" d="M480.807,389.649l-0.644,82.276l74.094,-52.582l-73.45,-29.694Z" style="fill:#1f9869;fill-rule:nonzero;"/><path id="path9198" d="M-0.8,99.189l52.188,-46.396l22.551,77.327l-74.739,-30.931Z" style="fill:#2fb630;fill-rule:nonzero;"/><path id="path9199" d="M126.723,121.945l-53.879,-99.466l106.497,-0.788l-52.618,100.254Z" style="fill:#17a638;fill-rule:nonzero;"/><path id="path9200" d="M263.669,399.637l39.888,87.557l-79.292,0.919l39.404,-88.476Z" style="fill:#37ae46;fill-rule:nonzero;"/><path id="path9201" d="M228.683,176.777l-46.922,-70.499l77.519,-8.37l-30.597,78.869Z" style="fill:#2fb630;fill-rule:nonzero;"/><path id="path9202" d="M156.664,117.754l48.316,87.557l-96.044,0.92l47.728,-88.477Z" style="fill:#2fb630;fill-rule:nonzero;"/><path id="path9203" d="M237.099,185.745l103.088,-39.591l-36.725,98.978l-66.363,-59.387Z" style="fill:#2fb630;fill-rule:nonzero;"/><path id="path9204" d="M369.18,159.195l34.792,-61.862l48.323,53.201l-83.115,8.661Z" style="fill:#17a644;fill-rule:nonzero;"/><path id="path9205" d="M275.113,84.343l50.255,1.855l-34.792,55.057l-15.463,-56.912Z" style="fill:#17a644;fill-rule:nonzero;"/><path id="path92062" serif:id="path9206" d="M74.092,201.26l37.369,-48.252l-76.671,-8.041l39.302,56.293Z" style="fill:#1f9869;fill-rule:nonzero;"/><path id="path9207" d="M324.796,58.887c8.936,1.521 17.995,1.241 27.168,-0.737c-16.193,-21.707 -4.463,-40.667 11.322,-49.378c15.942,-8.798 44.108,2.752 72.811,-6.466c6.624,18.896 1.239,58.603 -13.045,72.024c0.184,-0.374 0.352,-0.755 0.501,-1.142c2.178,-7.789 -3.018,-15.999 -11.51,-18.188c-0,-0 -0,-0 -0,-0c-8.492,-2.189 -17.272,2.419 -19.45,10.208c-2.177,7.788 3.019,15.998 11.511,18.187c3.563,0.874 7.318,0.596 10.63,-0.786l-0.74,0.737c-10.646,23.221 -62.769,14.074 -59.327,-17.96l-22.206,10.823l-7.665,-17.322Z" style="fill:#2fad34;fill-rule:nonzero;"/><path id="path92101" serif:id="path9210" d="M364.859,131.428l-11.448,-4.114l-10.02,6.722l0.537,-11.725l-9.755,-7.073l11.781,-3.132l3.991,-11.094l6.743,9.79l12.222,0.217l-7.613,9.182l3.562,11.227Z" style="fill:#1f9869;fill-rule:nonzero;"/><path id="path27-9" d="M-17.018,164.089c0,-0 0,-0 0,-0c-19.391,-0 -35.348,15.834 -35.348,35.076c-0,19.242 15.957,35.076 35.348,35.076c0,0 0,0 0,0c19.392,0 35.348,-15.834 35.348,-35.076c0,-19.242 -15.956,-35.076 -35.348,-35.076Zm17.946,16.858c2.983,0 5.438,2.946 5.438,6.526l0,-0c0,3.58 -2.455,6.526 -5.438,6.526c-2.983,-0 -5.438,-2.946 -5.438,-6.526l-0,-0c-0,-3.58 2.455,-6.526 5.438,-6.526Z" style="fill:#17a644;fill-rule:nonzero;"/><path id="path27-91" serif:id="path27-9" d="M481.258,164.089c0,-0 0,-0 0,-0c-19.391,-0 -35.348,15.834 -35.348,35.076c0,19.242 15.957,35.076 35.348,35.076c0,0 0,0 0,0c19.392,0 35.348,-15.834 35.348,-35.076c0,-19.242 -15.956,-35.076 -35.348,-35.076Zm17.946,16.858c2.984,0 5.438,2.946 5.438,6.526l0,-0c0,3.58 -2.454,6.526 -5.438,6.526c-2.983,-0 -5.438,-2.946 -5.438,-6.526l0,-0c0,-3.58 2.455,-6.526 5.438,-6.526Z" style="fill:#17a644;fill-rule:nonzero;"/><path id="path91863" serif:id="path9186" d="M-16.374,-37.148l-0.644,82.276l4.564,-3.239l0,-36.104l50.874,0l18.656,-13.239l-73.45,-29.694Z" style="fill:#1f9869;fill-rule:nonzero;"/><path id="path92001" serif:id="path9200" d="M263.669,-25.764l39.888,87.557l-79.292,0.919l39.404,-88.476Z" style="fill:#37ae46;fill-rule:nonzero;"/><path id="path91864" serif:id="path9186" d="M480.796,-37.148l-0.644,82.276l74.094,-52.582l-73.45,-29.694Z" style="fill:#1f9869;fill-rule:nonzero;"/><path id="path91865" serif:id="path9186" d="M-16.374,-37.148l-0.644,82.276l74.094,-52.582l-73.45,-29.694Z" style="fill:#1f9869;fill-rule:nonzero;"/><path id="path92071" serif:id="path9207" d="M417.707,432.277c6.027,-0.469 12.196,-1.491 18.39,-3.48c0.384,1.093 0.727,2.256 1.03,3.48" style="fill:#2fad34;fill-rule:nonzero;"/><path d="M437.127,437.209l-19.42,0" style="fill:none;"/></g><g><path id="path91871" serif:id="path9187" d="M611.504,277.582l68.939,-9.898l-49.611,-56.294l-19.328,66.192Z" style="fill:#1f9869;fill-rule:nonzero;"/><path id="path91881" serif:id="path9188" d="M808.659,250.363l75.382,-59.387l19.329,91.555l-94.711,-32.168Z" style="fill:#1f9869;fill-rule:nonzero;"/><path id="path91892" serif:id="path9189" d="M905.375,244.019l1.818,-43.192l38.624,26.177l-40.442,17.015Z" style="fill:#17a644;fill-rule:nonzero;"/><path id="path91893" serif:id="path9189" d="M925.749,90.314l35.881,-24.114l1.779,46.625l-37.66,-22.511Z" style="fill:#17a644;fill-rule:nonzero;"/><path id="path91901" serif:id="path9190" d="M576.067,217.576l23.839,75.471l-99.222,-6.805l75.383,-68.666Z" style="fill:#1f9869;fill-rule:nonzero;"/><path id="path91911" serif:id="path9191" d="M885.33,341.299l67.007,-50.726l9.665,87.843l-76.672,-37.117Z" style="fill:#17a644;fill-rule:nonzero;"/><path id="path91921" serif:id="path9192" d="M632.765,296.759l83.115,-1.238l-40.591,67.429l-42.524,-66.191Z" style="fill:#2fb630;fill-rule:nonzero;"/><path id="path91931" serif:id="path9193" d="M706.215,356.146l57.987,-61.243l23.839,77.327l-81.826,-16.084Z" style="fill:#17a644;fill-rule:nonzero;"/><path id="path91941" serif:id="path9194" d="M808.014,285.624l16.108,79.801l56.698,-51.345l-72.806,-28.456Z" style="fill:#2fb630;fill-rule:nonzero;"/><path id="path91951" serif:id="path9195" d="M852.471,429.142l17.396,-67.429l57.987,64.336l-75.383,3.093Z" style="fill:#2fb630;fill-rule:nonzero;"/><path id="path91961" serif:id="path9196" d="M827.988,430.379l3.221,-46.396l-49.611,27.838l46.39,18.558Z" style="fill:#1f9869;fill-rule:nonzero;"/><path id="path91971" serif:id="path9197" d="M584.443,417.113l47.034,-58.768l32.215,69.903l-79.249,-11.135Z" style="fill:#2fb630;fill-rule:nonzero;"/><path id="path92063" serif:id="path9206" d="M501.323,378.416l24.686,-31.875l-50.649,-5.312l25.963,37.187Z" style="fill:#1f9869;fill-rule:nonzero;"/><path id="path92064" serif:id="path9206" d="M998.613,378.416l24.685,-31.875l-50.648,-5.312l25.963,37.187Z" style="fill:#1f9869;fill-rule:nonzero;"/><path id="path92081" serif:id="path9208" d="M724.022,209.299c-5.704,3.175 -11.785,5.855 -11.842,16.448c-4.139,-3.124 -8.278,-7.106 -12.417,-7.175l-1.38,6.513c5.386,2.032 10.934,3.93 14.243,7.672c-5.802,3.274 -12.633,4.923 -16.7,10.928c-3.677,5.428 -2.036,16.53 1.767,21.954c9.094,12.97 27.783,25.533 46.162,13.951c12.327,-8.175 23.674,-17.022 18.424,-37.326c-1.862,-7.203 -8.225,-18.096 -14.846,-21.815c-8.772,-4.929 -20.887,-5.854 -29.275,10.749l-3.449,-2.249c10.391,-6.341 5.582,-12.031 9.313,-19.65l0,0Zm19.948,16.448c2.302,0 4.196,1.844 4.196,4.085c0,2.24 -1.894,4.084 -4.196,4.084c-2.302,-0 -4.196,-1.844 -4.197,-4.084c0.001,-2.241 1.895,-4.085 4.197,-4.085Z" style="fill:#17a644;fill-rule:nonzero;"/><path id="path92091" serif:id="path9209" d="M509.907,324.344c8.542,8.33 17.374,9.538 26.604,0.881c1.005,1.749 1.08,4.557 4.495,5.616c-2.905,6.005 -2.389,13.72 -0.954,21.355c1.211,6.448 1.924,17.091 3.894,23.321c2.541,8.036 8.437,14.682 16.524,18.018c15.395,6.347 33.573,-1.25 40.598,-16.968c7.035,-15.72 0.247,-33.614 -15.156,-39.956c-3.227,-1.326 -6.673,-2.065 -10.181,-2.198c-2.757,-0.106 -6.957,-0.811 -9.382,-2.081c-5.901,-3.093 -11.944,-5.819 -19.737,-4.271c-1.857,0.37 -3.944,-0.481 -4.562,-2.225c-2.009,-5.665 -2.319,-10.954 -0.167,-15.681c-2.431,-0.111 -4.859,-0.238 -7.569,1.071c-0.167,2.771 -1.028,5.503 0.621,8.373c-10.259,-7.917 -20.671,0.698 -25.027,4.744l-0.001,0.001Zm33.531,25.157c0.229,-0.361 0.532,-0.653 0.894,-0.86c1.505,-0.85 3.678,-0.035 4.817,1.807c1.139,1.84 0.847,4.058 -0.648,4.921c-0.002,0.001 -0.005,0.003 -0.008,0.005c-1.504,0.859 -3.682,0.048 -4.826,-1.796c-0.001,-0.002 -0.003,-0.005 -0.004,-0.007c-0.838,-1.358 -0.928,-2.968 -0.226,-4.069l0.001,-0.001Z" style="fill:#17a644;fill-rule:nonzero;"/><path id="path92102" serif:id="path9210" d="M722.771,427.097l-15.244,-5.479l-13.343,8.951l0.716,-15.613l-12.989,-9.418l15.686,-4.17l5.315,-14.772l8.979,13.035l16.274,0.289l-10.137,12.227l4.743,14.95Z" style="fill:#1f9869;fill-rule:nonzero;"/><path id="path91866" serif:id="path9186" d="M481.736,389.649l-0.645,82.276l74.095,-52.582l-73.45,-29.694Z" style="fill:#1f9869;fill-rule:nonzero;"/><path id="path91867" serif:id="path9186" d="M978.845,-37.148l-0.645,82.276l4.564,-3.239l0,-36.104l50.875,0l18.656,-13.239l-73.45,-29.694Z" style="fill:#1f9869;fill-rule:nonzero;"/><path id="path91868" serif:id="path9186" d="M978.916,389.649l-0.644,82.276l74.094,-52.582l-73.45,-29.694Z" style="fill:#1f9869;fill-rule:nonzero;"/><path id="path91981" serif:id="path9198" d="M497.309,99.189l52.188,-46.396l22.551,77.327l-74.739,-30.931Z" style="fill:#2fb630;fill-rule:nonzero;"/><path id="path91991" serif:id="path9199" d="M624.832,121.945l-53.879,-99.466l106.498,-0.788l-52.619,100.254Z" style="fill:#17a638;fill-rule:nonzero;"/><path id="path92002" serif:id="path9200" d="M761.778,399.637l39.888,87.557l-79.292,0.919l39.404,-88.476Z" style="fill:#37ae46;fill-rule:nonzero;"/><path id="path92011" serif:id="path9201" d="M726.792,176.777l-46.922,-70.499l77.519,-8.37l-30.597,78.869Z" style="fill:#2fb630;fill-rule:nonzero;"/><path id="path92021" serif:id="path9202" d="M654.774,117.754l48.315,87.557l-96.044,0.92l47.729,-88.477Z" style="fill:#2fb630;fill-rule:nonzero;"/><path id="path92031" serif:id="path9203" d="M735.209,185.745l103.087,-39.591l-36.725,98.978l-66.362,-59.387Z" style="fill:#2fb630;fill-rule:nonzero;"/><path id="path92041" serif:id="path9204" d="M867.29,159.195l34.792,-61.862l48.322,53.201l-83.114,8.661Z" style="fill:#17a644;fill-rule:nonzero;"/><path id="path92051" serif:id="path9205" d="M773.222,84.343l50.256,1.855l-34.793,55.057l-15.463,-56.912Z" style="fill:#17a644;fill-rule:nonzero;"/><path id="path92065" serif:id="path9206" d="M572.201,201.26l37.37,-48.252l-76.672,-8.041l39.302,56.293Z" style="fill:#1f9869;fill-rule:nonzero;"/><path id="path92072" serif:id="path9207" d="M822.905,58.887c8.937,1.521 17.995,1.241 27.169,-0.737c-16.194,-21.707 -4.463,-40.667 11.322,-49.378c15.941,-8.798 44.108,2.752 72.811,-6.466c6.623,18.896 1.238,58.603 -13.046,72.024c0.185,-0.374 0.352,-0.755 0.502,-1.142c2.177,-7.789 -3.019,-15.999 -11.511,-18.188c0,-0 0,-0 0,-0c-8.492,-2.189 -17.271,2.419 -19.449,10.208c-2.178,7.788 3.018,15.998 11.51,18.187c3.564,0.874 7.318,0.596 10.631,-0.786l-0.74,0.737c-10.647,23.221 -62.77,14.074 -59.328,-17.96l-22.206,10.823l-7.665,-17.322Z" style="fill:#2fad34;fill-rule:nonzero;"/><path id="path92103" serif:id="path9210" d="M862.969,131.428l-11.449,-4.114l-10.02,6.722l0.538,-11.725l-9.755,-7.073l11.78,-3.132l3.992,-11.094l6.743,9.79l12.222,0.217l-7.614,9.182l3.563,11.227Z" style="fill:#1f9869;fill-rule:nonzero;"/><path id="path27-92" serif:id="path27-9" d="M481.092,164.089c-0.001,-0 -0.001,-0 -0.001,-0c-19.391,-0 -35.348,15.834 -35.348,35.076c0,19.242 15.957,35.076 35.348,35.076c0,0 0,0 0.001,0c19.391,0 35.348,-15.834 35.348,-35.076c-0,-19.242 -15.957,-35.076 -35.348,-35.076Zm17.945,16.858c2.984,0 5.439,2.946 5.439,6.526l-0,-0c-0,3.58 -2.455,6.526 -5.439,6.526c-2.983,-0 -5.438,-2.946 -5.438,-6.526l0,-0c0,-3.58 2.455,-6.526 5.438,-6.526Z" style="fill:#17a644;fill-rule:nonzero;"/><path id="path27-93" serif:id="path27-9" d="M979.368,164.089c-0,-0 -0,-0 -0,-0c-19.392,-0 -35.349,15.834 -35.349,35.076c0,19.242 15.957,35.076 35.349,35.076c-0,0 -0,0 -0,0c19.391,0 35.348,-15.834 35.348,-35.076c-0,-19.242 -15.957,-35.076 -35.348,-35.076Zm17.946,16.858c2.983,0 5.438,2.946 5.438,6.526l-0,-0c-0,3.58 -2.455,6.526 -5.438,6.526c-2.984,-0 -5.439,-2.946 -5.439,-6.526l0,-0c0,-3.58 2.455,-6.526 5.439,-6.526Z" style="fill:#17a644;fill-rule:nonzero;"/><path id="path91869" serif:id="path9186" d="M481.736,-37.148l-0.645,82.276l4.565,-3.239l-0,-36.104l50.874,0l18.656,-13.239l-73.45,-29.694Z" style="fill:#1f9869;fill-rule:nonzero;"/><path id="path92003" serif:id="path9200" d="M761.778,-25.764l39.888,87.557l-79.292,0.919l39.404,-88.476Z" style="fill:#37ae46;fill-rule:nonzero;"/><path id="path918610" serif:id="path9186" d="M978.906,-37.148l-0.644,82.276l74.094,-52.582l-73.45,-29.694Z" style="fill:#1f9869;fill-rule:nonzero;"/><path id="path918611" serif:id="path9186" d="M481.736,-37.148l-0.645,82.276l74.095,-52.582l-73.45,-29.694Z" style="fill:#1f9869;fill-rule:nonzero;"/><path id="path92073" serif:id="path9207" d="M915.817,432.277c6.026,-0.469 12.196,-1.491 18.39,-3.48c0.383,1.093 0.726,2.256 1.029,3.48" style="fill:#2fad34;fill-rule:nonzero;"/><path d="M935.236,437.209l-19.419,0" style="fill:none;"/></g><g><path id="path91872" serif:id="path9187" d="M113.394,704.558l68.94,-9.898l-49.611,-56.294l-19.329,66.192Z" style="fill:#1f9869;fill-rule:nonzero;"/><path id="path91882" serif:id="path9188" d="M310.549,677.339l75.383,-59.387l19.329,91.555l-94.712,-32.168Z" style="fill:#1f9869;fill-rule:nonzero;"/><path id="path91894" serif:id="path9189" d="M407.266,670.995l1.817,-43.193l38.624,26.178l-40.441,17.015Z" style="fill:#17a644;fill-rule:nonzero;"/><path id="path91895" serif:id="path9189" d="M427.64,517.29l35.881,-24.114l1.779,46.625l-37.66,-22.511Z" style="fill:#17a644;fill-rule:nonzero;"/><path id="path91902" serif:id="path9190" d="M77.958,644.552l23.839,75.471l-99.222,-6.805l75.383,-68.666Z" style="fill:#1f9869;fill-rule:nonzero;"/><path id="path91912" serif:id="path9191" d="M387.221,768.275l67.007,-50.726l9.664,87.843l-76.671,-37.117Z" style="fill:#17a644;fill-rule:nonzero;"/><path id="path91922" serif:id="path9192" d="M134.656,723.735l83.114,-1.238l-40.59,67.429l-42.524,-66.191Z" style="fill:#2fb630;fill-rule:nonzero;"/><path id="path91932" serif:id="path9193" d="M208.106,783.122l57.987,-61.243l23.839,77.326l-81.826,-16.083Z" style="fill:#17a644;fill-rule:nonzero;"/><path id="path91942" serif:id="path9194" d="M309.905,712.6l16.107,79.801l56.699,-51.345l-72.806,-28.456Z" style="fill:#2fb630;fill-rule:nonzero;"/><path id="path91952" serif:id="path9195" d="M354.362,856.118l17.396,-67.429l57.986,64.336l-75.382,3.093Z" style="fill:#2fb630;fill-rule:nonzero;"/><path id="path91962" serif:id="path9196" d="M329.878,857.355l3.221,-46.396l-49.61,27.838l46.389,18.558Z" style="fill:#1f9869;fill-rule:nonzero;"/><path id="path91972" serif:id="path9197" d="M86.334,844.089l47.034,-58.768l32.214,69.903l-79.248,-11.135Z" style="fill:#2fb630;fill-rule:nonzero;"/><path id="path92066" serif:id="path9206" d="M3.214,805.392l24.685,-31.875l-50.648,-5.312l25.963,37.187Z" style="fill:#1f9869;fill-rule:nonzero;"/><path id="path92067" serif:id="path9206" d="M500.503,805.392l24.686,-31.875l-50.648,-5.312l25.962,37.187Z" style="fill:#1f9869;fill-rule:nonzero;"/><path id="path92082" serif:id="path9208" d="M225.913,636.275c-5.704,3.175 -11.785,5.855 -11.842,16.448c-4.14,-3.124 -8.278,-7.106 -12.417,-7.175l-1.38,6.513c5.386,2.032 10.933,3.93 14.242,7.672c-5.801,3.274 -12.633,4.923 -16.7,10.928c-3.676,5.428 -2.035,16.53 1.768,21.954c9.094,12.97 27.783,25.533 46.162,13.95c12.327,-8.174 23.674,-17.021 18.424,-37.325c-1.863,-7.203 -8.225,-18.096 -14.846,-21.816c-8.772,-4.928 -20.888,-5.854 -29.275,10.75l-3.449,-2.25c10.391,-6.34 5.581,-12.031 9.313,-19.649l-0,0Zm19.948,16.448c2.302,0 4.196,1.844 4.196,4.085c0,2.24 -1.894,4.084 -4.196,4.084c-2.303,-0 -4.197,-1.844 -4.197,-4.084c0,-2.241 1.894,-4.085 4.197,-4.085Z" style="fill:#17a644;fill-rule:nonzero;"/><path id="path92092" serif:id="path9209" d="M11.797,751.32c8.543,8.33 17.374,9.538 26.605,0.881c1.004,1.748 1.079,4.557 4.495,5.616c-2.906,6.005 -2.39,13.72 -0.955,21.355c1.212,6.448 1.924,17.091 3.894,23.321c2.541,8.035 8.438,14.682 16.525,18.018c15.394,6.347 33.572,-1.25 40.598,-16.968c7.034,-15.72 0.247,-33.614 -15.156,-39.956c-3.227,-1.326 -6.673,-2.065 -10.181,-2.198c-2.757,-0.106 -6.957,-0.811 -9.382,-2.082c-5.901,-3.092 -11.944,-5.818 -19.737,-4.27c-1.857,0.37 -3.944,-0.481 -4.562,-2.225c-2.009,-5.665 -2.319,-10.954 -0.167,-15.681c-2.432,-0.111 -4.86,-0.238 -7.569,1.071c-0.167,2.77 -1.028,5.503 0.621,8.373c-10.26,-7.917 -20.671,0.697 -25.028,4.744l-0.001,0.001Zm33.532,25.157c0.228,-0.361 0.532,-0.653 0.894,-0.86c1.505,-0.85 3.677,-0.035 4.817,1.807c1.139,1.84 0.847,4.057 -0.648,4.921c-0.003,0.001 -0.006,0.003 -0.008,0.004c-1.504,0.86 -3.682,0.049 -4.826,-1.795c-0.002,-0.003 -0.003,-0.005 -0.004,-0.007c-0.838,-1.358 -0.928,-2.968 -0.227,-4.069l0.002,-0.001Z" style="fill:#17a644;fill-rule:nonzero;"/><path id="path92104" serif:id="path9210" d="M224.661,854.073l-15.244,-5.479l-13.342,8.951l0.716,-15.613l-12.99,-9.418l15.687,-4.171l5.315,-14.771l8.979,13.035l16.274,0.289l-10.138,12.227l4.743,14.95Z" style="fill:#1f9869;fill-rule:nonzero;"/><path id="path918612" serif:id="path9186" d="M-16.374,816.625l-0.644,82.275l74.094,-52.582l-73.45,-29.693Z" style="fill:#1f9869;fill-rule:nonzero;"/><path id="path918613" serif:id="path9186" d="M480.807,816.625l-0.644,82.275l74.094,-52.582l-73.45,-29.693Z" style="fill:#1f9869;fill-rule:nonzero;"/><path id="path91982" serif:id="path9198" d="M-0.8,526.165l52.188,-46.396l22.551,77.327l-74.739,-30.931Z" style="fill:#2fb630;fill-rule:nonzero;"/><path id="path91992" serif:id="path9199" d="M126.723,548.92l-53.879,-99.465l106.497,-0.788l-52.618,100.253Z" style="fill:#17a638;fill-rule:nonzero;"/><path id="path92004" serif:id="path9200" d="M263.669,826.613l39.888,87.556l-79.292,0.92l39.404,-88.476Z" style="fill:#37ae46;fill-rule:nonzero;"/><path id="path92012" serif:id="path9201" d="M228.683,603.752l-46.922,-70.498l77.519,-8.37l-30.597,78.868Z" style="fill:#2fb630;fill-rule:nonzero;"/><path id="path92022" serif:id="path9202" d="M156.664,544.73l48.316,87.557l-96.044,0.919l47.728,-88.476Z" style="fill:#2fb630;fill-rule:nonzero;"/><path id="path92032" serif:id="path9203" d="M237.099,612.721l103.088,-39.591l-36.725,98.978l-66.363,-59.387Z" style="fill:#2fb630;fill-rule:nonzero;"/><path id="path92042" serif:id="path9204" d="M369.18,586.17l34.792,-61.861l48.323,53.201l-83.115,8.66Z" style="fill:#17a644;fill-rule:nonzero;"/><path id="path92052" serif:id="path9205" d="M275.113,511.318l50.255,1.856l-34.792,55.057l-15.463,-56.913Z" style="fill:#17a644;fill-rule:nonzero;"/><path id="path92068" serif:id="path9206" d="M74.092,628.236l37.369,-48.252l-76.671,-8.041l39.302,56.293Z" style="fill:#1f9869;fill-rule:nonzero;"/><path id="path92074" serif:id="path9207" d="M324.796,485.863c8.936,1.521 17.995,1.24 27.168,-0.737c-16.193,-21.707 -4.463,-40.667 11.322,-49.378c15.942,-8.798 44.108,2.752 72.811,-6.466c6.624,18.896 1.239,58.603 -13.045,72.024c0.184,-0.374 0.352,-0.755 0.501,-1.143c2.178,-7.788 -3.018,-15.999 -11.51,-18.187c-0,-0 -0,-0 -0,-0c-8.492,-2.189 -17.272,2.419 -19.45,10.207c-2.177,7.789 3.019,15.999 11.511,18.188c3.563,0.874 7.318,0.596 10.63,-0.786l-0.74,0.737c-10.646,23.221 -62.769,14.074 -59.327,-17.96l-22.206,10.823l-7.665,-17.322Z" style="fill:#2fad34;fill-rule:nonzero;"/><path id="path92105" serif:id="path9210" d="M364.859,558.404l-11.448,-4.114l-10.02,6.722l0.537,-11.725l-9.755,-7.073l11.781,-3.132l3.991,-11.094l6.743,9.79l12.222,0.216l-7.613,9.183l3.562,11.227Z" style="fill:#1f9869;fill-rule:nonzero;"/><path id="path27-94" serif:id="path27-9" d="M-17.018,591.065c0,-0 0,-0 0,-0c-19.391,-0 -35.348,15.834 -35.348,35.076c-0,19.242 15.957,35.076 35.348,35.076c0,0 0,0 0,0c19.392,0 35.348,-15.834 35.348,-35.076c0,-19.242 -15.956,-35.076 -35.348,-35.076Zm17.946,16.858c2.983,-0 5.438,2.946 5.438,6.526l0,-0c0,3.58 -2.455,6.526 -5.438,6.526c-2.983,-0 -5.438,-2.946 -5.438,-6.526l-0,-0c-0,-3.58 2.455,-6.526 5.438,-6.526Z" style="fill:#17a644;fill-rule:nonzero;"/><path id="path27-95" serif:id="path27-9" d="M481.258,591.065c0,-0 0,-0 0,-0c-19.391,-0 -35.348,15.834 -35.348,35.076c0,19.242 15.957,35.076 35.348,35.076c0,0 0,0 0,0c19.392,0 35.348,-15.834 35.348,-35.076c0,-19.242 -15.956,-35.076 -35.348,-35.076Zm17.946,16.858c2.984,-0 5.438,2.946 5.438,6.526l0,-0c0,3.58 -2.454,6.526 -5.438,6.526c-2.983,-0 -5.438,-2.946 -5.438,-6.526l0,-0c0,-3.58 2.455,-6.526 5.438,-6.526Z" style="fill:#17a644;fill-rule:nonzero;"/><path id="path92005" serif:id="path9200" d="M263.669,401.212l39.888,87.556l-79.292,0.92l39.404,-88.476Z" style="fill:#37ae46;fill-rule:nonzero;"/><path id="path918614" serif:id="path9186" d="M480.796,389.828l-0.644,82.276l74.094,-52.582l-73.45,-29.694Z" style="fill:#1f9869;fill-rule:nonzero;"/><path id="path918615" serif:id="path9186" d="M-16.374,389.828l-0.644,82.276l74.094,-52.582l-73.45,-29.694Z" style="fill:#1f9869;fill-rule:nonzero;"/><path id="path92075" serif:id="path9207" d="M417.707,859.252c6.027,-0.468 12.196,-1.49 18.39,-3.479c0.384,1.093 0.727,2.256 1.03,3.479" style="fill:#2fad34;fill-rule:nonzero;"/></g><g><path id="path91873" serif:id="path9187" d="M611.504,704.558l68.939,-9.898l-49.611,-56.294l-19.328,66.192Z" style="fill:#1f9869;fill-rule:nonzero;"/><path id="path91883" serif:id="path9188" d="M808.659,677.339l75.382,-59.387l19.329,91.555l-94.711,-32.168Z" style="fill:#1f9869;fill-rule:nonzero;"/><path id="path91896" serif:id="path9189" d="M905.375,670.995l1.818,-43.193l38.624,26.178l-40.442,17.015Z" style="fill:#17a644;fill-rule:nonzero;"/><path id="path91897" serif:id="path9189" d="M925.749,517.29l35.881,-24.114l1.779,46.625l-37.66,-22.511Z" style="fill:#17a644;fill-rule:nonzero;"/><path id="path91903" serif:id="path9190" d="M576.067,644.552l23.839,75.471l-99.222,-6.805l75.383,-68.666Z" style="fill:#1f9869;fill-rule:nonzero;"/><path id="path91913" serif:id="path9191" d="M885.33,768.275l67.007,-50.726l9.665,87.843l-76.672,-37.117Z" style="fill:#17a644;fill-rule:nonzero;"/><path id="path91923" serif:id="path9192" d="M632.765,723.735l83.115,-1.238l-40.591,67.429l-42.524,-66.191Z" style="fill:#2fb630;fill-rule:nonzero;"/><path id="path91933" serif:id="path9193" d="M706.215,783.122l57.987,-61.243l23.839,77.326l-81.826,-16.083Z" style="fill:#17a644;fill-rule:nonzero;"/><path id="path91943" serif:id="path9194" d="M808.014,712.6l16.108,79.801l56.698,-51.345l-72.806,-28.456Z" style="fill:#2fb630;fill-rule:nonzero;"/><path id="path91953" serif:id="path9195" d="M852.471,856.118l17.396,-67.429l57.987,64.336l-75.383,3.093Z" style="fill:#2fb630;fill-rule:nonzero;"/><path id="path91963" serif:id="path9196" d="M827.988,857.355l3.221,-46.396l-49.611,27.838l46.39,18.558Z" style="fill:#1f9869;fill-rule:nonzero;"/><path id="path91973" serif:id="path9197" d="M584.443,844.089l47.034,-58.768l32.215,69.903l-79.249,-11.135Z" style="fill:#2fb630;fill-rule:nonzero;"/><path id="path92069" serif:id="path9206" d="M501.323,805.392l24.686,-31.875l-50.649,-5.312l25.963,37.187Z" style="fill:#1f9869;fill-rule:nonzero;"/><path id="path920610" serif:id="path9206" d="M998.613,805.392l24.685,-31.875l-50.648,-5.312l25.963,37.187Z" style="fill:#1f9869;fill-rule:nonzero;"/><path id="path92083" serif:id="path9208" d="M724.022,636.275c-5.704,3.175 -11.785,5.855 -11.842,16.448c-4.139,-3.124 -8.278,-7.106 -12.417,-7.175l-1.38,6.513c5.386,2.032 10.934,3.93 14.243,7.672c-5.802,3.274 -12.633,4.923 -16.7,10.928c-3.677,5.428 -2.036,16.53 1.767,21.954c9.094,12.97 27.783,25.533 46.162,13.95c12.327,-8.174 23.674,-17.021 18.424,-37.325c-1.862,-7.203 -8.225,-18.096 -14.846,-21.816c-8.772,-4.928 -20.887,-5.854 -29.275,10.75l-3.449,-2.25c10.391,-6.34 5.582,-12.031 9.313,-19.649l0,0Zm19.948,16.448c2.302,0 4.196,1.844 4.196,4.085c0,2.24 -1.894,4.084 -4.196,4.084c-2.302,-0 -4.196,-1.844 -4.197,-4.084c0.001,-2.241 1.895,-4.085 4.197,-4.085Z" style="fill:#17a644;fill-rule:nonzero;"/><path id="path92093" serif:id="path9209" d="M509.907,751.32c8.542,8.33 17.374,9.538 26.604,0.881c1.005,1.748 1.08,4.557 4.495,5.616c-2.905,6.005 -2.389,13.72 -0.954,21.355c1.211,6.448 1.924,17.091 3.894,23.321c2.541,8.035 8.437,14.682 16.524,18.018c15.395,6.347 33.573,-1.25 40.598,-16.968c7.035,-15.72 0.247,-33.614 -15.156,-39.956c-3.227,-1.326 -6.673,-2.065 -10.181,-2.198c-2.757,-0.106 -6.957,-0.811 -9.382,-2.082c-5.901,-3.092 -11.944,-5.818 -19.737,-4.27c-1.857,0.37 -3.944,-0.481 -4.562,-2.225c-2.009,-5.665 -2.319,-10.954 -0.167,-15.681c-2.431,-0.111 -4.859,-0.238 -7.569,1.071c-0.167,2.77 -1.028,5.503 0.621,8.373c-10.259,-7.917 -20.671,0.697 -25.027,4.744l-0.001,0.001Zm33.531,25.157c0.229,-0.361 0.532,-0.653 0.894,-0.86c1.505,-0.85 3.678,-0.035 4.817,1.807c1.139,1.84 0.847,4.057 -0.648,4.921c-0.002,0.001 -0.005,0.003 -0.008,0.004c-1.504,0.86 -3.682,0.049 -4.826,-1.795c-0.001,-0.003 -0.003,-0.005 -0.004,-0.007c-0.838,-1.358 -0.928,-2.968 -0.226,-4.069l0.001,-0.001Z" style="fill:#17a644;fill-rule:nonzero;"/><path id="path92106" serif:id="path9210" d="M722.771,854.073l-15.244,-5.479l-13.343,8.951l0.716,-15.613l-12.989,-9.418l15.686,-4.171l5.315,-14.771l8.979,13.035l16.274,0.289l-10.137,12.227l4.743,14.95Z" style="fill:#1f9869;fill-rule:nonzero;"/><path id="path918616" serif:id="path9186" d="M481.736,816.625l-0.645,82.275l74.095,-52.582l-73.45,-29.693Z" style="fill:#1f9869;fill-rule:nonzero;"/><path id="path918617" serif:id="path9186" d="M978.845,389.828l-0.645,82.276l4.564,-3.239l0,-36.104l50.875,0l18.656,-13.239l-73.45,-29.694Z" style="fill:#1f9869;fill-rule:nonzero;"/><path id="path918618" serif:id="path9186" d="M978.916,816.625l-0.644,82.275l74.094,-52.582l-73.45,-29.693Z" style="fill:#1f9869;fill-rule:nonzero;"/><path id="path91983" serif:id="path9198" d="M497.309,526.165l52.188,-46.396l22.551,77.327l-74.739,-30.931Z" style="fill:#2fb630;fill-rule:nonzero;"/><path id="path91993" serif:id="path9199" d="M624.832,548.92l-53.879,-99.465l106.498,-0.788l-52.619,100.253Z" style="fill:#17a638;fill-rule:nonzero;"/><path id="path92006" serif:id="path9200" d="M761.778,826.613l39.888,87.556l-79.292,0.92l39.404,-88.476Z" style="fill:#37ae46;fill-rule:nonzero;"/><path id="path92013" serif:id="path9201" d="M726.792,603.752l-46.922,-70.498l77.519,-8.37l-30.597,78.868Z" style="fill:#2fb630;fill-rule:nonzero;"/><path id="path92023" serif:id="path9202" d="M654.774,544.73l48.315,87.557l-96.044,0.919l47.729,-88.476Z" style="fill:#2fb630;fill-rule:nonzero;"/><path id="path92033" serif:id="path9203" d="M735.209,612.721l103.087,-39.591l-36.725,98.978l-66.362,-59.387Z" style="fill:#2fb630;fill-rule:nonzero;"/><path id="path92043" serif:id="path9204" d="M867.29,586.17l34.792,-61.861l48.322,53.201l-83.114,8.66Z" style="fill:#17a644;fill-rule:nonzero;"/><path id="path92053" serif:id="path9205" d="M773.222,511.318l50.256,1.856l-34.793,55.057l-15.463,-56.913Z" style="fill:#17a644;fill-rule:nonzero;"/><path id="path920611" serif:id="path9206" d="M572.201,628.236l37.37,-48.252l-76.672,-8.041l39.302,56.293Z" style="fill:#1f9869;fill-rule:nonzero;"/><path id="path92076" serif:id="path9207" d="M822.905,485.863c8.937,1.521 17.995,1.24 27.169,-0.737c-16.194,-21.707 -4.463,-40.667 11.322,-49.378c15.941,-8.798 44.108,2.752 72.811,-6.466c6.623,18.896 1.238,58.603 -13.046,72.024c0.185,-0.374 0.352,-0.755 0.502,-1.143c2.177,-7.788 -3.019,-15.999 -11.511,-18.187c0,-0 0,-0 0,-0c-8.492,-2.189 -17.271,2.419 -19.449,10.207c-2.178,7.789 3.018,15.999 11.51,18.188c3.564,0.874 7.318,0.596 10.631,-0.786l-0.74,0.737c-10.647,23.221 -62.77,14.074 -59.328,-17.96l-22.206,10.823l-7.665,-17.322Z" style="fill:#2fad34;fill-rule:nonzero;"/><path id="path92107" serif:id="path9210" d="M862.969,558.404l-11.449,-4.114l-10.02,6.722l0.538,-11.725l-9.755,-7.073l11.78,-3.132l3.992,-11.094l6.743,9.79l12.222,0.216l-7.614,9.183l3.563,11.227Z" style="fill:#1f9869;fill-rule:nonzero;"/><path id="path27-96" serif:id="path27-9" d="M481.092,591.065c-0.001,-0 -0.001,-0 -0.001,-0c-19.391,-0 -35.348,15.834 -35.348,35.076c0,19.242 15.957,35.076 35.348,35.076c0,0 0,0 0.001,0c19.391,0 35.348,-15.834 35.348,-35.076c-0,-19.242 -15.957,-35.076 -35.348,-35.076Zm17.945,16.858c2.984,-0 5.439,2.946 5.439,6.526l-0,-0c-0,3.58 -2.455,6.526 -5.439,6.526c-2.983,-0 -5.438,-2.946 -5.438,-6.526l0,-0c0,-3.58 2.455,-6.526 5.438,-6.526Z" style="fill:#17a644;fill-rule:nonzero;"/><path id="path27-97" serif:id="path27-9" d="M979.368,591.065c-0,-0 -0,-0 -0,-0c-19.392,-0 -35.349,15.834 -35.349,35.076c0,19.242 15.957,35.076 35.349,35.076c-0,0 -0,0 -0,0c19.391,0 35.348,-15.834 35.348,-35.076c-0,-19.242 -15.957,-35.076 -35.348,-35.076Zm17.946,16.858c2.983,-0 5.438,2.946 5.438,6.526l-0,-0c-0,3.58 -2.455,6.526 -5.438,6.526c-2.984,-0 -5.439,-2.946 -5.439,-6.526l0,-0c0,-3.58 2.455,-6.526 5.439,-6.526Z" style="fill:#17a644;fill-rule:nonzero;"/><path id="path918619" serif:id="path9186" d="M481.736,389.828l-0.645,82.276l4.565,-3.239l-0,-36.104l50.874,0l18.656,-13.239l-73.45,-29.694Z" style="fill:#1f9869;fill-rule:nonzero;"/><path id="path92007" serif:id="path9200" d="M761.778,401.212l39.888,87.556l-79.292,0.92l39.404,-88.476Z" style="fill:#37ae46;fill-rule:nonzero;"/><path id="path918620" serif:id="path9186" d="M978.906,389.828l-0.644,82.276l74.094,-52.582l-73.45,-29.694Z" style="fill:#1f9869;fill-rule:nonzero;"/><path id="path918621" serif:id="path9186" d="M481.736,389.828l-0.645,82.276l74.095,-52.582l-73.45,-29.694Z" style="fill:#1f9869;fill-rule:nonzero;"/><path id="path92077" serif:id="path9207" d="M915.817,859.252c6.026,-0.468 12.196,-1.49 18.39,-3.479c0.383,1.093 0.726,2.256 1.029,3.479" style="fill:#2fad34;fill-rule:nonzero;"/></g></g></g></svg>