<?xml version="1.0" encoding="UTF-8" standalone="no"?><!DOCTYPE svg PUBLIC "-//W3C//DTD SVG 1.1//EN" "http://www.w3.org/Graphics/SVG/1.1/DTD/svg11.dtd"><svg width="100%" height="100%" viewBox="0 0 1000 1001" version="1.1" xmlns="http://www.w3.org/2000/svg" xmlns:xlink="http://www.w3.org/1999/xlink" xml:space="preserve" xmlns:serif="http://www.serif.com/" style="fill-rule:evenodd;clip-rule:evenodd;stroke-linejoin:round;stroke-miterlimit:2;"><rect id="blog" x="0" y="0.715" width="1000" height="1000" style="fill:none;"/><g><path d="M229.499,520.154c9.367,-0.434 17.912,-5.475 22.824,-13.462c47.235,-77.37 121.571,-56.03 99.666,25.5c-2.706,10.471 0.799,21.567 9.029,28.583c15.223,12.909 21.837,32.714 21.157,57.649c-0.223,7.751 2.739,15.254 8.197,20.761c6.511,6.579 12.21,15.294 26.568,14.696c53.058,-2.207 45.104,98.137 -118.607,123.007c-0.337,0.051 -0.675,0.096 -1.014,0.135c-128.073,14.722 -228.901,-11.107 -198.372,-175.521c1.633,-8.786 -0.979,-17.828 -7.045,-24.391c-65.787,-70.295 21.085,-126.063 68.895,-65.611c5.658,7.161 14.419,11.156 23.535,10.733c13.216,-0.596 31.98,-1.467 45.167,-2.079Z" style="fill:#5b4e97;"/><g><path d="M931.846,322.122c-0,55.895 -45.38,101.274 -101.274,101.274l-155.014,0l-79.884,66.267c8.849,-23.604 9.097,-45.762 -0.48,-66.267l-157.93,0c-55.895,0 -101.275,-45.379 -101.275,-101.274c0,-55.895 45.38,-101.275 101.275,-101.275l393.308,0c55.894,0 101.274,45.38 101.274,101.275Z" style="fill:#f6f1ea;"/><g><path d="M633.731,355.255c-18.287,0 -33.134,-14.846 -33.134,-33.133c-0,-18.287 14.847,-33.134 33.134,-33.134c18.287,0 33.134,14.847 33.134,33.134c-0,18.287 -14.847,33.133 -33.134,33.133Z" style="fill:#605245;"/><path d="M507.93,355.255c-18.287,0 -33.134,-14.846 -33.134,-33.133c-0,-18.287 14.847,-33.134 33.134,-33.134c18.287,0 33.134,14.847 33.134,33.134c-0,18.287 -14.847,33.133 -33.134,33.133Z" style="fill:#605245;"/><path d="M759.905,355.255c-18.286,0 -33.133,-14.846 -33.133,-33.133c-0,-18.287 14.847,-33.134 33.133,-33.134c18.287,0 33.134,14.847 33.134,33.134c0,18.287 -14.847,33.133 -33.134,33.133Z" style="fill:#605245;"/></g></g></g></svg>