<?xml version="1.0" encoding="UTF-8" standalone="no"?><!DOCTYPE svg PUBLIC "-//W3C//DTD SVG 1.1//EN" "http://www.w3.org/Graphics/SVG/1.1/DTD/svg11.dtd"><svg width="100%" height="100%" viewBox="0 0 1001 1000" version="1.1" xmlns="http://www.w3.org/2000/svg" xmlns:xlink="http://www.w3.org/1999/xlink" xml:space="preserve" xmlns:serif="http://www.serif.com/" style="fill-rule:evenodd;clip-rule:evenodd;stroke-linejoin:round;stroke-miterlimit:2;"><rect id="blog" x="0.926" y="0" width="1000" height="1000" style="fill:none;"/><g><path d="M230.425,519.44c9.367,-0.435 17.912,-5.475 22.824,-13.463c47.235,-77.369 121.571,-56.029 99.665,25.501c-2.706,10.47 0.8,21.567 9.03,28.582c15.222,12.91 21.836,32.714 21.157,57.65c-0.224,7.75 2.739,15.253 8.197,20.76c6.51,6.579 12.21,15.294 26.567,14.697c53.059,-2.208 45.105,98.137 -118.606,123.006c-0.338,0.051 -0.676,0.097 -1.014,0.136c-128.074,14.721 -228.902,-11.108 -198.372,-175.521c1.632,-8.787 -0.979,-17.828 -7.045,-24.391c-65.788,-70.295 21.084,-126.063 68.895,-65.611c5.657,7.16 14.418,11.156 23.534,10.733c13.216,-0.596 31.98,-1.467 45.168,-2.079Z" style="fill:#5b4e97;"/><g><path d="M932.771,321.407c0,55.895 -45.379,101.275 -101.274,101.275l-155.013,-0l-79.884,66.267c8.848,-23.605 9.097,-45.762 -0.48,-66.267l-157.931,-0c-55.895,-0 -101.274,-45.38 -101.274,-101.275c-0,-55.895 45.379,-101.274 101.274,-101.274l393.308,-0c55.895,-0 101.274,45.379 101.274,101.274Z" style="fill:#f7f5e6;"/><g><path d="M634.656,354.541c-18.287,-0 -33.134,-14.847 -33.134,-33.134c0,-18.287 14.847,-33.133 33.134,-33.133c18.287,-0 33.134,14.846 33.134,33.133c0,18.287 -14.847,33.134 -33.134,33.134Z" style="fill:#74664b;"/><path d="M508.855,354.541c-18.287,-0 -33.134,-14.847 -33.134,-33.134c0,-18.287 14.847,-33.133 33.134,-33.133c18.287,-0 33.134,14.846 33.134,33.133c0,18.287 -14.847,33.134 -33.134,33.134Z" style="fill:#74664b;"/><path d="M760.831,354.541c-18.287,-0 -33.134,-14.847 -33.134,-33.134c0,-18.287 14.847,-33.133 33.134,-33.133c18.287,-0 33.134,14.846 33.134,33.133c-0,18.287 -14.847,33.134 -33.134,33.134Z" style="fill:#74664b;"/></g></g></g></svg>