<?xml version="1.0" encoding="UTF-8" standalone="no"?><!DOCTYPE svg PUBLIC "-//W3C//DTD SVG 1.1//EN" "http://www.w3.org/Graphics/SVG/1.1/DTD/svg11.dtd"><svg width="100%" height="100%" viewBox="0 0 1001 1000" version="1.1" xmlns="http://www.w3.org/2000/svg" xmlns:xlink="http://www.w3.org/1999/xlink" xml:space="preserve" xmlns:serif="http://www.serif.com/" style="fill-rule:evenodd;clip-rule:evenodd;stroke-linecap:round;stroke-linejoin:round;stroke-miterlimit:1.5;"><rect id="cellular_status" x="0.149" y="0" width="1000" height="1000" style="fill:none;"/><path d="M442.432,389.333c-0,-77.099 134.315,-64.384 134.315,-0" style="fill:none;stroke:#654f3e;stroke-width:50px;"/><path d="M442.432,524.976c-0,-77.098 134.315,-64.383 134.315,0" style="fill:none;stroke:#654f3e;stroke-width:50px;"/><path d="M241.545,524.976c0,-77.098 134.315,-64.383 134.315,0" style="fill:none;stroke:#654f3e;stroke-width:50px;"/><path d="M442.432,660.62c-0,-77.099 134.315,-64.384 134.315,-0" style="fill:none;stroke:#654f3e;stroke-width:50px;"/><path d="M241.545,660.62c0,-77.099 134.315,-64.384 134.315,-0" style="fill:none;stroke:#654f3e;stroke-width:50px;"/><path d="M41.787,660.62c0,-77.099 134.315,-64.384 134.315,-0" style="fill:none;stroke:#654f3e;stroke-width:50px;"/><path d="M847.47,399.958c-9.258,-0.43 -17.722,-5.361 -22.662,-13.204c-41.679,-66.856 -106.214,-48.452 -88.195,22.29c2.467,10.129 -0.841,20.792 -8.605,27.748c-12.601,11.299 -18.206,28.184 -17.833,49.287c0.145,7.503 -2.694,14.756 -7.892,20.168c-5.526,5.759 -10.674,12.929 -22.963,12.417c-47.122,-1.96 -40.066,87.144 105.288,109.251c0.339,0.052 0.679,0.097 1.019,0.136c113.367,13.021 202.682,-9.746 176.411,-154.494c-1.563,-8.63 0.963,-17.498 6.839,-24.011c56.515,-61.644 -18.912,-110.23 -61.314,-58.253c-5.671,6.932 -14.286,10.773 -23.232,10.357c-11.054,-0.494 -25.815,-1.179 -36.861,-1.692Z" style="fill:#74664b;"/></svg>