<?xml version="1.0" encoding="UTF-8" standalone="no"?><!DOCTYPE svg PUBLIC "-//W3C//DTD SVG 1.1//EN" "http://www.w3.org/Graphics/SVG/1.1/DTD/svg11.dtd"><svg width="100%" height="100%" viewBox="0 0 1001 1000" version="1.1" xmlns="http://www.w3.org/2000/svg" xmlns:xlink="http://www.w3.org/1999/xlink" xml:space="preserve" xmlns:serif="http://www.serif.com/" style="fill-rule:evenodd;clip-rule:evenodd;stroke-linejoin:round;stroke-miterlimit:2;"><rect id="contact" x="0.739" y="0" width="1000" height="1000" style="fill:none;"/><path d="M436.661,298.602c0,45.231 -36.722,81.953 -81.953,81.953l-91.896,-0c-45.232,-0 -81.954,-36.722 -81.954,-81.953c0,-45.231 36.722,-81.953 81.954,-81.953l91.896,-0c45.231,-0 81.953,36.722 81.953,81.953Z" style="fill:#ea85c3;"/><g><path d="M820.619,494.123c-0,112.844 -91.615,204.459 -204.46,204.459l-75.613,0l-41.11,84.769l-39.237,-84.769l-74.881,0c-112.844,0 -204.46,-91.615 -204.46,-204.459c0,-112.844 91.616,-204.459 204.46,-204.459l230.841,0c112.845,0 204.46,91.615 204.46,204.459Z" style="fill:#f6f1ea;"/><path d="M505.88,532.889c-22.996,-0 -41.667,-18.67 -41.667,-41.667c-0,-22.996 18.671,-41.667 41.667,-41.667c22.997,0 41.667,18.671 41.667,41.667c0,22.997 -18.67,41.667 -41.667,41.667Z" style="fill:#605245;"/><path d="M347.68,532.889c-22.996,-0 -41.667,-18.67 -41.667,-41.667c0,-22.996 18.671,-41.667 41.667,-41.667c22.997,0 41.668,18.671 41.668,41.667c-0,22.997 -18.671,41.667 -41.668,41.667Z" style="fill:#605245;"/><path d="M664.55,532.889c-22.996,-0 -41.667,-18.67 -41.667,-41.667c-0,-22.996 18.671,-41.667 41.667,-41.667c22.996,0 41.667,18.671 41.667,41.667c0,22.997 -18.671,41.667 -41.667,41.667Z" style="fill:#605245;"/></g></svg>