<?xml version="1.0" encoding="UTF-8" standalone="no"?><!DOCTYPE svg PUBLIC "-//W3C//DTD SVG 1.1//EN" "http://www.w3.org/Graphics/SVG/1.1/DTD/svg11.dtd"><svg width="100%" height="100%" viewBox="0 0 1001 1001" version="1.1" xmlns="http://www.w3.org/2000/svg" xmlns:xlink="http://www.w3.org/1999/xlink" xml:space="preserve" xmlns:serif="http://www.serif.com/" style="fill-rule:evenodd;clip-rule:evenodd;stroke-linejoin:round;stroke-miterlimit:2;"><rect id="contact_colors" x="0.824" y="0.466" width="1000" height="1000" style="fill:none;"/><clipPath id="_clip1"><rect x="0.824" y="0.466" width="1000" height="1000"/></clipPath><g clip-path="url(#_clip1)"><path d="M500.824,250.466c0,137.979 -112.021,250 -250,250c-137.979,0 -250,-112.021 -250,-250c0,-137.978 112.021,-250 250,-250c137.979,0 250,112.022 250,250Z" style="fill:#ea85c3;"/><path d="M1000.82,250.466c0,137.979 -112.021,250 -250,250c-137.979,0 -250,-112.021 -250,-250c0,-137.978 112.021,-250 250,-250c137.979,0 250,112.022 250,250Z" style="fill:#74664b;"/><path d="M500.824,750.466c0,137.979 -112.021,250 -250,250c-137.979,0 -250,-112.021 -250,-250c0,-137.978 112.021,-250 250,-250c137.979,0 250,112.022 250,250Z" style="fill:#f7f5e6;"/></g></svg>