<?xml version="1.0" encoding="UTF-8" standalone="no"?><!DOCTYPE svg PUBLIC "-//W3C//DTD SVG 1.1//EN" "http://www.w3.org/Graphics/SVG/1.1/DTD/svg11.dtd"><svg width="100%" height="100%" viewBox="0 0 1920 1082" version="1.1" xmlns="http://www.w3.org/2000/svg" xmlns:xlink="http://www.w3.org/1999/xlink" xml:space="preserve" xmlns:serif="http://www.serif.com/" style="fill-rule:evenodd;clip-rule:evenodd;stroke-linejoin:round;stroke-miterlimit:2;"><rect id="contact-bg" x="0.492" y="0.479" width="1919.28" height="1081.22" style="fill:none;"/><clipPath id="_clip1"><rect x="0.492" y="0.479" width="1919.28" height="1081.22"/></clipPath><g clip-path="url(#_clip1)"><path d="M0.492,814.723l0,463.815l1919.28,-0l-0,-593.158c-116.736,22.5 -170.89,92.099 -160.064,210.601c-42.99,-36.744 -83.969,-40.478 -122.362,-1.74c-22.15,-144.23 -100.345,-202.191 -239.05,-167.013c10.349,-87.327 -29.302,-118.062 -86.861,-128.528c23.334,-152.983 -33.179,-245.63 -209.32,-247.881c-10.875,-100.313 -70.154,-152.336 -189.703,-144.231c-84.859,-90.933 -154.241,-94.076 -203.477,17.055c-134.913,12.856 -201.599,70.822 -157.074,202.319c-86.744,6.117 -121.465,44.825 -102.991,116.856c-132.635,24.6 -195.668,96.399 -145.079,245.249c-40.488,12.411 -53.058,39.657 -34.194,83.781c-72.505,-4.211 -111.917,21.591 -128.813,67.813c-20.436,-90.995 -69.992,-127.407 -140.291,-124.938Z" style="fill:#fff;"/><path d="M1817.78,913.424l15.306,-30.636l-83.515,-12.107l28.336,-155.754c-41.107,24.563 -77.652,53.749 -98.147,99.196c-1.502,3.37 -1.486,7.222 0.043,10.579c7.945,17.618 27.239,30.47 50.437,41.681l-101.06,-17.273c-2.08,22.175 15.763,44.037 44.484,65.727c-587.158,-69.243 -264.777,-20.075 -713.53,-0c-463.156,-29.324 -215.379,-59.167 -764.438,-1.444c-5.39,0.566 -10.818,0.678 -16.227,0.334c-35.966,-2.289 -178.974,-11.392 -178.974,-11.392l0,179.364l1919.28,-0l-0,-169.41c-33.807,-3.387 -67.786,-3.376 -101.994,1.135Z" style="fill:#0460ab;"/><path d="M1755.24,922.01c-0,0 41.898,-15.509 60.152,-22.266c2.153,-0.797 3.877,-2.455 4.756,-4.575c0.88,-2.12 0.836,-4.511 -0.12,-6.598c-11.775,-25.618 -47.441,-102.234 -44.531,-83.847c5.648,35.692 -20.257,117.286 -20.257,117.286Z" style="fill:#0460ab;"/></g></svg>