<?xml version="1.0" encoding="UTF-8" standalone="no"?><!DOCTYPE svg PUBLIC "-//W3C//DTD SVG 1.1//EN" "http://www.w3.org/Graphics/SVG/1.1/DTD/svg11.dtd"><svg width="100%" height="100%" viewBox="0 0 1000 1001" version="1.1" xmlns="http://www.w3.org/2000/svg" xmlns:xlink="http://www.w3.org/1999/xlink" xml:space="preserve" xmlns:serif="http://www.serif.com/" style="fill-rule:evenodd;clip-rule:evenodd;stroke-linejoin:round;stroke-miterlimit:2;"><rect id="designs" x="0" y="0.832" width="1000" height="1000" style="fill:none;"/><path d="M452.984,510.914l194.343,189.775c0,-0 -180.055,48.659 -239.261,64.659c-3.889,1.051 -8.044,-0.032 -10.927,-2.846c-2.883,-2.815 -4.063,-6.944 -3.105,-10.857c14.587,-59.569 58.95,-240.731 58.95,-240.731Z" style="fill:#fdd35a;"/><path d="M411.804,679.077l67.478,67.025c0,-0 -44.901,12.134 -71.216,19.246c-3.889,1.051 -8.044,-0.032 -10.927,-2.846c-2.883,-2.815 -4.063,-6.944 -3.105,-10.857c6.542,-26.717 17.77,-72.568 17.77,-72.568Z" style="fill:#57453b;"/><path d="M843.301,409.195c25.067,24.478 25.545,64.642 1.067,89.709c-57.174,58.551 -153.606,157.304 -190.061,194.637c-3.857,3.95 -9.127,6.207 -14.648,6.272c-5.521,0.066 -10.843,-2.064 -14.793,-5.922c-36.181,-35.33 -128.371,-125.353 -164.552,-160.683c-3.951,-3.858 -6.207,-9.127 -6.273,-14.649c-0.065,-5.521 2.065,-10.843 5.923,-14.793c36.455,-37.333 132.886,-136.086 190.061,-194.637c24.478,-25.067 64.642,-25.545 89.709,-1.067c31.174,30.442 72.393,70.691 103.567,101.133Z" style="fill:#57453b;"/><path d="M269.623,238.104c-2.132,-3.97 -6.76,-5.896 -11.079,-4.611c-56.249,16.963 -103.774,49.295 -143.776,94.877c-2.189,2.507 -2.91,5.975 -1.902,9.146c10.972,33.747 34.482,63.339 67.806,89.677c3.067,2.414 7.298,2.71 10.672,0.746c3.364,-1.954 7.84,-4.56 12.222,-7.11c3.088,-1.798 6.923,-1.716 9.931,0.214c3.008,1.929 4.681,5.381 4.335,8.937c-4.317,35.612 -16.475,72.835 -27.491,109.825c-1.264,4.271 0.602,8.847 4.491,11.016c101.709,56.271 209.593,52.604 319.766,26.742c4.931,-1.165 8.085,-5.989 7.175,-10.973c-4.548,-24.913 -17.545,-96.091 -24.164,-132.339c-0.684,-3.743 0.927,-7.533 4.095,-9.639c3.168,-2.106 7.286,-2.124 10.472,-0.045c6.032,3.935 12.38,8.076 17.096,11.153c4.167,2.719 9.723,1.771 12.754,-2.174c23.114,-30.111 44.485,-60.964 55.382,-96.28c0.888,-2.946 0.295,-6.139 -1.591,-8.57c-41.519,-53.306 -88.628,-75.492 -136.448,-93.711c-4.518,-1.721 -9.608,0.218 -11.836,4.509c-37.936,72.508 -136.497,75.08 -177.91,-1.39Z" style="fill:#f7f5de;"/><ellipse cx="355.116" cy="352.045" rx="18.968" ry="18.974" style="fill:#605245;"/><ellipse cx="355.116" cy="424.507" rx="18.968" ry="18.974" style="fill:#605245;"/></svg>