<?xml version="1.0" encoding="UTF-8" standalone="no"?><!DOCTYPE svg PUBLIC "-//W3C//DTD SVG 1.1//EN" "http://www.w3.org/Graphics/SVG/1.1/DTD/svg11.dtd"><svg width="100%" height="100%" viewBox="0 0 1001 1001" version="1.1" xmlns="http://www.w3.org/2000/svg" xmlns:xlink="http://www.w3.org/1999/xlink" xml:space="preserve" xmlns:serif="http://www.serif.com/" style="fill-rule:evenodd;clip-rule:evenodd;stroke-linecap:round;stroke-linejoin:round;stroke-miterlimit:1.5;"><rect id="gallery" x="0.363" y="0.55" width="1000" height="1000" style="fill:none;"/><path d="M812.376,421.181l-75.239,297.518c-11.679,46.183 -58.655,74.195 -104.837,62.516l-381.435,-96.459c-46.182,-11.679 -74.195,-58.655 -62.516,-104.838l75.239,-297.518c11.679,-46.182 58.655,-74.195 104.837,-62.516l381.435,96.46c46.182,11.679 74.195,58.655 62.516,104.837Z" style="fill:#fff;stroke:#000;stroke-width:36.04px;"/><path d="M741.125,286.809l69.732,298.856c10.824,46.391 -18.051,92.842 -64.441,103.666l-383.15,89.4c-46.391,10.825 -92.842,-18.05 -103.666,-64.441l-69.732,-298.856c-10.824,-46.39 18.051,-92.841 64.441,-103.666l383.15,-89.4c46.391,-10.824 92.842,18.051 103.666,64.441Z" style="fill:#fff;stroke:#000;stroke-width:36.04px;"/><path d="M507.699,519.509c1.107,0.408 2.853,1.101 4.034,1.804c5.602,3.34 11.459,8.779 17.353,15.22c19.892,21.737 39.302,54.679 45.306,72.586c7.559,22.546 0.198,46.762 -18.83,53.142c-19.028,6.379 -39.499,-8.504 -47.058,-31.05c-6.004,-17.908 -10.375,-55.892 -7.606,-85.227c0.82,-8.692 2.214,-16.563 4.671,-22.604c0.518,-1.273 1.493,-2.878 2.13,-3.871Z" style="fill:#2594a5;"/><path d="M517.966,510.806c1.083,-0.468 2.825,-1.171 4.165,-1.476c6.36,-1.446 14.353,-1.547 23.063,-0.948c29.396,2.018 66.171,12.482 82.87,21.307c21.024,11.111 32.396,33.722 23.019,51.465c-9.377,17.744 -34.465,21.086 -55.489,9.976c-16.699,-8.825 -46.062,-33.314 -64.291,-56.463c-5.401,-6.86 -9.821,-13.52 -12.209,-19.589c-0.503,-1.279 -0.904,-3.114 -1.128,-4.272Z" style="fill:#3fa38a;"/><path d="M519.351,497.463c0.462,-1.086 1.238,-2.797 1.998,-3.941c3.608,-5.434 9.325,-11.02 16.045,-16.594c22.676,-18.814 56.521,-36.603 74.699,-41.731c22.886,-6.456 46.716,2.072 52.164,21.387c5.449,19.315 -10.41,39.039 -33.296,45.496c-18.178,5.128 -56.33,7.649 -85.495,3.461c-8.643,-1.241 -16.436,-3.016 -22.352,-5.763c-1.246,-0.578 -2.802,-1.631 -3.763,-2.315Z" style="fill:#b7c851;"/><path d="M511.233,486.841c-0.415,-1.104 -1.032,-2.878 -1.271,-4.231c-1.136,-6.423 -0.849,-14.411 0.171,-23.082c3.443,-29.263 15.679,-65.488 25.303,-81.738c12.118,-20.46 35.254,-30.722 52.522,-20.495c17.268,10.227 19.389,35.448 7.271,55.908c-9.624,16.25 -35.509,44.391 -59.516,61.475c-7.113,5.062 -13.98,9.153 -20.158,11.244c-1.302,0.441 -3.154,0.752 -4.322,0.919Z" style="fill:#e3b758;"/><path d="M497.92,484.841c-1.063,-0.513 -2.733,-1.372 -3.84,-2.187c-5.252,-3.867 -10.554,-9.848 -15.796,-16.83c-17.691,-23.563 -33.817,-58.231 -38.056,-76.636c-5.339,-23.173 4.336,-46.561 23.892,-51.066c19.557,-4.505 38.489,12.293 43.827,35.465c4.24,18.405 4.907,56.635 -0.692,85.563c-1.659,8.572 -3.809,16.27 -6.84,22.045c-0.638,1.217 -1.765,2.72 -2.495,3.646Z" style="fill:#d88e5a;"/><path d="M486.745,492.318c-1.123,0.36 -2.925,0.891 -4.288,1.064c-6.47,0.823 -14.435,0.149 -23.046,-1.291c-29.062,-4.859 -64.65,-18.838 -80.414,-29.24c-19.848,-13.096 -28.975,-36.703 -17.922,-53.454c11.052,-16.751 36.346,-17.646 56.195,-4.55c15.764,10.402 42.616,37.622 58.514,62.429c4.711,7.351 8.464,14.408 10.253,20.68c0.377,1.322 0.598,3.187 0.708,4.362Z" style="fill:#d8785f;"/><path d="M484.063,505.518c-0.564,1.036 -1.503,2.663 -2.37,3.729c-4.118,5.058 -10.35,10.064 -17.578,14.961c-24.393,16.527 -59.803,30.951 -78.392,34.293c-23.404,4.208 -46.295,-6.59 -49.846,-26.342c-3.551,-19.753 14.146,-37.847 37.55,-42.054c18.589,-3.342 56.806,-2.154 85.428,4.842c8.481,2.073 16.066,4.594 21.687,7.902c1.185,0.697 2.631,1.895 3.521,2.669Z" style="fill:#e16896;"/><path d="M491.337,516.859c0.305,1.14 0.748,2.965 0.855,4.335c0.508,6.502 -0.552,14.425 -2.408,22.956c-6.263,28.792 -21.953,63.659 -33.108,78.901c-14.044,19.189 -38.065,27.159 -54.26,15.307c-16.195,-11.853 -15.862,-37.16 -1.818,-56.35c11.154,-15.241 39.645,-40.74 65.195,-55.416c7.571,-4.349 14.802,-7.755 21.153,-9.237c1.338,-0.313 3.212,-0.443 4.391,-0.496Z" style="fill:#7c63a9;"/></svg>