<?xml version="1.0" encoding="UTF-8" standalone="no"?><!DOCTYPE svg PUBLIC "-//W3C//DTD SVG 1.1//EN" "http://www.w3.org/Graphics/SVG/1.1/DTD/svg11.dtd"><svg width="100%" height="100%" viewBox="0 0 1001 1001" version="1.1" xmlns="http://www.w3.org/2000/svg" xmlns:xlink="http://www.w3.org/1999/xlink" xml:space="preserve" xmlns:serif="http://www.serif.com/" style="fill-rule:evenodd;clip-rule:evenodd;stroke-linejoin:round;stroke-miterlimit:2;"><rect id="instagram" x="0.926" y="0.925" width="1000" height="1000" style="fill:none;"/><g><path d="M773.993,385.849c2.577,46.08 2.577,184.071 0,230.151c-2.209,44.71 -12.27,84.314 -44.417,116.944c-32.147,32.754 -71.166,42.967 -115.215,45.084c-45.399,2.615 -181.472,2.615 -226.871,-0c-44.049,-2.242 -82.945,-12.454 -115.215,-45.084c-32.27,-32.63 -42.331,-72.234 -44.417,-116.944c-2.577,-46.08 -2.577,-184.196 0,-230.276c2.209,-44.71 12.147,-84.314 44.417,-116.944c32.27,-32.629 71.289,-42.842 115.215,-44.959c45.399,-2.615 181.472,-2.615 226.871,0c44.049,2.242 83.068,12.454 115.215,45.084c32.27,32.63 42.331,72.234 44.417,116.944Zm-273.067,-28.022c-77.81,0 -140.982,64.12 -140.982,143.098c-0,78.977 63.172,143.097 140.982,143.097c77.809,-0 140.981,-64.12 140.981,-143.097c0,-78.978 -63.172,-143.098 -140.981,-143.098Zm146.547,-38.912c-18.293,0 -33.145,15.075 -33.145,33.643c-0,18.568 14.852,33.643 33.145,33.643c18.294,-0 33.146,-15.075 33.146,-33.643c-0,-18.568 -14.852,-33.643 -33.146,-33.643Z" style="fill:#fff;fill-rule:nonzero;"/><ellipse cx="500.926" cy="500.925" rx="93.356" ry="94.757" style="fill:#fff;"/></g></svg>