<?xml version="1.0" encoding="UTF-8" standalone="no"?><!DOCTYPE svg PUBLIC "-//W3C//DTD SVG 1.1//EN" "http://www.w3.org/Graphics/SVG/1.1/DTD/svg11.dtd"><svg width="100%" height="100%" viewBox="0 0 1001 1001" version="1.1" xmlns="http://www.w3.org/2000/svg" xmlns:xlink="http://www.w3.org/1999/xlink" xml:space="preserve" xmlns:serif="http://www.serif.com/" style="fill-rule:evenodd;clip-rule:evenodd;stroke-linejoin:round;stroke-miterlimit:2;"><rect id="instagram" x="0.825" y="0.358" width="1000" height="1000" style="fill:none;"/><g><path d="M773.893,385.282c2.576,46.08 2.576,184.072 -0,230.152c-2.209,44.71 -12.27,84.314 -44.418,116.943c-32.147,32.755 -71.165,42.967 -115.214,45.084c-45.399,2.616 -181.473,2.616 -226.871,0c-44.05,-2.241 -82.945,-12.454 -115.215,-45.084c-32.27,-32.629 -42.331,-72.233 -44.417,-116.943c-2.577,-46.08 -2.577,-184.196 -0,-230.276c2.208,-44.71 12.147,-84.314 44.417,-116.944c32.27,-32.63 71.288,-42.842 115.215,-44.959c45.398,-2.616 181.472,-2.616 226.871,-0c44.049,2.241 83.067,12.454 115.214,45.083c32.27,32.63 42.332,72.234 44.418,116.944Zm-273.068,-28.021c-77.81,-0 -140.981,64.119 -140.981,143.097c-0,78.978 63.171,143.097 140.981,143.097c77.81,0 140.982,-64.119 140.982,-143.097c-0,-78.978 -63.172,-143.097 -140.982,-143.097Zm146.548,-38.912c-18.294,-0 -33.145,15.074 -33.145,33.642c-0,18.568 14.851,33.643 33.145,33.643c18.293,0 33.145,-15.075 33.145,-33.643c0,-18.568 -14.852,-33.642 -33.145,-33.642Z" style="fill:#fff;fill-rule:nonzero;"/><ellipse cx="500.825" cy="500.358" rx="93.356" ry="94.757" style="fill:#fff;"/></g></svg>