<?xml version="1.0" encoding="UTF-8" standalone="no"?><!DOCTYPE svg PUBLIC "-//W3C//DTD SVG 1.1//EN" "http://www.w3.org/Graphics/SVG/1.1/DTD/svg11.dtd"><svg width="100%" height="100%" viewBox="0 0 1000 1001" version="1.1" xmlns="http://www.w3.org/2000/svg" xmlns:xlink="http://www.w3.org/1999/xlink" xml:space="preserve" xmlns:serif="http://www.serif.com/" style="fill-rule:evenodd;clip-rule:evenodd;stroke-linecap:round;stroke-linejoin:round;stroke-miterlimit:1.5;"><rect id="location_status" x="0" y="0.13" width="1000" height="1000" style="fill:none;"/><path d="M488.294,362.049c56.82,0 102.951,46.131 102.951,102.951c0,122.924 -102.951,199.884 -102.951,199.884c0,-0 -102.95,-77.411 -102.95,-199.884c-0,-56.82 46.131,-102.951 102.95,-102.951Zm0,59.034c-24.238,0 -43.916,19.678 -43.916,43.917c-0,24.238 19.678,43.916 43.916,43.916c24.239,0 43.917,-19.678 43.917,-43.916c-0,-24.239 -19.678,-43.917 -43.917,-43.917Z" style="fill:#74664b;"/><circle cx="488.294" cy="513.466" r="225" style="fill:none;stroke:#74664b;stroke-width:43.84px;"/></svg>