<?xml version="1.0" encoding="UTF-8" standalone="no"?><!DOCTYPE svg PUBLIC "-//W3C//DTD SVG 1.1//EN" "http://www.w3.org/Graphics/SVG/1.1/DTD/svg11.dtd"><svg width="100%" height="100%" viewBox="0 0 1001 1001" version="1.1" xmlns="http://www.w3.org/2000/svg" xmlns:xlink="http://www.w3.org/1999/xlink" xml:space="preserve" xmlns:serif="http://www.serif.com/" style="fill-rule:evenodd;clip-rule:evenodd;stroke-linecap:round;stroke-linejoin:round;stroke-miterlimit:1.5;"><rect id="nmp_icon" x="0.478" y="0.925" width="1000" height="1000" style="fill:none;"/><path d="M100.549,554.582c-9.464,-26.123 -35.108,-131.932 -35.108,-149.897c0,-210.014 194.933,-380.518 435.037,-380.518c240.103,-0 435.036,170.504 435.036,380.518c0,14.421 -4.485,55.153 -5.631,61.326l-48.071,159.603c-4.238,14.072 -4.762,29.001 -1.522,43.336c41.067,181.559 -25.229,312.722 -379.43,308.64c-294.302,-11.546 -451.335,-95.792 -377.441,-302.343c6.704,-18.681 6.673,-39.116 -0.088,-57.777c-6.26,-17.283 -14.495,-40.014 -22.782,-62.888Z" style="fill:none;stroke:#b9c7fe;stroke-width:0.03px;"/><path d="M100.549,554.582c-9.464,-26.123 -35.108,-131.932 -35.108,-149.897c0,-210.014 194.933,-380.518 435.037,-380.518c240.103,-0 435.036,170.504 435.036,380.518c0,14.421 -4.485,55.153 -5.631,61.326l-48.071,159.603c-4.238,14.072 -4.762,29.001 -1.522,43.336c41.067,181.559 -25.229,312.722 -379.43,308.64c-294.302,-11.546 -451.335,-95.792 -377.441,-302.343c6.704,-18.681 6.673,-39.116 -0.088,-57.777c-6.26,-17.283 -14.495,-40.014 -22.782,-62.888Z" style="fill:#f7f5e6;"/><circle cx="500.86" cy="428.74" r="296.385" style="fill:#f7f5e6;"/></svg>