<?xml version="1.0" encoding="UTF-8" standalone="no"?><!DOCTYPE svg PUBLIC "-//W3C//DTD SVG 1.1//EN" "http://www.w3.org/Graphics/SVG/1.1/DTD/svg11.dtd"><svg width="100%" height="100%" viewBox="0 0 1876 1276" version="1.1" xmlns="http://www.w3.org/2000/svg" xmlns:xlink="http://www.w3.org/1999/xlink" xml:space="preserve" xmlns:serif="http://www.serif.com/" style="fill-rule:evenodd;clip-rule:evenodd;stroke-linejoin:round;stroke-miterlimit:2;"><path id="postcard-border" d="M1875.22,1275.82l0,-1275l-1875,-0l0,1275l1875,-0Z" style="fill:none;"/><clipPath id="_clip1"><path d="M1875.22,1275.82l0,-1275l-1875,-0l0,1275l1875,-0Z"/></clipPath><g clip-path="url(#_clip1)"><g><g><path d="M208.809,43.49l-40.658,-42.667l-83.996,-0l40.217,42.667l84.437,0Z" style="fill:#c32126;"/><path d="M384.639,43.49l-40.657,-42.667l-83.996,-0l40.216,42.667l84.437,0Z" style="fill:#c32126;"/><path d="M384.639,43.49l-84.437,0l-40.216,-42.667l83.996,-0l40.657,42.667Z" style="fill:#4659a8;"/><path d="M560.47,43.49l-40.658,-42.667l-83.995,-0l40.216,42.667l84.437,0Z" style="fill:#c32126;"/><path d="M736.301,43.49l-40.658,-42.667l-83.996,-0l40.217,42.667l84.437,0Z" style="fill:#c32126;"/><path d="M736.301,43.49l-84.437,0l-40.217,-42.667l83.996,-0l40.658,42.667Z" style="fill:#4659a8;"/><path d="M912.131,43.49l-40.657,-42.667l-83.996,-0l40.216,42.667l84.437,0Z" style="fill:#c32126;"/><path d="M1087.96,43.49l-40.657,-42.667l-83.996,-0l40.216,42.667l84.437,0Z" style="fill:#c32126;"/><path d="M1087.96,43.49l-84.437,0l-40.216,-42.667l83.996,-0l40.657,42.667Z" style="fill:#4659a8;"/><path d="M1263.79,43.49l-40.658,-42.667l-83.996,-0l40.217,42.667l84.437,0Z" style="fill:#c32126;"/><path d="M1439.62,43.49l-40.657,-42.667l-83.996,-0l40.217,42.667l84.436,0Z" style="fill:#c32126;"/><path d="M1439.62,43.49l-84.436,0l-40.217,-42.667l83.996,-0l40.657,42.667Z" style="fill:#4659a8;"/><path d="M1791.29,43.49l-40.658,-42.667l-83.995,-0l40.216,42.667l84.437,0Z" style="fill:#c32126;"/><path d="M1791.29,43.49l-84.437,0l-40.216,-42.667l83.995,-0l40.658,42.667Z" style="fill:#4659a8;"/><path d="M1615.45,43.49l-40.657,-42.667l-83.996,-0l40.216,42.667l84.437,0Z" style="fill:#c32126;"/></g><path d="M1875.22,50.763l-42.667,40.658l-0,83.996l42.667,-40.217l0,-84.437Z" style="fill:#c32126;"/><path d="M1875.22,381.164l-42.667,40.657l-0,83.996l42.667,-40.216l0,-84.437Z" style="fill:#c32126;"/><path d="M1875.22,711.564l-42.667,40.658l-0,83.996l42.667,-40.217l0,-84.437Z" style="fill:#c32126;"/><path d="M1875.22,1041.96l-42.667,40.657l-0,83.996l42.667,-40.216l0,-84.437Z" style="fill:#c32126;"/><path d="M1875.22,1041.96l0,84.437l-42.667,40.216l-0,-83.996l42.667,-40.657Z" style="fill:#c32126;"/><path d="M1875.22,215.964l-42.667,40.657l-0,83.996l42.667,-40.216l0,-84.437Z" style="fill:#c32126;"/><path d="M1875.22,215.964l0,84.437l-42.667,40.216l-0,-83.996l42.667,-40.657Z" style="fill:#4659a8;"/><path d="M1875.22,546.364l-42.667,40.658l-0,83.995l42.667,-40.216l0,-84.437Z" style="fill:#c32126;"/><path d="M1875.22,546.364l0,84.437l-42.667,40.216l-0,-83.995l42.667,-40.658Z" style="fill:#4659a8;"/><path d="M1875.22,876.765l-42.667,40.657l-0,83.996l42.667,-40.216l0,-84.437Z" style="fill:#c32126;"/><path d="M1875.22,876.765l0,84.437l-42.667,40.216l-0,-83.996l42.667,-40.657Z" style="fill:#4659a8;"/><g><path d="M1666.63,1233.15l40.657,42.668l83.996,-0l-40.217,-42.668l-84.436,0Z" style="fill:#c32126;"/><path d="M1490.8,1233.15l40.657,42.668l83.996,-0l-40.216,-42.668l-84.437,0Z" style="fill:#c32126;"/><path d="M1490.8,1233.15l84.437,0l40.216,42.668l-83.996,-0l-40.657,-42.668Z" style="fill:#4659a8;"/><path d="M1314.97,1233.15l40.658,42.668l83.995,-0l-40.216,-42.668l-84.437,0Z" style="fill:#c32126;"/><path d="M1139.14,1233.15l40.658,42.668l83.996,-0l-40.217,-42.668l-84.437,0Z" style="fill:#c32126;"/><path d="M1139.14,1233.15l84.437,0l40.217,42.668l-83.996,-0l-40.658,-42.668Z" style="fill:#4659a8;"/><path d="M963.309,1233.15l40.657,42.668l83.996,-0l-40.216,-42.668l-84.437,0Z" style="fill:#c32126;"/><path d="M787.478,1233.15l40.657,42.668l83.996,-0l-40.216,-42.668l-84.437,0Z" style="fill:#c32126;"/><path d="M787.478,1233.15l84.437,0l40.216,42.668l-83.996,-0l-40.657,-42.668Z" style="fill:#4659a8;"/><path d="M611.647,1233.15l40.658,42.668l83.996,-0l-40.217,-42.668l-84.437,0Z" style="fill:#c32126;"/><path d="M435.817,1233.15l40.657,42.668l83.996,-0l-40.217,-42.668l-84.436,0Z" style="fill:#c32126;"/><path d="M435.817,1233.15l84.436,0l40.217,42.668l-83.996,-0l-40.657,-42.668Z" style="fill:#4659a8;"/><path d="M84.155,1233.15l40.658,42.668l83.996,-0l-40.217,-42.668l-84.437,0Z" style="fill:#c32126;"/><path d="M84.155,1233.15l84.437,0l40.217,42.668l-83.996,-0l-40.658,-42.668Z" style="fill:#4659a8;"/><path d="M259.986,1233.15l40.657,42.668l83.996,-0l-40.216,-42.668l-84.437,0Z" style="fill:#c32126;"/></g><path d="M0.22,1225.88l42.668,-40.657l-0,-83.996l-42.668,40.216l0,84.437Z" style="fill:#c32126;"/><path d="M0.22,895.482l42.668,-40.658l-0,-83.996l-42.668,40.217l0,84.437Z" style="fill:#c32126;"/><path d="M0.22,565.081l42.668,-40.657l-0,-83.996l-42.668,40.216l0,84.437Z" style="fill:#c32126;"/><path d="M0.22,234.681l42.668,-40.658l-0,-83.996l-42.668,40.217l0,84.437Z" style="fill:#c32126;"/><path d="M0.22,234.681l0,-84.437l42.668,-40.217l-0,83.996l-42.668,40.658Z" style="fill:#c32126;"/><path d="M0.22,1060.68l42.668,-40.658l-0,-83.995l-42.668,40.216l0,84.437Z" style="fill:#c32126;"/><path d="M0.22,1060.68l0,-84.437l42.668,-40.216l-0,83.995l-42.668,40.658Z" style="fill:#4659a8;"/><path d="M0.22,730.281l42.668,-40.657l-0,-83.996l-42.668,40.217l0,84.436Z" style="fill:#c32126;"/><path d="M0.22,730.281l0,-84.436l42.668,-40.217l-0,83.996l-42.668,40.657Z" style="fill:#4659a8;"/><path d="M0.22,399.881l42.668,-40.658l-0,-83.995l-42.668,40.216l0,84.437Z" style="fill:#c32126;"/><path d="M0.22,399.881l0,-84.437l42.668,-40.216l-0,83.995l-42.668,40.658Z" style="fill:#4659a8;"/></g></g></svg>