<?xml version="1.0" encoding="UTF-8" standalone="no"?><!DOCTYPE svg PUBLIC "-//W3C//DTD SVG 1.1//EN" "http://www.w3.org/Graphics/SVG/1.1/DTD/svg11.dtd"><svg width="100%" height="100%" viewBox="0 0 1876 1276" version="1.1" xmlns="http://www.w3.org/2000/svg" xmlns:xlink="http://www.w3.org/1999/xlink" xml:space="preserve" xmlns:serif="http://www.serif.com/" style="fill-rule:evenodd;clip-rule:evenodd;stroke-linecap:round;stroke-linejoin:round;stroke-miterlimit:3.56707;"><path id="postcard-plane" d="M1875.11,1275.82l0,-1275l-1875,-0l0,1275l1875,-0Z" style="fill:none;"/><g><path d="M627.051,977.202c0.796,-16.758 7.625,-29.867 15.921,-29.867c8.829,-0 15.998,14.852 15.998,33.147c-0,1.672 -0.06,3.315 -0.176,4.923c19.822,6.569 35.628,15.02 45.707,24.669c8.078,-1.789 16.585,-3.306 25.446,-4.519c2.653,-10.71 8.038,-18.047 14.243,-18.047c4.413,0 8.412,3.711 11.307,9.706c2.444,-3.138 5.326,-4.95 8.41,-4.95c4.466,-0 8.507,3.799 11.41,9.922c2.049,-0.031 4.106,-0.047 6.171,-0.047c16.595,-0 32.601,1.018 47.658,2.907c2.894,-8.578 7.694,-14.192 13.123,-14.192c6.356,-0 11.852,7.697 14.431,18.833c50.204,10.788 84.378,32.027 84.378,56.441c-0,35.316 -71.51,63.989 -159.59,63.989c-66.271,-0 -123.162,-16.232 -147.273,-39.315c-22.827,5.056 -49.075,7.935 -76.988,7.935c-88.079,0 -159.589,-28.672 -159.589,-63.989c0,-15.2 13.247,-29.169 35.361,-40.152c1.129,-16.012 7.791,-28.323 15.83,-28.323c3.182,0 6.148,1.93 8.641,5.253c2.787,-9.736 7.913,-16.269 13.769,-16.269c6.97,0 12.905,9.256 15.096,22.156c21.366,-4.259 45.437,-6.654 70.892,-6.654c25.031,0 48.723,2.316 69.824,6.443Z" style="fill:#1f688e;"/><path d="M1473.63,1034.75c6.264,-35.338 42.428,-52.78 110.357,-51.202c21.308,-19.454 44.661,-31.513 68.252,-37.573c5.013,-10.392 14.52,-30.707 17.662,-41.592c5.709,-19.776 -4.316,-38.963 -7.193,-43.885c-0.403,-0.661 -1.012,-1.171 -1.733,-1.453c-0.961,-0.156 -2.435,-0.357 -3.843,-0.55c-0.948,-0.297 -1.977,-0.181 -2.836,0.317c-0.859,0.499 -1.468,1.335 -1.679,2.304c-2.704,12.414 -7.412,22.125 -14.879,28.113c-0.453,0.343 -1.054,0.422 -1.58,0.207c-0.527,-0.215 -0.9,-0.693 -0.982,-1.255c-0.816,-5.848 -2.557,-10.496 -6.149,-12.747c-0.302,-0.182 -0.656,-0.26 -1.008,-0.221c-11.475,1.287 -18.165,9.351 -21.082,22.751c-0.124,0.569 -0.547,1.025 -1.105,1.194c-0.558,0.169 -1.163,0.024 -1.584,-0.379c-4.353,-4.219 -6.995,-8.974 -7.921,-14.27c-0.081,-0.525 -0.473,-0.948 -0.992,-1.068c-0.518,-0.121 -1.057,0.086 -1.362,0.521c-7.319,10.963 -14.294,14.546 -21.088,14.192c-0.907,-0.071 -1.628,-0.789 -1.7,-1.695c-2.899,-36.985 16.328,-60.24 69.456,-62.443c0.831,-0.034 1.574,-0.53 1.923,-1.284c0.349,-0.755 0.245,-1.64 -0.268,-2.294c-16.22,-20.382 -43.099,-19.39 -73.575,-11.19c-0.225,0.061 -0.466,0.022 -0.66,-0.106c-0.194,-0.129 -0.324,-0.335 -0.356,-0.565c-1.878,-13.363 4.89,-20.736 16.183,-24.975c0.36,-0.138 0.568,-0.515 0.492,-0.892c-0.076,-0.378 -0.414,-0.645 -0.799,-0.633c-27.143,1.121 -43.382,-4.38 -51.913,-14.575c-0.151,-0.184 -0.212,-0.426 -0.168,-0.66c0.045,-0.234 0.191,-0.436 0.399,-0.553c44.193,-24.774 87.012,-28.631 126.424,19.351c0.211,0.255 0.555,0.356 0.87,0.255c0.315,-0.101 0.537,-0.383 0.559,-0.713c0.44,-6.42 1.761,-25.871 1.958,-28.761c0.015,-0.238 0.136,-0.458 0.329,-0.599c6.952,-5.154 12.049,-2.846 15.585,5.769c0.137,0.314 0.462,0.504 0.803,0.47c0.342,-0.034 0.623,-0.283 0.696,-0.618c4.585,-21.12 1.054,-39.22 -7.665,-55.383c-0.118,-0.215 -0.077,-0.482 0.101,-0.651c0.178,-0.169 0.447,-0.197 0.657,-0.069c39.116,23.812 43.825,54.593 30.744,88.978c-0.08,0.211 -0.015,0.449 0.162,0.588c0.177,0.14 0.424,0.149 0.61,0.022c49.597,-33.871 84.964,-27.696 111.321,3.839c0.137,0.166 0.157,0.4 0.049,0.586c-0.108,0.186 -0.32,0.286 -0.532,0.25c-31.737,-5.354 -54.388,-1.848 -71.411,7.148c-0.197,0.108 -0.302,0.33 -0.26,0.55c0.042,0.22 0.222,0.388 0.445,0.415c13.109,1.746 26.084,10.013 21.99,24.143c-0.043,0.148 -0.151,0.268 -0.294,0.327c-0.142,0.06 -0.303,0.052 -0.439,-0.021c-19.88,-10.642 -36.991,-11.622 -53.06,-8.958c-0.247,0.045 -0.425,0.261 -0.422,0.511c0.002,0.25 0.184,0.463 0.431,0.504c64.254,9.951 75.162,39.012 63.025,76.327c-0.18,0.548 -0.675,0.933 -1.252,0.972c-0.576,0.039 -1.119,-0.275 -1.372,-0.794c-6.095,-12.598 -18.962,-38.455 -23.136,-41.244c4.501,6.459 4.323,31.154 -7.609,36.79c-1.116,0.483 -2.412,0.259 -3.301,-0.569c-9.526,-9.903 -11.566,-41.011 -31.861,-46.82c-0.53,-0.13 -1.09,0.017 -1.489,0.389c-0.399,0.372 -0.583,0.92 -0.489,1.457c4.631,27.011 5.483,54.24 5.113,81.552c58.335,6.944 152.89,45.555 165.933,92.468l0,241.075l-1875,-0l0,-241.075c13.043,-46.913 102.651,-85.524 160.987,-92.468c-0.37,-27.312 0.482,-54.541 5.113,-81.552c0.094,-0.537 -0.09,-1.085 -0.489,-1.457c-0.399,-0.372 -0.959,-0.519 -1.489,-0.389c-20.295,5.809 -22.336,36.917 -31.861,46.82c-0.889,0.828 -2.185,1.052 -3.301,0.569c-11.932,-5.636 -12.11,-30.331 -7.61,-36.79c-4.173,2.789 -17.04,28.646 -23.136,41.244c-0.252,0.519 -0.795,0.833 -1.372,0.794c-0.576,-0.039 -1.072,-0.424 -1.251,-0.972c-12.138,-37.315 -1.229,-66.376 63.025,-76.327c0.247,-0.041 0.429,-0.254 0.431,-0.504c0.002,-0.25 -0.176,-0.466 -0.422,-0.511c-16.069,-2.664 -33.18,-1.684 -53.06,8.958c-0.136,0.073 -0.297,0.081 -0.44,0.021c-0.142,-0.059 -0.25,-0.179 -0.294,-0.327c-4.093,-14.13 8.882,-22.397 21.99,-24.143c0.223,-0.027 0.403,-0.195 0.446,-0.415c0.042,-0.22 -0.063,-0.442 -0.261,-0.55c-17.022,-8.996 -39.674,-12.502 -71.41,-7.148c-0.212,0.036 -0.425,-0.064 -0.532,-0.25c-0.108,-0.186 -0.089,-0.42 0.049,-0.586c26.357,-31.535 61.724,-37.71 111.32,-3.839c0.187,0.127 0.434,0.118 0.611,-0.022c0.177,-0.139 0.242,-0.377 0.162,-0.588c-13.081,-34.385 -8.372,-65.166 30.744,-88.978c0.209,-0.128 0.479,-0.1 0.657,0.069c0.177,0.169 0.219,0.436 0.101,0.651c-8.719,16.163 -12.25,34.263 -7.665,55.383c0.073,0.335 0.354,0.584 0.695,0.618c0.342,0.034 0.667,-0.156 0.804,-0.47c3.535,-8.615 8.633,-10.923 15.585,-5.769c0.193,0.141 0.313,0.361 0.329,0.599c0.196,2.89 1.518,22.341 1.958,28.761c0.022,0.33 0.243,0.612 0.558,0.713c0.315,0.101 0.66,0 0.871,-0.255c39.412,-47.982 82.231,-44.125 126.424,-19.351c0.208,0.117 0.354,0.319 0.398,0.553c0.045,0.234 -0.017,0.476 -0.167,0.66c-8.531,10.195 -24.77,15.696 -51.913,14.575c-0.386,-0.012 -0.723,0.255 -0.799,0.633c-0.077,0.377 0.131,0.754 0.491,0.892c11.294,4.239 18.062,11.612 16.183,24.975c-0.031,0.23 -0.161,0.436 -0.355,0.565c-0.195,0.128 -0.435,0.167 -0.66,0.106c-30.476,-8.2 -57.355,-9.192 -73.575,11.19c-0.513,0.654 -0.617,1.539 -0.268,2.294c0.349,0.754 1.091,1.25 1.923,1.284c53.128,2.203 72.355,25.458 69.456,62.443c-0.072,0.906 -0.793,1.624 -1.7,1.695c-6.795,0.354 -13.769,-3.229 -21.088,-14.192c-0.305,-0.435 -0.844,-0.642 -1.363,-0.521c-0.518,0.12 -0.91,0.543 -0.991,1.068c-0.926,5.296 -3.568,10.051 -7.922,14.27c-0.42,0.403 -1.025,0.548 -1.583,0.379c-0.558,-0.169 -0.981,-0.625 -1.106,-1.194c-2.917,-13.4 -9.606,-21.464 -21.082,-22.751c-0.351,-0.039 -0.705,0.039 -1.008,0.221c-3.591,2.251 -5.332,6.899 -6.149,12.747c-0.081,0.562 -0.454,1.04 -0.981,1.255c-0.526,0.215 -1.128,0.136 -1.581,-0.207c-7.466,-5.988 -12.174,-15.699 -14.879,-28.113c-0.21,-0.969 -0.82,-1.805 -1.678,-2.304c-0.859,-0.498 -1.888,-0.614 -2.836,-0.317c-1.408,0.193 -2.882,0.394 -3.843,0.55c-0.722,0.282 -1.33,0.792 -1.733,1.453c-2.878,4.922 -12.902,24.109 -7.193,43.885c3.142,10.885 12.649,31.2 17.662,41.592c23.591,6.06 46.943,18.119 68.252,37.573c67.929,-1.578 104.093,15.864 110.357,51.202c124.213,26.789 246.913,31.88 367.541,7.261c21.233,-4.304 43.114,-4.306 64.348,-0.007c97.496,19.858 193.274,21.039 287.112,1.1c22.944,-4.849 46.668,-4.661 69.532,0.552c96.151,21.952 192.3,22.175 288.449,-8.906Z" style="fill:#2190cf;"/></g><g><path d="M1493.54,457.766l-25.21,51.098c1.201,12.361 7.796,20.005 16.648,25.677c14.184,-18.83 21.162,-39.144 23.557,-60.401c-1.234,-9.392 -6.112,-14.975 -14.995,-16.374Z" style="fill:#484e60;"/><path d="M1537.51,435.729c-3.246,-9.803 -2.52,-17.309 6.85,-19.819c0.33,-0.088 0.666,-0.153 1.005,-0.194c59.667,-7.199 65.388,4.395 85.6,26.262l-69.742,3.409l-23.713,-9.658Z" style="fill:#6ebae7;"/><path d="M1478.76,694.209l104.059,-0c31.898,-20.357 75.194,-26.896 119.065,-32.738l0,-7.787c-110.524,-1.125 -205.864,3.897 -223.124,40.525Z" style="fill:#ede2d3;"/><path d="M1455.99,683.982l22.754,10.227c18.928,-36.38 124.414,-36.426 223.139,-39.311c-128.529,-2.949 -246.224,-2.957 -245.893,29.084Z" style="fill:#5fcae8;"/><path d="M1432.22,668.878l23.93,15.104c10.61,-28.523 136.188,-27.129 245.736,-29.907l-269.666,-5.956l0,20.759Z" style="fill:#5da4da;"/><path d="M1432.22,631.136l0,16.983l269.666,5.565c0,-0 -2.873,-17.216 -3.599,-21.562c-0.095,-0.569 -0.587,-0.986 -1.165,-0.986l-264.902,-0Z" style="fill:#ede2d3;"/><path d="M1484.55,622.904l92.212,-0c34.446,-14.416 71.215,-22.744 108.988,-28.441c0.726,-0.109 1.376,-0.509 1.801,-1.108c0.424,-0.599 0.586,-1.346 0.448,-2.067c-0.739,-3.855 -1.989,-10.383 -1.989,-10.383c-80.002,-3.283 -158.41,-4.423 -201.46,41.999Z" style="fill:#b5ad95;stroke:#b5ad95;stroke-width:4.14px;"/><path d="M1707.88,561.483l48.443,0c2.801,0 5.072,-2.271 5.072,-5.072c0,-11.871 0,-40.463 0,-40.463c-22.45,-4.095 -42.176,13.55 -53.515,45.535Z" style="fill:#b5ad95;"/><path d="M1445.72,602.224l38.094,22.555c5.752,-12.167 20.454,-18.639 34.827,-20.068l-72.921,-14.565l-0,12.078Z" style="fill:#6b97b4;"/><path d="M1445.72,602.224l-0,-12.078l-8.554,-4.271c0,-0 -4.379,10.598 8.554,16.349Z" style="fill:#484646;"/><path d="M1432.22,631.136l0,37.742c0,0 -32.212,-28.707 0,-37.742Z" style="fill:#484646;"/><path d="M1445.72,590.146c29.506,12.759 63.566,16.749 101.647,12.998l-6.545,28.136l12.885,0l3.748,-27.13l12.977,-0.095l7.588,27.069l14.745,0l-9.404,-27.703c57.002,4.591 96.323,-14.495 127.769,-42.889c7.631,-6.89 14.798,-14.328 21.642,-22.109c-144.638,-5.01 -286.004,-6.611 -287.052,51.723Z" style="fill:#efe1d2;"/><path d="M1768.04,482.046l0.098,36.849l-56.29,0.639l-9.687,-36.88l65.879,-0.608Z" style="fill:#6ebae7;"/><path d="M1739.8,531.888l-7.367,7.252c0,-0 -239.086,16.21 -253.635,17.197c-0.575,0.039 -1.147,0.115 -1.712,0.228c-15.621,3.207 -26.271,13.957 -31.082,33.581l-20.478,-9.762l-0.218,-16.947l7.551,-16.171l59.043,-3.433l100.133,-8.171l147.765,-3.774Z" style="fill:#5fcae8;"/><path d="M1423.01,518.54c13.89,-8.625 28.726,-10.954 46.142,-10.019c1.877,10.244 6.146,18.612 13.808,24.315c0.587,0.424 1.333,0.562 2.032,0.375c0.699,-0.187 1.276,-0.679 1.572,-1.34c8.481,-18.849 16.708,-37.711 21.904,-56.614c0.153,-0.557 0.102,-1.151 -0.144,-1.674c-3.634,-7.707 -8.616,-12.972 -14.833,-16.004c10.838,-26.648 50.105,-23.646 91.568,-18.353c0.479,-15.363 4.894,-27.706 11.402,-38.442c0.096,-0.155 0.289,-0.218 0.458,-0.152c0.169,0.067 0.266,0.246 0.231,0.424c-2.502,12.729 -3.212,25.459 -0.71,38.188c34.535,4.032 68.294,5.057 99.809,-2.616c2.892,-0.725 5.327,-2.669 6.673,-5.329c4.634,-9.119 15.293,-30.17 15.293,-30.17l58.389,-0.157l-7.844,87.194l-64.746,-0l13.145,30.374l31.878,-0l-9.892,13.107l-280.749,14.98c-22.727,2.009 -31.644,14.477 -32.862,32.775l-2.524,-60.862Z" style="fill:#5aa6dc;"/><path d="M1644.16,442.346c17.847,-0.01 35.279,-1.628 52.074,-5.716c2.898,-0.723 5.339,-2.671 6.689,-5.336c4.631,-9.124 15.284,-30.165 15.284,-30.165l58.389,-0.157l-6.388,71.017l-126.048,-29.643Z" style="fill:#479bd5;"/><path d="M1514.71,485.789c0.254,-0.715 0.93,-1.193 1.689,-1.193c3.174,-0 11.22,-0 11.22,-0l13.384,11.558l-0,38.782c-0,0.989 -0.803,1.792 -1.792,1.792c-6.925,-0 -31.95,-0 -40.033,-0c-0.582,-0 -1.128,-0.283 -1.464,-0.759c-0.336,-0.475 -0.42,-1.084 -0.225,-1.632c3.251,-9.166 14.855,-41.878 17.221,-48.548Z" style="fill:#484e60;"/><path d="M1601.79,497.335c-0,-0.314 -0.125,-0.614 -0.346,-0.836c-0.222,-0.221 -0.522,-0.345 -0.835,-0.345c-6.365,-0 -36.53,-0 -42.895,-0c-0.313,-0 -0.614,0.124 -0.835,0.345c-0.222,0.222 -0.346,0.522 -0.346,0.836c-0,4.683 -0,21.922 -0,26.605c-0,0.313 0.124,0.614 0.346,0.835c0.221,0.222 0.522,0.346 0.835,0.346c6.365,0 36.53,0 42.895,0c0.313,0 0.613,-0.124 0.835,-0.346c0.221,-0.221 0.346,-0.522 0.346,-0.835c-0,-4.683 -0,-21.922 -0,-26.605Z" style="fill:#484e60;"/><path d="M1662.61,497.335c-0,-0.314 -0.124,-0.614 -0.346,-0.836c-0.221,-0.221 -0.522,-0.345 -0.835,-0.345c-6.365,-0 -36.53,-0 -42.895,-0c-0.313,-0 -0.614,0.124 -0.835,0.345c-0.222,0.222 -0.346,0.522 -0.346,0.836c-0,4.683 -0,21.922 -0,26.605c-0,0.313 0.124,0.614 0.346,0.835c0.221,0.222 0.522,0.346 0.835,0.346c6.365,0 36.53,0 42.895,0c0.313,0 0.614,-0.124 0.835,-0.346c0.222,-0.221 0.346,-0.522 0.346,-0.835c-0,-4.683 -0,-21.922 -0,-26.605Z" style="fill:#484e60;"/><path d="M1537.54,459.083c-1.218,0.021 -2.277,0.842 -2.601,2.016c-1.852,6.7 -7.769,28.103 -7.769,28.103c0.5,4.849 5.761,6.765 13.832,6.952l69.381,-0c2.184,-0 4.324,-0.617 6.172,-1.779c18.696,-11.733 23.524,-23.461 0.034,-35.189c-1.853,-0.929 -3.904,-1.395 -5.977,-1.359c-12.747,0.211 -62.343,1.07 -73.072,1.256Z" style="fill:#6ebae7;"/><path d="M1717.92,401.237c-0,0 6.792,-13.611 8.619,-17.272c0.274,-0.549 0.838,-0.894 1.452,-0.889c6.204,0.055 39.331,0.351 47.013,0.42c0.881,0.008 1.591,0.724 1.591,1.606c0,4.44 0,16.64 0,16.64l-58.675,-0.505Z" style="fill:#6ebae7;"/><ellipse cx="1739.8" cy="437.39" rx="19.952" ry="20.488" style="fill:#6ebae7;"/><path d="M1425.53,563.438c-0,0 -4.161,56.962 -5.163,70.684c-0.007,0.098 -0.089,0.174 -0.188,0.173c-0.098,-0.001 -0.178,-0.078 -0.183,-0.176c-0.723,-13.698 -3.713,-70.409 -3.713,-70.409l9.247,-0.272Z" style="fill:#484646;"/><path d="M1424.12,520.909c0,-0 10.292,-19.834 13.367,-25.758c0.109,-0.212 0.346,-0.325 0.579,-0.277c0.234,0.048 0.407,0.246 0.423,0.484c0.753,13.478 -4.487,28.403 -14.445,42.538l0.076,-16.987Z" style="fill:#484646;"/><path d="M1413.02,520.909c0,-0 -0.312,-44.261 -0.38,-53.869c-0.001,-0.087 0.065,-0.16 0.152,-0.169c0.087,-0.009 0.166,0.05 0.182,0.136c1.826,9.423 10.228,52.791 10.228,52.791l-10.182,1.111Z" style="fill:#484646;"/><path d="M1424.61,518.54l0.921,46.181c-19.509,2.187 -34.365,-7.971 -34.365,-21.223c-0,-18.557 14.94,-23.555 33.444,-24.958Z" style="fill:#b5ad95;"/></g><g><path d="M1241.47,361.191c-16.721,2.991 -51.93,15.786 -40.796,38.159c2.349,4.718 5.298,9.21 8.746,13.283c2.106,2.488 4.845,4.514 7.725,6.174c8.288,4.778 20.454,5.819 29.287,6.307c20.75,1.148 48.559,1.939 69.285,-3.78c8.716,-2.405 18.121,-5.819 23.733,-13.016c10.882,-13.958 5.82,-33.428 -10.395,-41.086c-7.547,-3.564 -22.832,-5.33 -30.947,-5.932c-16.2,-1.203 -39.748,-3.131 -56.638,-0.109Z" style="fill:#fff;fill-opacity:0.5;"/><path d="M625.733,142.453c-16.721,2.991 -51.93,15.786 -40.796,38.159c2.348,4.718 5.298,9.21 8.746,13.283c2.106,2.488 4.845,4.514 7.725,6.174c8.288,4.778 20.454,5.819 29.286,6.307c20.751,1.148 48.56,1.939 69.285,-3.78c8.716,-2.405 18.122,-5.819 23.734,-13.016c10.882,-13.958 5.82,-33.428 -10.395,-41.086c-7.547,-3.564 -22.832,-5.33 -30.947,-5.932c-16.2,-1.203 -39.748,-3.131 -56.638,-0.109Z" style="fill:#fff;fill-opacity:0.5;"/><path d="M1710.17,60.424c-16.721,2.991 -51.93,15.786 -40.796,38.159c2.348,4.718 5.298,9.21 8.745,13.283c2.106,2.488 4.846,4.514 7.725,6.174c8.289,4.778 20.454,5.819 29.287,6.307c20.751,1.148 48.56,1.939 69.285,-3.78c8.716,-2.405 18.122,-5.819 23.733,-13.017c10.882,-13.957 5.821,-33.427 -10.395,-41.085c-7.546,-3.564 -22.831,-5.33 -30.946,-5.932c-16.2,-1.203 -39.748,-3.131 -56.638,-0.109Z" style="fill:#fff;fill-opacity:0.5;"/><path d="M869.527,41.348c-16.721,4.627 -51.93,24.416 -40.796,59.021c2.348,7.298 5.298,14.245 8.746,20.544c2.106,3.849 4.845,6.983 7.725,9.55c8.288,7.39 20.454,9 29.287,9.755c20.75,1.776 48.559,2.999 69.284,-5.847c8.717,-3.72 18.122,-8.999 23.734,-20.132c10.882,-21.587 5.82,-51.701 -10.395,-63.546c-7.547,-5.513 -22.832,-8.244 -30.947,-9.176c-16.2,-1.861 -39.748,-4.842 -56.638,-0.169Z" style="fill:#fff;fill-opacity:0.5;"/><path d="M595.831,397.17c-16.721,4.627 -51.93,24.416 -40.796,59.021c2.348,7.297 5.298,14.245 8.745,20.544c2.107,3.848 4.846,6.982 7.726,9.55c8.288,7.39 20.453,8.999 29.286,9.755c20.751,1.775 48.56,2.999 69.285,-5.847c8.716,-3.72 18.122,-9 23.734,-20.132c10.882,-21.588 5.82,-51.702 -10.395,-63.547c-7.547,-5.512 -22.832,-8.244 -30.947,-9.175c-16.2,-1.861 -39.748,-4.842 -56.638,-0.169Z" style="fill:#fff;fill-opacity:0.5;"/><path d="M118.65,342.125c-16.721,4.627 -51.93,24.416 -40.796,59.021c2.348,7.297 5.297,14.245 8.745,20.544c2.106,3.849 4.846,6.982 7.725,9.55c8.289,7.39 20.454,8.999 29.287,9.755c20.751,1.775 48.559,2.999 69.285,-5.847c8.716,-3.72 18.121,-9 23.733,-20.132c10.882,-21.588 5.821,-51.702 -10.395,-63.547c-7.546,-5.512 -22.832,-8.243 -30.946,-9.175c-16.201,-1.861 -39.748,-4.842 -56.638,-0.169Z" style="fill:#fff;fill-opacity:0.5;"/><path d="M742.52,638.638c-16.721,2.19 -51.931,11.553 -40.796,27.926c2.348,3.453 5.297,6.74 8.745,9.72c2.106,1.821 4.845,3.304 7.725,4.518c8.289,3.497 20.454,4.259 29.287,4.616c20.75,0.84 48.559,1.419 69.285,-2.766c8.716,-1.76 18.121,-4.258 23.733,-9.526c10.882,-10.214 5.821,-24.462 -10.395,-30.066c-7.546,-2.609 -22.832,-3.901 -30.946,-4.342c-16.201,-0.88 -39.749,-2.291 -56.638,-0.08Z" style="fill:#fff;fill-opacity:0.5;"/><path d="M1115.63,181.8c-16.721,2.991 -51.93,15.785 -40.796,38.159c2.349,4.718 5.298,9.21 8.746,13.283c2.106,2.488 4.845,4.514 7.725,6.174c8.288,4.778 20.454,5.818 29.287,6.307c20.75,1.148 48.559,1.939 69.285,-3.78c8.716,-2.406 18.121,-5.819 23.733,-13.017c10.882,-13.957 5.82,-33.427 -10.395,-41.085c-7.547,-3.564 -22.832,-5.33 -30.947,-5.933c-16.2,-1.202 -39.748,-3.13 -56.638,-0.108Z" style="fill:#fff;fill-opacity:0.5;"/><path d="M1506.01,240.029c-16.721,3.821 -51.931,20.161 -40.797,48.734c2.349,6.026 5.298,11.763 8.746,16.964c2.106,3.178 4.845,5.765 7.725,7.885c8.288,6.102 20.454,7.431 29.287,8.055c20.75,1.466 48.559,2.476 69.285,-4.828c8.716,-3.071 18.121,-7.431 23.733,-16.623c10.882,-17.825 5.82,-42.69 -10.395,-52.471c-7.547,-4.552 -22.832,-6.807 -30.947,-7.576c-16.2,-1.537 -39.748,-3.999 -56.637,-0.14Z" style="fill:#fff;fill-opacity:0.5;"/><path d="M382.18,2.884c-16.721,3.82 -51.931,20.16 -40.796,48.734c2.348,6.025 5.297,11.762 8.745,16.963c2.106,3.178 4.845,5.766 7.725,7.886c8.289,6.102 20.454,7.431 29.287,8.055c20.75,1.465 48.559,2.476 69.285,-4.828c8.716,-3.072 18.121,-7.431 23.733,-16.624c10.882,-17.825 5.821,-42.69 -10.395,-52.471c-7.547,-4.552 -22.832,-6.807 -30.946,-7.576c-16.201,-1.537 -39.749,-3.998 -56.638,-0.139Z" style="fill:#fff;fill-opacity:0.5;"/><path d="M104.231,46.041c-16.721,3.82 -51.93,20.16 -40.796,48.734c2.348,6.026 5.298,11.762 8.745,16.964c2.106,3.177 4.846,5.765 7.725,7.885c8.289,6.102 20.454,7.431 29.287,8.055c20.751,1.466 48.559,2.476 69.285,-4.828c8.716,-3.072 18.121,-7.431 23.733,-16.623c10.882,-17.825 5.821,-42.691 -10.395,-52.471c-7.546,-4.552 -22.831,-6.807 -30.946,-7.577c-16.2,-1.536 -39.748,-3.998 -56.638,-0.139Z" style="fill:#fff;fill-opacity:0.5;"/><path d="M394.706,516.374c-14.702,1.911 -45.661,10.081 -35.871,24.367c2.065,3.013 4.658,5.882 7.69,8.482c1.852,1.589 4.26,2.883 6.792,3.943c7.288,3.051 17.985,3.715 25.751,4.027c18.246,0.733 42.697,1.238 60.92,-2.414c7.664,-1.535 15.934,-3.715 20.869,-8.311c9.568,-8.913 5.117,-21.346 -9.14,-26.236c-6.636,-2.276 -20.076,-3.403 -27.211,-3.788c-14.244,-0.768 -34.949,-1.999 -49.8,-0.07Z" style="fill:#fff;fill-opacity:0.5;"/><path d="M1111.56,592.864c-16.721,2.992 -51.931,15.786 -40.796,38.16c2.348,4.718 5.297,9.21 8.745,13.282c2.106,2.488 4.845,4.515 7.725,6.175c8.289,4.777 20.454,5.818 29.287,6.307c20.75,1.147 48.559,1.939 69.285,-3.781c8.716,-2.405 18.121,-5.818 23.733,-13.016c10.882,-13.957 5.821,-33.427 -10.395,-41.085c-7.547,-3.564 -22.832,-5.33 -30.946,-5.933c-16.201,-1.203 -39.749,-3.13 -56.638,-0.109Z" style="fill:#fff;fill-opacity:0.5;"/><path d="M370.377,298.459c-16.721,2.992 -51.93,15.786 -40.796,38.16c2.348,4.718 5.298,9.21 8.745,13.282c2.106,2.489 4.846,4.515 7.725,6.175c8.289,4.778 20.454,5.818 29.287,6.307c20.751,1.148 48.559,1.939 69.285,-3.781c8.716,-2.405 18.122,-5.818 23.733,-13.016c10.882,-13.957 5.821,-33.427 -10.395,-41.085c-7.546,-3.564 -22.831,-5.33 -30.946,-5.933c-16.2,-1.203 -39.748,-3.13 -56.638,-0.109Z" style="fill:#fff;fill-opacity:0.5;"/><path d="M984.138,413.937c-16.976,3.853 -52.723,20.328 -41.419,49.138c2.384,6.076 5.379,11.86 8.879,17.104c2.138,3.204 4.92,5.813 7.843,7.951c8.415,6.152 20.766,7.492 29.734,8.121c21.068,1.478 49.301,2.497 70.343,-4.868c8.849,-3.097 18.398,-7.492 24.096,-16.761c11.048,-17.972 5.909,-43.043 -10.554,-52.905c-7.662,-4.59 -23.18,-6.863 -31.419,-7.639c-16.448,-1.549 -40.355,-4.031 -57.503,-0.141Z" style="fill:#fff;fill-opacity:0.5;"/><path d="M1348.91,776.468c-10.033,2.176 -31.158,11.481 -24.478,27.754c1.409,3.432 3.179,6.699 5.247,9.661c1.264,1.809 2.908,3.283 4.636,4.49c4.973,3.475 12.272,4.232 17.572,4.588c12.45,0.834 29.136,1.41 41.571,-2.75c5.23,-1.749 10.873,-4.232 14.24,-9.467c6.529,-10.151 3.492,-24.312 -6.237,-29.882c-4.528,-2.592 -13.699,-3.877 -18.568,-4.315c-9.72,-0.875 -23.849,-2.277 -33.983,-0.079Z" style="fill:#fff;fill-opacity:0.5;"/><path d="M1412,82.288c-10.033,2.176 -31.158,11.482 -24.478,27.754c1.409,3.432 3.179,6.699 5.247,9.661c1.264,1.81 2.908,3.283 4.636,4.491c4.973,3.475 12.272,4.232 17.572,4.587c12.45,0.835 29.136,1.41 41.571,-2.75c5.23,-1.749 10.873,-4.232 14.24,-9.466c6.529,-10.152 3.492,-24.313 -6.237,-29.883c-4.528,-2.592 -13.699,-3.876 -18.568,-4.315c-9.72,-0.874 -23.849,-2.276 -33.983,-0.079Z" style="fill:#fff;fill-opacity:0.5;"/><path d="M1199.96,35.897c-10.033,2.175 -31.158,11.481 -24.478,27.753c1.409,3.432 3.179,6.699 5.247,9.661c1.264,1.81 2.908,3.284 4.636,4.491c4.973,3.475 12.272,4.232 17.572,4.587c12.45,0.835 29.136,1.41 41.571,-2.749c5.23,-1.75 10.873,-4.232 14.24,-9.467c6.529,-10.152 3.492,-24.312 -6.237,-29.882c-4.528,-2.593 -13.699,-3.877 -18.568,-4.315c-9.72,-0.875 -23.849,-2.277 -33.983,-0.079Z" style="fill:#fff;fill-opacity:0.5;"/><path d="M265.191,142.655c-10.033,2.175 -31.159,11.481 -24.478,27.753c1.409,3.432 3.179,6.699 5.247,9.661c1.264,1.81 2.907,3.284 4.635,4.491c4.973,3.475 12.273,4.232 17.572,4.587c12.451,0.835 29.136,1.41 41.572,-2.749c5.229,-1.75 10.873,-4.232 14.24,-9.467c6.529,-10.152 3.492,-24.312 -6.237,-29.882c-4.528,-2.593 -13.699,-3.877 -18.568,-4.315c-9.721,-0.875 -23.849,-2.277 -33.983,-0.079Z" style="fill:#fff;fill-opacity:0.5;"/><path d="M767.824,322.003c-10.033,2.176 -31.158,11.482 -24.478,27.754c1.409,3.432 3.179,6.699 5.248,9.661c1.263,1.81 2.907,3.283 4.635,4.491c4.973,3.475 12.272,4.232 17.572,4.587c12.45,0.835 29.136,1.41 41.571,-2.749c5.23,-1.75 10.873,-4.232 14.24,-9.467c6.529,-10.152 3.492,-24.313 -6.237,-29.883c-4.528,-2.592 -13.699,-3.876 -18.568,-4.314c-9.72,-0.875 -23.849,-2.277 -33.983,-0.08Z" style="fill:#fff;fill-opacity:0.5;"/></g></svg>