<?xml version="1.0" encoding="UTF-8" standalone="no"?><!DOCTYPE svg PUBLIC "-//W3C//DTD SVG 1.1//EN" "http://www.w3.org/Graphics/SVG/1.1/DTD/svg11.dtd"><svg width="100%" height="100%" viewBox="0 0 1876 1276" version="1.1" xmlns="http://www.w3.org/2000/svg" xmlns:xlink="http://www.w3.org/1999/xlink" xml:space="preserve" xmlns:serif="http://www.serif.com/" style="fill-rule:evenodd;clip-rule:evenodd;stroke-linecap:round;stroke-linejoin:round;stroke-miterlimit:3.56707;"><path id="postcard-flight" d="M1875.11,1275.26l0,-1275l-1875,0l0,1275l1875,0Z" style="fill:none;"/><clipPath id="_clip1"><path d="M1875.11,1275.26l0,-1275l-1875,0l0,1275l1875,0Z"/></clipPath><g clip-path="url(#_clip1)"><g><path d="M221.706,600.39l-25.21,51.098c1.201,12.361 7.797,20.005 16.648,25.677c14.185,-18.83 21.162,-39.144 23.557,-60.401c-1.233,-9.392 -6.112,-14.975 -14.995,-16.374Z" style="fill:#484e60;"/><path d="M265.681,578.353c-3.247,-9.803 -2.521,-17.309 6.849,-19.819c0.33,-0.088 0.666,-0.153 1.005,-0.194c59.667,-7.199 65.388,4.395 85.6,26.262l-69.742,3.409l-23.712,-9.658Z" style="fill:#6ebae7;"/><path d="M206.932,836.833l104.059,-0c31.899,-20.357 75.194,-26.896 119.066,-32.738l-0,-7.787c-110.524,-1.125 -205.864,3.897 -223.125,40.525Z" style="fill:#ede2d3;"/><path d="M184.163,826.606l22.754,10.227c18.928,-36.38 124.415,-36.426 223.14,-39.311c-128.529,-2.949 -246.224,-2.957 -245.894,29.084Z" style="fill:#5fcae8;"/><path d="M160.391,811.502l23.93,15.104c10.609,-28.523 136.187,-27.129 245.736,-29.907l-269.666,-5.956l-0,20.759Z" style="fill:#5da4da;"/><path d="M160.391,773.76l-0,16.983l269.666,5.565c-0,-0 -2.874,-17.216 -3.599,-21.562c-0.095,-0.569 -0.588,-0.986 -1.165,-0.986l-264.902,-0Z" style="fill:#ede2d3;"/><path d="M212.72,765.528l92.211,-0c34.446,-14.416 71.215,-22.744 108.988,-28.441c0.726,-0.109 1.377,-0.509 1.801,-1.108c0.424,-0.599 0.586,-1.346 0.448,-2.067c-0.738,-3.855 -1.989,-10.383 -1.989,-10.383c-80.002,-3.283 -158.41,-4.423 -201.459,41.999Z" style="fill:#b5ad95;stroke:#b5ad95;stroke-width:4.14px;"/><path d="M436.047,704.107l48.443,-0c2.802,-0 5.072,-2.271 5.072,-5.072c0,-11.871 0,-40.464 0,-40.464c-22.449,-4.094 -42.175,13.551 -53.515,45.536Z" style="fill:#b5ad95;"/><path d="M173.891,744.848l38.094,22.555c5.753,-12.167 20.454,-18.639 34.828,-20.068l-72.922,-14.565l0,12.078Z" style="fill:#6b97b4;"/><path d="M173.891,744.848l0,-12.078l-8.554,-4.271c0,-0 -4.379,10.598 8.554,16.349Z" style="fill:#484646;"/><path d="M160.391,773.76l-0,37.742c-0,0 -32.213,-28.707 -0,-37.742Z" style="fill:#484646;"/><path d="M173.891,732.77c29.506,12.759 63.566,16.749 101.647,12.998l-6.545,28.136l12.885,0l3.749,-27.13l12.976,-0.096l7.588,27.07l14.745,0l-9.403,-27.703c57.001,4.591 96.323,-14.495 127.768,-42.889c7.631,-6.89 14.798,-14.328 21.642,-22.109c-144.637,-5.01 -286.004,-6.611 -287.052,51.723Z" style="fill:#efe1d2;"/><path d="M496.211,624.67l0.097,36.849l-56.29,0.639l-9.687,-36.88l65.88,-0.608Z" style="fill:#6ebae7;"/><path d="M467.969,674.512l-7.366,7.252c-0,-0 -239.087,16.21 -253.636,17.197c-0.575,0.039 -1.146,0.115 -1.712,0.228c-15.62,3.207 -26.271,13.957 -31.082,33.581l-20.477,-9.762l-0.219,-16.947l7.551,-16.171l59.043,-3.433l100.133,-8.171l147.765,-3.774Z" style="fill:#5fcae8;"/><path d="M151.177,661.164c13.89,-8.625 28.726,-10.954 46.142,-10.019c1.878,10.244 6.147,18.612 13.809,24.315c0.586,0.424 1.332,0.562 2.031,0.375c0.699,-0.187 1.277,-0.679 1.573,-1.34c8.48,-18.849 16.708,-37.712 21.903,-56.614c0.153,-0.557 0.102,-1.151 -0.143,-1.674c-3.634,-7.707 -8.617,-12.972 -14.834,-16.004c10.838,-26.648 50.105,-23.646 91.568,-18.353c0.479,-15.363 4.894,-27.706 11.402,-38.442c0.096,-0.155 0.289,-0.218 0.458,-0.152c0.169,0.067 0.266,0.245 0.231,0.424c-2.501,12.729 -3.212,25.459 -0.71,38.188c34.535,4.032 68.294,5.057 99.809,-2.616c2.892,-0.725 5.327,-2.67 6.674,-5.329c4.634,-9.119 15.292,-30.17 15.292,-30.17l58.39,-0.157l-7.844,87.194l-64.747,-0l13.146,30.374l31.877,-0l-9.892,13.107l-280.748,14.98c-22.728,2.009 -31.644,14.477 -32.863,32.775l-2.524,-60.862Z" style="fill:#5aa6dc;"/><path d="M372.335,584.97c17.847,-0.01 35.279,-1.628 52.074,-5.716c2.899,-0.724 5.34,-2.671 6.689,-5.336c4.631,-9.124 15.284,-30.165 15.284,-30.165l58.39,-0.157l-6.389,71.017l-126.048,-29.643Z" style="fill:#479bd5;"/><path d="M242.885,628.413c0.253,-0.715 0.93,-1.193 1.688,-1.193c3.174,-0 11.22,-0 11.22,-0l13.384,11.557l0,38.783c0,0.989 -0.802,1.792 -1.792,1.792c-6.925,-0 -31.95,-0 -40.033,-0c-0.582,-0 -1.128,-0.283 -1.464,-0.759c-0.335,-0.475 -0.419,-1.084 -0.225,-1.632c3.251,-9.166 14.855,-41.878 17.222,-48.548Z" style="fill:#484e60;"/><path d="M329.963,639.959c0,-0.314 -0.124,-0.614 -0.346,-0.836c-0.221,-0.221 -0.522,-0.346 -0.835,-0.346c-6.365,0 -36.53,0 -42.895,0c-0.313,0 -0.613,0.125 -0.835,0.346c-0.221,0.222 -0.346,0.522 -0.346,0.836c0,4.683 0,21.922 0,26.605c0,0.313 0.125,0.614 0.346,0.835c0.222,0.222 0.522,0.346 0.835,0.346c6.365,0 36.53,0 42.895,0c0.313,0 0.614,-0.124 0.835,-0.346c0.222,-0.221 0.346,-0.522 0.346,-0.835c0,-4.683 0,-21.922 0,-26.605Z" style="fill:#484e60;"/><path d="M390.777,639.959c0,-0.314 -0.124,-0.614 -0.346,-0.836c-0.221,-0.221 -0.522,-0.346 -0.835,-0.346c-6.365,0 -36.53,0 -42.895,0c-0.313,0 -0.613,0.125 -0.835,0.346c-0.221,0.222 -0.346,0.522 -0.346,0.836c0,4.683 0,21.922 0,26.605c0,0.313 0.125,0.614 0.346,0.835c0.222,0.222 0.522,0.346 0.835,0.346c6.365,0 36.53,0 42.895,0c0.313,0 0.614,-0.124 0.835,-0.346c0.222,-0.221 0.346,-0.522 0.346,-0.835c0,-4.683 0,-21.922 0,-26.605Z" style="fill:#484e60;"/><path d="M265.715,601.707c-1.218,0.021 -2.276,0.842 -2.601,2.016c-1.852,6.7 -7.769,28.103 -7.769,28.103c0.5,4.849 5.761,6.765 13.832,6.951c0,0 55.317,0 69.382,0c2.183,0.001 4.323,-0.616 6.172,-1.778c18.695,-11.733 23.523,-23.461 0.034,-35.189c-1.854,-0.929 -3.905,-1.395 -5.978,-1.359c-12.747,0.211 -62.343,1.07 -73.072,1.256Z" style="fill:#6ebae7;"/><path d="M446.096,543.861c-0,0 6.792,-13.611 8.62,-17.272c0.274,-0.55 0.837,-0.894 1.451,-0.889c6.204,0.055 39.331,0.351 47.013,0.42c0.881,0.008 1.591,0.724 1.592,1.605c-0,4.441 -0,16.641 -0,16.641l-58.676,-0.505Z" style="fill:#6ebae7;"/><ellipse cx="467.969" cy="580.014" rx="19.952" ry="20.488" style="fill:#6ebae7;"/><path d="M153.701,706.062c0,0 -4.161,56.962 -5.163,70.684c-0.007,0.098 -0.089,0.174 -0.187,0.173c-0.098,-0.001 -0.179,-0.078 -0.184,-0.176c-0.722,-13.698 -3.713,-70.409 -3.713,-70.409l9.247,-0.272Z" style="fill:#484646;"/><path d="M152.286,663.533c0,-0 10.293,-19.834 13.367,-25.758c0.109,-0.212 0.346,-0.325 0.58,-0.277c0.233,0.048 0.406,0.246 0.423,0.484c0.752,13.478 -4.487,28.403 -14.445,42.537l0.075,-16.986Z" style="fill:#484646;"/><path d="M141.194,663.533c-0,-0 -0.313,-44.261 -0.381,-53.869c-0,-0.087 0.065,-0.16 0.152,-0.169c0.087,-0.009 0.166,0.05 0.183,0.136c1.825,9.423 10.227,52.791 10.227,52.791l-10.181,1.111Z" style="fill:#484646;"/><path d="M152.781,661.164l0.92,46.181c-19.508,2.187 -34.365,-7.971 -34.365,-21.223c-0,-18.557 14.94,-23.555 33.445,-24.958Z" style="fill:#b5ad95;"/></g><path d="M1358.5,300.166c-16.721,2.991 -51.93,15.786 -40.796,38.159c2.348,4.718 5.298,9.21 8.745,13.283c2.106,2.488 4.846,4.514 7.725,6.174c8.289,4.778 20.454,5.819 29.287,6.307c20.751,1.148 48.559,1.939 69.285,-3.78c8.716,-2.405 18.121,-5.819 23.733,-13.016c10.882,-13.957 5.821,-33.427 -10.395,-41.086c-7.546,-3.564 -22.831,-5.33 -30.946,-5.932c-16.2,-1.203 -39.748,-3.131 -56.638,-0.109Z" style="fill:#ececed;fill-opacity:0.5;"/><path d="M1574.91,754.914c-16.721,2.991 -51.93,15.786 -40.796,38.159c2.348,4.718 5.298,9.21 8.745,13.283c2.106,2.488 4.846,4.514 7.726,6.174c8.288,4.778 20.453,5.818 29.286,6.307c20.751,1.148 48.56,1.939 69.285,-3.78c8.716,-2.406 18.122,-5.819 23.734,-13.017c10.882,-13.957 5.82,-33.427 -10.395,-41.085c-7.547,-3.564 -22.832,-5.33 -30.947,-5.932c-16.2,-1.203 -39.748,-3.131 -56.638,-0.109Z" style="fill:#ececed;fill-opacity:0.5;"/><path d="M1842.23,1053.72c-16.721,2.991 -51.93,15.786 -40.796,38.159c2.348,4.718 5.298,9.21 8.745,13.283c2.106,2.488 4.846,4.514 7.725,6.174c8.289,4.778 20.454,5.819 29.287,6.307c20.751,1.148 48.559,1.939 69.285,-3.78c8.716,-2.405 18.122,-5.819 23.733,-13.016c10.882,-13.957 5.821,-33.427 -10.395,-41.086c-7.546,-3.564 -22.831,-5.33 -30.946,-5.932c-16.2,-1.203 -39.748,-3.131 -56.638,-0.109Z" style="fill:#ececed;fill-opacity:0.5;"/><path d="M742.765,81.428c-16.721,2.991 -51.931,15.786 -40.796,38.159c2.348,4.718 5.297,9.21 8.745,13.283c2.106,2.488 4.845,4.514 7.725,6.174c8.289,4.778 20.454,5.819 29.287,6.307c20.75,1.148 48.559,1.939 69.285,-3.78c8.716,-2.405 18.121,-5.819 23.733,-13.016c10.882,-13.957 5.821,-33.427 -10.395,-41.086c-7.546,-3.564 -22.832,-5.33 -30.946,-5.932c-16.201,-1.203 -39.749,-3.131 -56.638,-0.109Z" style="fill:#ececed;fill-opacity:0.5;"/><path d="M1827.2,-0.601c-16.721,2.991 -51.93,15.786 -40.796,38.159c2.348,4.718 5.298,9.21 8.746,13.283c2.106,2.488 4.845,4.514 7.725,6.174c8.288,4.778 20.454,5.819 29.286,6.307c20.751,1.148 48.56,1.939 69.285,-3.78c8.717,-2.405 18.122,-5.819 23.734,-13.016c10.882,-13.957 5.82,-33.427 -10.395,-41.086c-7.547,-3.564 -22.832,-5.33 -30.947,-5.932c-16.2,-1.203 -39.748,-3.131 -56.638,-0.109Z" style="fill:#ececed;fill-opacity:0.5;"/><path d="M986.559,-19.676c-16.721,4.626 -51.93,24.416 -40.796,59.02c2.348,7.298 5.297,14.246 8.745,20.545c2.106,3.848 4.846,6.982 7.725,9.549c8.289,7.39 20.454,9 29.287,9.756c20.751,1.775 48.559,2.998 69.285,-5.847c8.716,-3.721 18.121,-9 23.733,-20.133c10.882,-21.587 5.821,-51.701 -10.395,-63.546c-7.546,-5.513 -22.832,-8.244 -30.946,-9.176c-16.201,-1.861 -39.748,-4.842 -56.638,-0.168Z" style="fill:#ececed;fill-opacity:0.5;"/><path d="M712.863,336.145c-16.721,4.627 -51.931,24.416 -40.796,59.021c2.348,7.297 5.297,14.245 8.745,20.544c2.106,3.849 4.845,6.982 7.725,9.55c8.288,7.39 20.454,9 29.287,9.755c20.75,1.775 48.559,2.999 69.285,-5.847c8.716,-3.72 18.121,-8.999 23.733,-20.132c10.882,-21.587 5.82,-51.701 -10.395,-63.547c-7.547,-5.512 -22.832,-8.243 -30.946,-9.175c-16.201,-1.861 -39.749,-4.842 -56.638,-0.169Z" style="fill:#ececed;fill-opacity:0.5;"/><path d="M235.681,281.1c-16.721,4.627 -51.93,24.416 -40.796,59.021c2.348,7.298 5.298,14.245 8.745,20.544c2.107,3.849 4.846,6.982 7.726,9.55c8.288,7.39 20.453,9 29.286,9.755c20.751,1.775 48.56,2.999 69.285,-5.847c8.716,-3.72 18.122,-8.999 23.734,-20.132c10.882,-21.587 5.82,-51.701 -10.395,-63.547c-7.547,-5.512 -22.832,-8.243 -30.947,-9.175c-16.2,-1.861 -39.748,-4.842 -56.638,-0.169Z" style="fill:#ececed;fill-opacity:0.5;"/><path d="M-17.349,640.253c-16.721,4.627 -51.931,24.416 -40.796,59.021c2.348,7.297 5.297,14.245 8.745,20.544c2.106,3.848 4.845,6.982 7.725,9.55c8.289,7.39 20.454,8.999 29.287,9.755c20.75,1.775 48.559,2.999 69.285,-5.847c8.716,-3.72 18.121,-9 23.733,-20.132c10.882,-21.588 5.821,-51.702 -10.395,-63.547c-7.546,-5.512 -22.832,-8.244 -30.946,-9.175c-16.201,-1.861 -39.749,-4.842 -56.638,-0.169Z" style="fill:#ececed;fill-opacity:0.5;"/><path d="M859.551,577.614c-16.721,2.189 -51.93,11.552 -40.796,27.925c2.348,3.453 5.298,6.74 8.745,9.72c2.106,1.821 4.846,3.304 7.726,4.519c8.288,3.496 20.453,4.258 29.286,4.615c20.751,0.84 48.56,1.419 69.285,-2.766c8.716,-1.76 18.122,-4.258 23.733,-9.526c10.883,-10.214 5.821,-24.462 -10.395,-30.066c-7.546,-2.609 -22.831,-3.901 -30.946,-4.342c-16.2,-0.88 -39.748,-2.291 -56.638,-0.079Z" style="fill:#ececed;fill-opacity:0.5;"/><path d="M1232.67,120.775c-16.721,2.991 -51.93,15.786 -40.796,38.159c2.348,4.718 5.297,9.21 8.745,13.283c2.106,2.488 4.846,4.514 7.725,6.174c8.289,4.778 20.454,5.819 29.287,6.307c20.751,1.148 48.559,1.939 69.285,-3.78c8.716,-2.405 18.121,-5.819 23.733,-13.016c10.882,-13.958 5.821,-33.428 -10.395,-41.086c-7.546,-3.564 -22.831,-5.33 -30.946,-5.932c-16.201,-1.203 -39.748,-3.131 -56.638,-0.109Z" style="fill:#ececed;fill-opacity:0.5;"/><path d="M1623.04,179.005c-16.721,3.82 -51.93,20.16 -40.796,48.734c2.348,6.025 5.298,11.762 8.745,16.963c2.106,3.178 4.846,5.766 7.725,7.886c8.289,6.101 20.454,7.431 29.287,8.055c20.751,1.465 48.559,2.476 69.285,-4.828c8.716,-3.072 18.121,-7.431 23.733,-16.624c10.882,-17.825 5.821,-42.69 -10.395,-52.471c-7.546,-4.552 -22.831,-6.807 -30.946,-7.576c-16.2,-1.537 -39.748,-3.998 -56.638,-0.139Z" style="fill:#ececed;fill-opacity:0.5;"/><path d="M1839.45,633.752c-16.721,3.821 -51.93,20.161 -40.796,48.734c2.348,6.026 5.298,11.763 8.745,16.964c2.107,3.178 4.846,5.765 7.726,7.885c8.288,6.102 20.453,7.431 29.286,8.055c20.751,1.466 48.56,2.476 69.285,-4.828c8.716,-3.071 18.122,-7.431 23.734,-16.623c10.882,-17.825 5.82,-42.69 -10.395,-52.471c-7.547,-4.552 -22.832,-6.807 -30.947,-7.577c-16.2,-1.536 -39.748,-3.998 -56.638,-0.139Z" style="fill:#ececed;fill-opacity:0.5;"/><path d="M499.211,-58.141c-16.721,3.82 -51.93,20.16 -40.796,48.734c2.348,6.026 5.298,11.762 8.745,16.964c2.106,3.177 4.846,5.765 7.725,7.885c8.289,6.102 20.454,7.431 29.287,8.055c20.751,1.466 48.559,2.476 69.285,-4.828c8.716,-3.072 18.122,-7.431 23.733,-16.623c10.882,-17.825 5.821,-42.691 -10.395,-52.472c-7.546,-4.551 -22.831,-6.807 -30.946,-7.576c-16.2,-1.536 -39.748,-3.998 -56.638,-0.139Z" style="fill:#ececed;fill-opacity:0.5;"/><path d="M221.262,-14.984c-16.721,3.821 -51.93,20.161 -40.796,48.734c2.348,6.026 5.298,11.763 8.745,16.964c2.107,3.178 4.846,5.765 7.726,7.885c8.288,6.102 20.454,7.431 29.286,8.055c20.751,1.466 48.56,2.476 69.285,-4.828c8.716,-3.072 18.122,-7.431 23.734,-16.623c10.882,-17.825 5.82,-42.691 -10.395,-52.471c-7.547,-4.552 -22.832,-6.807 -30.947,-7.577c-16.2,-1.536 -39.748,-3.998 -56.638,-0.139Z" style="fill:#ececed;fill-opacity:0.5;"/><path d="M511.737,455.35c-14.702,1.91 -45.66,10.08 -35.87,24.367c2.064,3.012 4.658,5.881 7.689,8.481c1.852,1.589 4.261,2.883 6.793,3.943c7.287,3.051 17.984,3.716 25.751,4.028c18.245,0.732 42.696,1.238 60.92,-2.414c7.664,-1.536 15.934,-3.716 20.868,-8.312c9.568,-8.913 5.118,-21.345 -9.14,-26.236c-6.636,-2.276 -20.075,-3.403 -27.21,-3.788c-14.245,-0.768 -34.95,-1.999 -49.801,-0.069Z" style="fill:#ececed;fill-opacity:0.5;"/><path d="M1228.59,531.84c-16.721,2.991 -51.93,15.785 -40.796,38.159c2.348,4.718 5.298,9.21 8.745,13.283c2.106,2.488 4.846,4.514 7.725,6.174c8.289,4.778 20.454,5.818 29.287,6.307c20.751,1.148 48.559,1.939 69.285,-3.78c8.716,-2.406 18.122,-5.819 23.733,-13.017c10.882,-13.957 5.821,-33.427 -10.395,-41.085c-7.546,-3.564 -22.831,-5.33 -30.946,-5.932c-16.2,-1.203 -39.748,-3.131 -56.638,-0.109Z" style="fill:#ececed;fill-opacity:0.5;"/><path d="M487.408,237.435c-16.721,2.991 -51.93,15.786 -40.796,38.159c2.348,4.718 5.298,9.21 8.745,13.283c2.107,2.488 4.846,4.514 7.726,6.174c8.288,4.778 20.454,5.818 29.286,6.307c20.751,1.148 48.56,1.939 69.285,-3.78c8.716,-2.405 18.122,-5.819 23.734,-13.017c10.882,-13.957 5.82,-33.427 -10.395,-41.085c-7.547,-3.564 -22.832,-5.33 -30.947,-5.932c-16.2,-1.203 -39.748,-3.131 -56.638,-0.109Z" style="fill:#ececed;fill-opacity:0.5;"/><path d="M149.638,449.455c-16.721,2.992 -51.931,15.786 -40.796,38.159c2.348,4.719 5.297,9.211 8.745,13.283c2.106,2.488 4.845,4.514 7.725,6.174c8.288,4.778 20.454,5.819 29.287,6.308c20.75,1.147 48.559,1.938 69.285,-3.781c8.716,-2.405 18.121,-5.818 23.733,-13.016c10.882,-13.957 5.82,-33.427 -10.395,-41.085c-7.547,-3.564 -22.832,-5.33 -30.947,-5.933c-16.2,-1.203 -39.748,-3.13 -56.637,-0.109Z" style="fill:#ececed;fill-opacity:0.5;"/><path d="M1101.17,352.913c-16.977,3.852 -52.724,20.327 -41.419,49.137c2.384,6.076 5.378,11.86 8.878,17.104c2.139,3.204 4.92,5.813 7.844,7.951c8.415,6.152 20.766,7.493 29.734,8.122c21.067,1.478 49.3,2.496 70.342,-4.868c8.85,-3.097 18.399,-7.493 24.096,-16.761c11.048,-17.973 5.91,-43.044 -10.554,-52.906c-7.661,-4.589 -23.18,-6.863 -31.419,-7.639c-16.447,-1.549 -40.355,-4.031 -57.502,-0.14Z" style="fill:#ececed;fill-opacity:0.5;"/><path d="M1468.04,590.671c-10.033,2.175 -31.158,11.481 -24.478,27.754c1.409,3.431 3.179,6.698 5.247,9.661c1.264,1.809 2.908,3.283 4.635,4.49c4.974,3.475 12.273,4.232 17.573,4.587c12.45,0.835 29.135,1.411 41.571,-2.749c5.229,-1.749 10.873,-4.232 14.24,-9.467c6.529,-10.151 3.492,-24.312 -6.237,-29.882c-4.528,-2.593 -13.699,-3.877 -18.568,-4.315c-9.72,-0.875 -23.849,-2.277 -33.983,-0.079Z" style="fill:#ececed;fill-opacity:0.5;"/><path d="M1529.03,21.263c-10.032,2.176 -31.158,11.482 -24.477,27.754c1.409,3.432 3.178,6.699 5.247,9.661c1.264,1.81 2.907,3.283 4.635,4.491c4.973,3.475 12.272,4.232 17.572,4.587c12.451,0.835 29.136,1.41 41.571,-2.749c5.23,-1.75 10.873,-4.232 14.24,-9.467c6.53,-10.152 3.493,-24.312 -6.237,-29.883c-4.528,-2.592 -13.699,-3.876 -18.568,-4.314c-9.72,-0.875 -23.849,-2.277 -33.983,-0.08Z" style="fill:#ececed;fill-opacity:0.5;"/><path d="M1745.44,476.011c-10.033,2.176 -31.159,11.482 -24.478,27.754c1.409,3.432 3.179,6.699 5.247,9.661c1.264,1.81 2.907,3.283 4.635,4.491c4.973,3.475 12.273,4.232 17.572,4.587c12.451,0.835 29.136,1.41 41.572,-2.75c5.229,-1.749 10.873,-4.232 14.24,-9.467c6.529,-10.151 3.492,-24.312 -6.237,-29.882c-4.528,-2.592 -13.699,-3.876 -18.568,-4.315c-9.721,-0.875 -23.849,-2.277 -33.983,-0.079Z" style="fill:#ececed;fill-opacity:0.5;"/><path d="M1316.99,-25.128c-10.032,2.175 -31.158,11.481 -24.477,27.754c1.409,3.431 3.178,6.698 5.247,9.66c1.264,1.81 2.907,3.284 4.635,4.491c4.973,3.475 12.272,4.232 17.572,4.587c12.451,0.835 29.136,1.411 41.571,-2.749c5.23,-1.749 10.873,-4.232 14.24,-9.467c6.53,-10.151 3.493,-24.312 -6.237,-29.882c-4.528,-2.593 -13.699,-3.877 -18.568,-4.315c-9.72,-0.875 -23.849,-2.277 -33.983,-0.079Z" style="fill:#ececed;fill-opacity:0.5;"/><path d="M1533.39,429.619c-10.033,2.176 -31.159,11.482 -24.478,27.754c1.409,3.432 3.179,6.699 5.247,9.661c1.264,1.81 2.907,3.283 4.635,4.491c4.973,3.475 12.273,4.232 17.572,4.587c12.451,0.835 29.136,1.41 41.572,-2.749c5.229,-1.75 10.873,-4.232 14.24,-9.467c6.529,-10.152 3.492,-24.313 -6.237,-29.883c-4.528,-2.592 -13.699,-3.876 -18.568,-4.314c-9.721,-0.875 -23.849,-2.277 -33.983,-0.08Z" style="fill:#ececed;fill-opacity:0.5;"/><path d="M382.222,81.63c-10.033,2.175 -31.158,11.481 -24.478,27.754c1.409,3.431 3.179,6.698 5.247,9.661c1.264,1.809 2.908,3.283 4.636,4.49c4.973,3.475 12.272,4.232 17.572,4.587c12.45,0.835 29.136,1.411 41.571,-2.749c5.23,-1.749 10.873,-4.232 14.24,-9.467c6.529,-10.151 3.492,-24.312 -6.237,-29.882c-4.528,-2.593 -13.699,-3.877 -18.568,-4.315c-9.72,-0.875 -23.849,-2.277 -33.983,-0.079Z" style="fill:#ececed;fill-opacity:0.5;"/><path d="M114.451,153.65c-10.032,2.176 -31.158,11.482 -24.477,27.754c1.408,3.432 3.178,6.699 5.247,9.661c1.263,1.81 2.907,3.283 4.635,4.491c4.973,3.475 12.272,4.232 17.572,4.587c12.45,0.835 29.136,1.41 41.571,-2.749c5.23,-1.75 10.873,-4.232 14.24,-9.467c6.53,-10.152 3.493,-24.313 -6.237,-29.883c-4.528,-2.592 -13.699,-3.876 -18.568,-4.314c-9.72,-0.875 -23.849,-2.277 -33.983,-0.08Z" style="fill:#ececed;fill-opacity:0.5;"/><path d="M884.856,260.979c-10.033,2.175 -31.159,11.481 -24.478,27.754c1.409,3.431 3.178,6.698 5.247,9.66c1.264,1.81 2.907,3.284 4.635,4.491c4.973,3.475 12.272,4.232 17.572,4.587c12.451,0.835 29.136,1.41 41.571,-2.749c5.23,-1.75 10.873,-4.232 14.241,-9.467c6.529,-10.151 3.492,-24.312 -6.237,-29.882c-4.528,-2.593 -13.7,-3.877 -18.568,-4.315c-9.721,-0.875 -23.85,-2.277 -33.983,-0.079Z" style="fill:#ececed;fill-opacity:0.5;"/><path d="M572.572,1013.29c16.721,-2.991 51.93,-15.786 40.796,-38.159c-2.349,-4.718 -5.298,-9.21 -8.746,-13.283c-2.106,-2.488 -4.845,-4.514 -7.725,-6.174c-8.288,-4.778 -20.454,-5.819 -29.287,-6.307c-20.75,-1.148 -48.559,-1.939 -69.285,3.78c-8.716,2.405 -18.121,5.819 -23.733,13.016c-10.882,13.958 -5.82,33.427 10.395,41.086c7.547,3.564 22.832,5.33 30.947,5.932c16.2,1.203 39.748,3.131 56.638,0.109Z" style="fill:#ececed;fill-opacity:0.5;"/><path d="M1188.31,1232.03c16.721,-2.991 51.93,-15.786 40.796,-38.159c-2.348,-4.718 -5.298,-9.21 -8.745,-13.283c-2.107,-2.488 -4.846,-4.514 -7.726,-6.174c-8.288,-4.778 -20.454,-5.819 -29.286,-6.307c-20.751,-1.148 -48.56,-1.939 -69.285,3.78c-8.716,2.405 -18.122,5.819 -23.734,13.016c-10.882,13.957 -5.82,33.427 10.395,41.086c7.547,3.564 22.832,5.33 30.947,5.932c16.2,1.203 39.748,3.131 56.638,0.109Z" style="fill:#ececed;fill-opacity:0.5;"/><path d="M103.871,1314.06c16.721,-2.991 51.93,-15.786 40.796,-38.159c-2.348,-4.718 -5.298,-9.21 -8.745,-13.283c-2.106,-2.488 -4.846,-4.514 -7.725,-6.174c-8.289,-4.778 -20.454,-5.819 -29.287,-6.307c-20.751,-1.148 -48.559,-1.939 -69.285,3.78c-8.716,2.405 -18.122,5.819 -23.733,13.016c-10.882,13.958 -5.821,33.427 10.395,41.086c7.546,3.564 22.831,5.33 30.946,5.932c16.2,1.203 39.748,3.131 56.638,0.109Z" style="fill:#ececed;fill-opacity:0.5;"/><path d="M171.156,968.951c16.721,-2.992 51.93,-15.786 40.796,-38.159c-2.349,-4.719 -5.298,-9.211 -8.746,-13.283c-2.106,-2.488 -4.845,-4.514 -7.725,-6.174c-8.288,-4.778 -20.454,-5.819 -29.287,-6.308c-20.75,-1.147 -48.559,-1.938 -69.285,3.781c-8.716,2.405 -18.121,5.818 -23.733,13.016c-10.882,13.957 -5.82,33.427 10.395,41.085c7.547,3.565 22.832,5.33 30.947,5.933c16.2,1.203 39.748,3.13 56.638,0.109Z" style="fill:#ececed;fill-opacity:0.5;"/><path d="M944.517,1333.13c16.721,-4.626 51.93,-24.416 40.796,-59.02c-2.348,-7.298 -5.298,-14.245 -8.746,-20.545c-2.106,-3.848 -4.845,-6.982 -7.725,-9.549c-8.288,-7.39 -20.454,-9 -29.286,-9.755c-20.751,-1.776 -48.56,-2.999 -69.285,5.847c-8.717,3.72 -18.122,8.999 -23.734,20.132c-10.882,21.587 -5.82,51.701 10.395,63.546c7.547,5.513 22.832,8.244 30.947,9.176c16.2,1.861 39.748,4.842 56.638,0.168Z" style="fill:#ececed;fill-opacity:0.5;"/><path d="M1218.21,977.309c16.721,-4.627 51.93,-24.416 40.796,-59.021c-2.348,-7.297 -5.298,-14.245 -8.745,-20.544c-2.107,-3.849 -4.846,-6.982 -7.726,-9.55c-8.288,-7.39 -20.453,-8.999 -29.286,-9.755c-20.751,-1.775 -48.56,-2.999 -69.285,5.847c-8.716,3.72 -18.122,9 -23.734,20.132c-10.882,21.588 -5.82,51.702 10.395,63.547c7.547,5.512 22.832,8.243 30.947,9.175c16.2,1.861 39.748,4.842 56.638,0.169Z" style="fill:#ececed;fill-opacity:0.5;"/><path d="M1695.39,1032.35c16.721,-4.627 51.93,-24.416 40.796,-59.021c-2.348,-7.297 -5.297,-14.245 -8.745,-20.544c-2.106,-3.849 -4.845,-6.982 -7.725,-9.55c-8.289,-7.39 -20.454,-9 -29.287,-9.755c-20.751,-1.775 -48.559,-2.999 -69.285,5.847c-8.716,3.72 -18.121,8.999 -23.733,20.132c-10.882,21.587 -5.821,51.701 10.395,63.547c7.546,5.512 22.832,8.243 30.946,9.175c16.201,1.861 39.748,4.842 56.638,0.169Z" style="fill:#ececed;fill-opacity:0.5;"/><path d="M1071.52,735.84c16.721,-2.189 51.931,-11.552 40.796,-27.925c-2.348,-3.453 -5.297,-6.74 -8.745,-9.72c-2.106,-1.821 -4.845,-3.304 -7.725,-4.519c-8.289,-3.496 -20.454,-4.258 -29.287,-4.615c-20.75,-0.84 -48.559,-1.419 -69.285,2.766c-8.716,1.76 -18.121,4.258 -23.733,9.526c-10.882,10.214 -5.821,24.462 10.395,30.066c7.546,2.609 22.832,3.901 30.946,4.342c16.201,0.88 39.749,2.291 56.638,0.079Z" style="fill:#ececed;fill-opacity:0.5;"/><path d="M698.409,1192.68c16.721,-2.991 51.93,-15.786 40.796,-38.159c-2.348,-4.718 -5.298,-9.21 -8.746,-13.283c-2.106,-2.488 -4.845,-4.514 -7.725,-6.174c-8.288,-4.778 -20.454,-5.818 -29.287,-6.307c-20.75,-1.148 -48.559,-1.939 -69.285,3.78c-8.716,2.405 -18.121,5.819 -23.733,13.017c-10.882,13.957 -5.82,33.427 10.395,41.085c7.547,3.564 22.832,5.33 30.947,5.932c16.2,1.203 39.748,3.131 56.638,0.109Z" style="fill:#ececed;fill-opacity:0.5;"/><path d="M308.036,1134.45c16.721,-3.82 51.93,-20.16 40.796,-48.733c-2.349,-6.026 -5.298,-11.763 -8.746,-16.964c-2.106,-3.178 -4.845,-5.765 -7.725,-7.885c-8.288,-6.102 -20.454,-7.432 -29.287,-8.056c-20.75,-1.465 -48.559,-2.476 -69.285,4.828c-8.716,3.072 -18.121,7.432 -23.733,16.624c-10.882,17.825 -5.82,42.69 10.395,52.471c7.547,4.552 22.832,6.807 30.947,7.576c16.2,1.537 39.748,3.998 56.638,0.139Z" style="fill:#ececed;fill-opacity:0.5;"/><path d="M1709.81,1328.44c16.721,-3.82 51.93,-20.161 40.796,-48.734c-2.348,-6.026 -5.297,-11.763 -8.745,-16.964c-2.106,-3.177 -4.846,-5.765 -7.725,-7.885c-8.289,-6.102 -20.454,-7.431 -29.287,-8.055c-20.751,-1.466 -48.559,-2.476 -69.285,4.828c-8.716,3.072 -18.121,7.431 -23.733,16.623c-10.882,17.825 -5.821,42.691 10.395,52.471c7.546,4.552 22.831,6.807 30.946,7.577c16.201,1.536 39.748,3.998 56.638,0.139Z" style="fill:#ececed;fill-opacity:0.5;"/><path d="M1419.34,858.104c14.702,-1.91 45.661,-10.08 35.871,-24.366c-2.065,-3.013 -4.658,-5.882 -7.69,-8.482c-1.852,-1.589 -4.26,-2.883 -6.792,-3.943c-7.288,-3.051 -17.985,-3.716 -25.751,-4.027c-18.246,-0.733 -42.697,-1.239 -60.92,2.413c-7.664,1.536 -15.934,3.716 -20.868,8.312c-9.569,8.913 -5.118,21.345 9.14,26.236c6.635,2.276 20.075,3.403 27.21,3.788c14.244,0.768 34.949,1.999 49.8,0.069Z" style="fill:#ececed;fill-opacity:0.5;"/><path d="M702.484,781.614c16.721,-2.991 51.931,-15.785 40.796,-38.159c-2.348,-4.718 -5.297,-9.21 -8.745,-13.282c-2.106,-2.489 -4.845,-4.515 -7.725,-6.175c-8.289,-4.778 -20.454,-5.818 -29.287,-6.307c-20.75,-1.148 -48.559,-1.939 -69.285,3.78c-8.716,2.406 -18.121,5.819 -23.733,13.017c-10.882,13.957 -5.821,33.427 10.395,41.085c7.547,3.564 22.832,5.33 30.946,5.933c16.201,1.203 39.749,3.13 56.638,0.108Z" style="fill:#ececed;fill-opacity:0.5;"/><path d="M1443.67,1076.02c16.721,-2.991 51.93,-15.786 40.796,-38.159c-2.348,-4.718 -5.298,-9.21 -8.745,-13.283c-2.106,-2.488 -4.846,-4.514 -7.725,-6.174c-8.289,-4.778 -20.454,-5.818 -29.287,-6.307c-20.751,-1.148 -48.559,-1.939 -69.285,3.78c-8.716,2.406 -18.122,5.819 -23.733,13.017c-10.882,13.957 -5.821,33.427 10.395,41.085c7.546,3.564 22.831,5.33 30.946,5.932c16.2,1.203 39.748,3.131 56.638,0.109Z" style="fill:#ececed;fill-opacity:0.5;"/><path d="M829.906,960.541c16.976,-3.852 52.723,-20.327 41.419,-49.137c-2.384,-6.076 -5.379,-11.86 -8.879,-17.104c-2.138,-3.204 -4.92,-5.813 -7.843,-7.951c-8.415,-6.152 -20.766,-7.492 -29.734,-8.122c-21.068,-1.477 -49.301,-2.496 -70.343,4.868c-8.849,3.098 -18.398,7.493 -24.096,16.761c-11.048,17.973 -5.909,43.044 10.554,52.906c7.662,4.59 23.18,6.863 31.419,7.639c16.448,1.549 40.355,4.031 57.503,0.14Z" style="fill:#ececed;fill-opacity:0.5;"/><path d="M465.135,598.011c10.033,-2.176 31.158,-11.481 24.478,-27.754c-1.409,-3.432 -3.179,-6.699 -5.247,-9.661c-1.264,-1.809 -2.908,-3.283 -4.636,-4.49c-4.973,-3.476 -12.272,-4.232 -17.572,-4.588c-12.45,-0.835 -29.136,-1.41 -41.571,2.75c-5.23,1.749 -10.873,4.232 -14.24,9.467c-6.529,10.151 -3.492,24.312 6.237,29.882c4.528,2.592 13.699,3.876 18.568,4.315c9.72,0.875 23.849,2.277 33.983,0.079Z" style="fill:#ececed;fill-opacity:0.5;"/><path d="M402.043,1292.19c10.033,-2.176 31.158,-11.482 24.478,-27.754c-1.409,-3.432 -3.179,-6.699 -5.247,-9.661c-1.264,-1.81 -2.908,-3.283 -4.636,-4.491c-4.973,-3.475 -12.272,-4.232 -17.572,-4.587c-12.45,-0.835 -29.136,-1.41 -41.571,2.749c-5.23,1.75 -10.873,4.232 -14.24,9.467c-6.529,10.152 -3.492,24.313 6.237,29.883c4.528,2.592 13.699,3.876 18.568,4.314c9.72,0.875 23.849,2.277 33.983,0.08Z" style="fill:#ececed;fill-opacity:0.5;"/><path d="M1548.85,1231.82c10.033,-2.175 31.159,-11.481 24.478,-27.754c-1.409,-3.431 -3.179,-6.698 -5.247,-9.66c-1.264,-1.81 -2.907,-3.284 -4.635,-4.491c-4.973,-3.475 -12.273,-4.232 -17.572,-4.587c-12.451,-0.835 -29.136,-1.41 -41.572,2.749c-5.229,1.749 -10.873,4.232 -14.24,9.467c-6.529,10.151 -3.492,24.312 6.237,29.882c4.528,2.593 13.699,3.877 18.568,4.315c9.721,0.875 23.849,2.277 33.983,0.079Z" style="fill:#ececed;fill-opacity:0.5;"/><path d="M1046.22,1052.47c10.033,-2.175 31.158,-11.481 24.478,-27.753c-1.409,-3.432 -3.179,-6.699 -5.248,-9.661c-1.263,-1.81 -2.907,-3.284 -4.635,-4.491c-4.973,-3.475 -12.272,-4.232 -17.572,-4.587c-12.45,-0.835 -29.136,-1.41 -41.571,2.749c-5.23,1.75 -10.873,4.232 -14.24,9.467c-6.529,10.152 -3.492,24.312 6.237,29.882c4.528,2.593 13.699,3.877 18.568,4.315c9.72,0.875 23.849,2.277 33.983,0.079Z" style="fill:#ececed;fill-opacity:0.5;"/><path d="M1938.05,1150.96c3.878,0.109 -33.028,0.356 -43.497,2.259c-33.558,6.101 -76.954,11.157 -108.099,-7.801c-71.707,-43.647 -95.871,-151.082 -125.929,-226.227c-23.772,-59.43 -55.458,-137.529 -61.293,-201.709c-1.3,-14.304 3.343,-28.156 3.343,-42.348c0,-103.768 23.626,-213.299 -10.029,-314.266c-11.36,-34.079 -35.465,-67.807 -62.408,-91.382c-37.071,-32.437 -139.464,-63.601 -187.222,-45.691c-28.477,10.678 -51.197,39.113 -70.208,61.293c-97.191,113.389 -36.347,278.348 22.288,395.618c14.346,28.692 39.131,53.247 57.95,79.124c32.75,45.032 71.622,81.951 96.954,132.615c32.299,64.599 14.656,135.191 -27.86,188.337c-12.523,15.653 -23.044,36.514 -43.463,42.348c-129.495,36.998 -197.171,0.392 -286.405,-96.954c-33.486,-36.53 -70.875,-84.914 -88.039,-131.502c-27.182,-73.78 -94.292,-203.386 23.403,-239.6c50.996,-15.691 110.218,18.955 150.446,46.806c11.551,7.996 18.197,21.271 28.975,30.089c84.468,69.11 146.697,287.262 52.378,371.101c-30.603,27.203 -92.604,41.499 -132.616,44.577c-171.178,13.168 -278.928,-119.922 -296.435,-277.49c-5.898,-53.078 1.039,-107.582 -5.572,-160.476c-0.958,-7.663 -37.676,-64.456 -39.736,-71.92c-32.467,-117.616 -231.001,2.237 -239.043,18.321" style="fill:none;stroke:#000;stroke-opacity:0.5;stroke-width:12.71px;stroke-dasharray:23.95,60.2,0,0;stroke-dashoffset:506.79;"/></g></svg>