<?xml version="1.0" encoding="UTF-8" standalone="no"?><!DOCTYPE svg PUBLIC "-//W3C//DTD SVG 1.1//EN" "http://www.w3.org/Graphics/SVG/1.1/DTD/svg11.dtd"><svg width="100%" height="100%" viewBox="0 0 1876 1276" version="1.1" xmlns="http://www.w3.org/2000/svg" xmlns:xlink="http://www.w3.org/1999/xlink" xml:space="preserve" xmlns:serif="http://www.serif.com/" style="fill-rule:evenodd;clip-rule:evenodd;stroke-linecap:round;stroke-linejoin:round;stroke-miterlimit:3.56707;"><path id="postcard-plane" d="M1875.24,1275.13l0,-1275l-1875,0l0,1275l1875,0Z" style="fill:none;"/><clipPath id="_clip1"><path d="M1875.24,1275.13l0,-1275l-1875,0l0,1275l1875,0Z"/></clipPath><g clip-path="url(#_clip1)"><g><path d="M627.18,976.51c0.796,-16.758 7.625,-29.868 15.92,-29.868c8.83,0 15.999,14.853 15.999,33.147c-0,1.672 -0.06,3.316 -0.176,4.924c19.822,6.568 35.628,15.02 45.707,24.669c8.078,-1.789 16.585,-3.306 25.446,-4.519c2.652,-10.711 8.038,-18.047 14.243,-18.047c4.413,-0 8.411,3.71 11.307,9.705c2.444,-3.138 5.325,-4.95 8.409,-4.95c4.467,0 8.508,3.8 11.411,9.923c2.049,-0.032 4.106,-0.048 6.171,-0.048c16.594,0 32.6,1.018 47.658,2.907c2.893,-8.578 7.694,-14.192 13.123,-14.192c6.356,0 11.852,7.698 14.431,18.833c50.203,10.788 84.377,32.027 84.377,56.441c0,35.317 -71.509,63.989 -159.589,63.989c-66.271,0 -123.162,-16.231 -147.274,-39.315c-22.826,5.056 -49.074,7.936 -76.987,7.936c-88.08,-0 -159.589,-28.673 -159.589,-63.989c-0,-15.2 13.246,-29.17 35.361,-40.153c1.129,-16.012 7.791,-28.322 15.829,-28.322c3.183,-0 6.149,1.929 8.641,5.253c2.788,-9.736 7.913,-16.269 13.769,-16.269c6.97,-0 12.906,9.255 15.097,22.155c21.366,-4.258 45.437,-6.653 70.892,-6.653c25.031,-0 48.723,2.315 69.824,6.443Z" style="fill:#1f688e;"/><path d="M1473.76,1034.06c6.264,-35.339 42.428,-52.781 110.357,-51.203c21.308,-19.454 44.66,-31.512 68.251,-37.572c5.013,-10.393 14.521,-30.707 17.663,-41.592c5.708,-19.777 -4.316,-38.963 -7.193,-43.886c-0.403,-0.66 -1.012,-1.17 -1.733,-1.453c-0.961,-0.156 -2.436,-0.356 -3.843,-0.55c-0.948,-0.296 -1.978,-0.181 -2.836,0.318c-0.859,0.498 -1.468,1.334 -1.679,2.303c-2.704,12.414 -7.413,22.125 -14.879,28.114c-0.453,0.343 -1.054,0.422 -1.581,0.206c-0.526,-0.215 -0.899,-0.692 -0.981,-1.254c-0.816,-5.849 -2.557,-10.496 -6.149,-12.748c-0.302,-0.182 -0.657,-0.259 -1.008,-0.221c-11.476,1.287 -18.165,9.352 -21.082,22.752c-0.125,0.568 -0.548,1.025 -1.105,1.194c-0.558,0.169 -1.164,0.024 -1.584,-0.38c-4.354,-4.218 -6.995,-8.974 -7.922,-14.269c-0.08,-0.525 -0.473,-0.948 -0.991,-1.069c-0.518,-0.12 -1.058,0.086 -1.362,0.522c-7.319,10.963 -14.294,14.545 -21.089,14.191c-0.906,-0.07 -1.627,-0.789 -1.699,-1.694c-2.9,-36.985 16.328,-60.241 69.455,-62.444c0.832,-0.034 1.575,-0.53 1.923,-1.284c0.349,-0.754 0.246,-1.64 -0.268,-2.294c-16.22,-20.381 -43.098,-19.39 -73.575,-11.19c-0.225,0.061 -0.465,0.023 -0.659,-0.106c-0.195,-0.128 -0.324,-0.334 -0.356,-0.565c-1.878,-13.363 4.889,-20.735 16.183,-24.975c0.36,-0.137 0.568,-0.514 0.492,-0.892c-0.076,-0.377 -0.414,-0.644 -0.799,-0.632c-27.143,1.121 -43.382,-4.381 -51.913,-14.575c-0.151,-0.185 -0.212,-0.426 -0.168,-0.66c0.045,-0.234 0.19,-0.436 0.398,-0.553c44.193,-24.774 87.013,-28.631 126.425,19.351c0.21,0.255 0.555,0.356 0.87,0.255c0.315,-0.101 0.536,-0.384 0.559,-0.713c0.439,-6.42 1.761,-25.872 1.957,-28.762c0.016,-0.238 0.137,-0.457 0.329,-0.598c6.952,-5.155 12.05,-2.846 15.586,5.768c0.137,0.314 0.461,0.504 0.803,0.47c0.342,-0.033 0.623,-0.283 0.696,-0.618c4.584,-21.119 1.053,-39.219 -7.665,-55.382c-0.118,-0.215 -0.077,-0.482 0.101,-0.651c0.178,-0.17 0.447,-0.198 0.656,-0.07c39.117,23.813 43.826,54.594 30.745,88.979c-0.081,0.21 -0.015,0.448 0.162,0.588c0.176,0.139 0.424,0.148 0.61,0.022c49.596,-33.872 84.964,-27.696 111.321,3.839c0.137,0.166 0.157,0.399 0.049,0.585c-0.108,0.187 -0.32,0.286 -0.533,0.251c-31.736,-5.355 -54.388,-1.849 -71.41,7.148c-0.197,0.107 -0.302,0.329 -0.26,0.549c0.042,0.221 0.222,0.388 0.445,0.415c13.109,1.746 26.084,10.014 21.99,24.144c-0.044,0.147 -0.152,0.268 -0.294,0.327c-0.142,0.059 -0.304,0.052 -0.44,-0.021c-19.879,-10.642 -36.991,-11.622 -53.06,-8.959c-0.246,0.046 -0.424,0.261 -0.422,0.512c0.002,0.25 0.184,0.462 0.432,0.503c64.254,9.952 75.162,39.012 63.025,76.327c-0.18,0.549 -0.675,0.933 -1.252,0.973c-0.577,0.039 -1.119,-0.275 -1.372,-0.794c-6.095,-12.598 -18.962,-38.456 -23.136,-41.244c4.501,6.458 4.322,31.154 -7.61,36.79c-1.115,0.483 -2.412,0.259 -3.3,-0.569c-9.526,-9.903 -11.566,-41.012 -31.861,-46.821c-0.531,-0.129 -1.091,0.017 -1.49,0.389c-0.399,0.373 -0.582,0.921 -0.489,1.458c4.632,27.01 5.483,54.239 5.113,81.551c58.336,6.944 152.891,45.556 165.934,92.469l0,241.074l-1875,0l0,-241.074c13.043,-46.913 102.651,-85.525 160.987,-92.469c-0.37,-27.312 0.481,-54.541 5.113,-81.551c0.094,-0.537 -0.09,-1.085 -0.489,-1.458c-0.399,-0.372 -0.959,-0.518 -1.49,-0.389c-20.295,5.809 -22.335,36.918 -31.861,46.821c-0.888,0.828 -2.185,1.052 -3.3,0.569c-11.932,-5.636 -12.11,-30.332 -7.61,-36.79c-4.173,2.788 -17.041,28.646 -23.136,41.244c-0.252,0.519 -0.795,0.833 -1.372,0.794c-0.577,-0.04 -1.072,-0.424 -1.252,-0.973c-12.137,-37.315 -1.229,-66.375 63.026,-76.327c0.247,-0.041 0.429,-0.253 0.431,-0.503c0.002,-0.251 -0.176,-0.466 -0.422,-0.512c-16.069,-2.663 -33.181,-1.683 -53.06,8.959c-0.136,0.073 -0.298,0.08 -0.44,0.021c-0.142,-0.059 -0.25,-0.18 -0.294,-0.327c-4.094,-14.13 8.881,-22.398 21.99,-24.144c0.223,-0.027 0.403,-0.194 0.445,-0.415c0.043,-0.22 -0.063,-0.442 -0.26,-0.549c-17.022,-8.997 -39.674,-12.503 -71.41,-7.148c-0.213,0.035 -0.425,-0.064 -0.533,-0.251c-0.108,-0.186 -0.088,-0.419 0.049,-0.585c26.357,-31.535 61.725,-37.711 111.321,-3.839c0.187,0.126 0.434,0.117 0.61,-0.022c0.177,-0.14 0.243,-0.378 0.162,-0.588c-13.081,-34.385 -8.372,-65.166 30.745,-88.979c0.209,-0.128 0.479,-0.1 0.656,0.07c0.178,0.169 0.22,0.436 0.101,0.651c-8.718,16.163 -12.249,34.263 -7.665,55.382c0.073,0.335 0.354,0.585 0.696,0.618c0.342,0.034 0.666,-0.156 0.804,-0.47c3.535,-8.614 8.633,-10.923 15.585,-5.768c0.193,0.141 0.313,0.36 0.329,0.598c0.196,2.89 1.518,22.342 1.957,28.762c0.023,0.329 0.244,0.612 0.559,0.713c0.315,0.101 0.66,-0 0.87,-0.255c39.412,-47.982 82.232,-44.125 126.425,-19.351c0.208,0.117 0.354,0.319 0.398,0.553c0.044,0.234 -0.017,0.475 -0.167,0.66c-8.532,10.194 -24.77,15.696 -51.914,14.575c-0.385,-0.012 -0.723,0.255 -0.799,0.632c-0.076,0.378 0.132,0.755 0.492,0.892c11.294,4.24 18.061,11.612 16.183,24.975c-0.032,0.231 -0.161,0.437 -0.355,0.565c-0.195,0.129 -0.435,0.167 -0.66,0.106c-30.477,-8.2 -57.355,-9.191 -73.575,11.19c-0.514,0.654 -0.617,1.54 -0.268,2.294c0.349,0.754 1.091,1.25 1.923,1.284c53.127,2.203 72.355,25.459 69.455,62.444c-0.072,0.905 -0.792,1.624 -1.699,1.694c-6.795,0.354 -13.77,-3.228 -21.089,-14.191c-0.304,-0.436 -0.844,-0.642 -1.362,-0.522c-0.518,0.121 -0.911,0.544 -0.991,1.069c-0.927,5.295 -3.568,10.051 -7.922,14.269c-0.42,0.404 -1.026,0.549 -1.584,0.38c-0.557,-0.169 -0.98,-0.626 -1.105,-1.194c-2.917,-13.4 -9.606,-21.465 -21.082,-22.752c-0.351,-0.038 -0.705,0.039 -1.008,0.221c-3.592,2.252 -5.333,6.899 -6.149,12.748c-0.081,0.562 -0.455,1.039 -0.981,1.254c-0.527,0.216 -1.128,0.137 -1.581,-0.206c-7.466,-5.989 -12.175,-15.7 -14.879,-28.114c-0.211,-0.969 -0.82,-1.805 -1.679,-2.303c-0.858,-0.499 -1.887,-0.614 -2.835,-0.318c-1.408,0.194 -2.882,0.394 -3.844,0.55c-0.721,0.283 -1.329,0.793 -1.732,1.453c-2.878,4.923 -12.902,24.109 -7.194,43.886c3.142,10.885 12.65,31.199 17.663,41.592c23.591,6.06 46.943,18.118 68.252,37.572c67.928,-1.578 104.092,15.864 110.356,51.203c124.214,26.789 246.914,31.88 367.542,7.261c21.233,-4.304 43.114,-4.307 64.348,-0.007c97.496,19.857 193.274,21.038 287.112,1.1c22.944,-4.849 46.667,-4.661 69.532,0.552c96.15,21.952 192.3,22.174 288.449,-8.906Z" style="fill:#2190cf;"/></g><g><path d="M1493.66,457.073l-25.21,51.098c1.201,12.361 7.796,20.006 16.647,25.678c14.185,-18.83 21.163,-39.144 23.558,-60.401c-1.234,-9.392 -6.113,-14.975 -14.995,-16.375Z" style="fill:#484e60;"/><path d="M1537.64,435.036c-3.246,-9.802 -2.52,-17.309 6.85,-19.818c0.33,-0.089 0.666,-0.153 1.005,-0.194c59.667,-7.2 65.388,4.395 85.599,26.262l-69.741,3.409l-23.713,-9.659Z" style="fill:#6ebae7;"/><path d="M1478.89,693.516l104.058,0c31.899,-20.356 75.195,-26.896 119.066,-32.737l0,-7.788c-110.524,-1.124 -205.864,3.898 -223.124,40.525Z" style="fill:#ede2d3;"/><path d="M1456.12,683.29l22.754,10.226c18.927,-36.379 124.414,-36.426 223.139,-39.311c-128.529,-2.949 -246.224,-2.956 -245.893,29.085Z" style="fill:#5fcae8;"/><path d="M1432.35,668.186l23.93,15.104c10.61,-28.523 136.188,-27.13 245.736,-29.907l-269.666,-5.957l0,20.76Z" style="fill:#5da4da;"/><path d="M1432.35,630.443l0,16.983l269.666,5.565c0,0 -2.874,-17.216 -3.599,-21.561c-0.095,-0.57 -0.588,-0.987 -1.165,-0.987l-264.902,0Z" style="fill:#ede2d3;"/><path d="M1484.68,622.211l92.212,0c34.446,-14.416 71.215,-22.744 108.988,-28.44c0.726,-0.109 1.376,-0.509 1.8,-1.109c0.425,-0.599 0.587,-1.345 0.448,-2.066c-0.738,-3.855 -1.988,-10.383 -1.988,-10.383c-80.003,-3.284 -158.41,-4.423 -201.46,41.998Z" style="fill:#b5ad95;stroke:#b5ad95;stroke-width:4.14px;"/><path d="M1708.01,560.791l48.443,-0c2.801,-0 5.072,-2.271 5.072,-5.072c-0,-11.871 -0,-40.464 -0,-40.464c-22.45,-4.095 -42.176,13.55 -53.515,45.536Z" style="fill:#b5ad95;"/><path d="M1445.85,601.532l38.094,22.555c5.752,-12.167 20.454,-18.639 34.827,-20.069l-72.921,-14.565l-0,12.079Z" style="fill:#6b97b4;"/><path d="M1445.85,601.532l-0,-12.079l-8.554,-4.271c-0,0 -4.379,10.598 8.554,16.35Z" style="fill:#484646;"/><path d="M1432.35,630.443l0,37.743c0,0 -32.213,-28.708 0,-37.743Z" style="fill:#484646;"/><path d="M1445.85,589.453c29.506,12.76 63.566,16.75 101.647,12.999l-6.545,28.136l12.885,-0l3.748,-27.131l12.977,-0.095l7.588,27.07l14.745,-0l-9.404,-27.703c57.002,4.591 96.323,-14.496 127.769,-42.889c7.631,-6.89 14.798,-14.329 21.641,-22.11c-144.637,-5.01 -286.004,-6.611 -287.051,51.723Z" style="fill:#efe1d2;"/><path d="M1768.17,481.353l0.097,36.85l-56.289,0.639l-9.687,-36.88l65.879,-0.609Z" style="fill:#6ebae7;"/><path d="M1739.93,531.195l-7.366,7.252c0,0 -239.086,16.211 -253.635,17.197c-0.575,0.039 -1.147,0.115 -1.712,0.229c-15.621,3.207 -26.272,13.957 -31.082,33.58l-20.478,-9.762l-0.219,-16.947l7.552,-16.171l59.043,-3.433l100.133,-8.17l147.764,-3.775Z" style="fill:#5fcae8;"/><path d="M1423.13,517.847c13.89,-8.625 28.726,-10.953 46.143,-10.019c1.877,10.245 6.146,18.612 13.808,24.316c0.587,0.424 1.333,0.561 2.031,0.374c0.699,-0.187 1.277,-0.679 1.573,-1.339c8.48,-18.849 16.708,-37.712 21.904,-56.614c0.153,-0.558 0.102,-1.151 -0.144,-1.674c-3.634,-7.708 -8.616,-12.972 -14.833,-16.004c10.837,-26.648 50.104,-23.646 91.568,-18.354c0.479,-15.362 4.893,-27.705 11.402,-38.442c0.096,-0.154 0.288,-0.218 0.457,-0.151c0.17,0.067 0.267,0.245 0.231,0.423c-2.501,12.73 -3.211,25.459 -0.709,38.188c34.534,4.033 68.293,5.057 99.809,-2.616c2.891,-0.725 5.326,-2.669 6.673,-5.329c4.634,-9.119 15.292,-30.169 15.292,-30.169l58.39,-0.157l-7.844,87.193l-64.747,0l13.146,30.374l31.878,0l-9.892,13.107l-280.749,14.981c-22.727,2.009 -31.644,14.477 -32.862,32.774l-2.525,-60.862Z" style="fill:#5aa6dc;"/><path d="M1644.29,441.653c17.847,-0.009 35.279,-1.628 52.074,-5.716c2.898,-0.723 5.339,-2.67 6.689,-5.335c4.63,-9.125 15.283,-30.165 15.283,-30.165l58.39,-0.157l-6.389,71.016l-126.047,-29.643Z" style="fill:#479bd5;"/><path d="M1514.84,485.096c0.254,-0.715 0.93,-1.193 1.689,-1.193c3.174,0 11.22,0 11.22,0l13.383,11.558l0,38.782c0,0.99 -0.802,1.792 -1.791,1.792c-6.925,0 -31.95,0 -40.034,0c-0.582,0 -1.127,-0.283 -1.463,-0.758c-0.336,-0.475 -0.42,-1.084 -0.225,-1.633c3.251,-9.165 14.855,-41.877 17.221,-48.548Z" style="fill:#484e60;"/><path d="M1601.92,496.642c-0,-0.313 -0.125,-0.614 -0.346,-0.835c-0.222,-0.222 -0.522,-0.346 -0.835,-0.346c-6.366,0 -36.53,0 -42.895,0c-0.314,0 -0.614,0.124 -0.836,0.346c-0.221,0.221 -0.345,0.522 -0.345,0.835c-0,4.684 -0,21.922 -0,26.606c-0,0.313 0.124,0.613 0.345,0.835c0.222,0.221 0.522,0.346 0.836,0.346c6.365,-0 36.529,-0 42.895,-0c0.313,-0 0.613,-0.125 0.835,-0.346c0.221,-0.222 0.346,-0.522 0.346,-0.835c-0,-4.684 -0,-21.922 -0,-26.606Z" style="fill:#484e60;"/><path d="M1662.74,496.642c-0,-0.313 -0.125,-0.614 -0.346,-0.835c-0.222,-0.222 -0.522,-0.346 -0.835,-0.346c-6.366,0 -36.53,0 -42.895,0c-0.314,0 -0.614,0.124 -0.835,0.346c-0.222,0.221 -0.346,0.522 -0.346,0.835c-0,4.684 -0,21.922 -0,26.606c-0,0.313 0.124,0.613 0.346,0.835c0.221,0.221 0.521,0.346 0.835,0.346c6.365,-0 36.529,-0 42.895,-0c0.313,-0 0.613,-0.125 0.835,-0.346c0.221,-0.222 0.346,-0.522 0.346,-0.835c-0,-4.684 -0,-21.922 -0,-26.606Z" style="fill:#484e60;"/><path d="M1537.67,458.391c-1.218,0.021 -2.277,0.841 -2.602,2.015c-1.852,6.7 -7.768,28.104 -7.768,28.104c0.5,4.848 5.761,6.765 13.831,6.951l69.382,0c2.184,0 4.323,-0.616 6.172,-1.779c18.695,-11.732 23.524,-23.46 0.034,-35.188c-1.853,-0.929 -3.904,-1.396 -5.977,-1.36c-12.747,0.212 -62.344,1.071 -73.072,1.257Z" style="fill:#6ebae7;"/><path d="M1718.05,400.545c0,-0 6.793,-13.611 8.62,-17.273c0.274,-0.549 0.837,-0.894 1.451,-0.888c6.204,0.055 39.332,0.351 47.013,0.419c0.882,0.008 1.592,0.725 1.592,1.606c-0,4.44 -0,16.64 -0,16.64l-58.676,-0.504Z" style="fill:#6ebae7;"/><ellipse cx="1739.93" cy="436.698" rx="19.952" ry="20.488" style="fill:#6ebae7;"/><path d="M1425.66,562.746c-0,-0 -4.161,56.961 -5.164,70.684c-0.007,0.098 -0.089,0.173 -0.187,0.172c-0.098,-0.001 -0.178,-0.078 -0.184,-0.176c-0.722,-13.698 -3.713,-70.408 -3.713,-70.408l9.248,-0.272Z" style="fill:#484646;"/><path d="M1424.24,520.216c-0,0 10.292,-19.833 13.366,-25.758c0.11,-0.211 0.347,-0.325 0.58,-0.277c0.234,0.049 0.407,0.246 0.423,0.484c0.753,13.479 -4.487,28.403 -14.445,42.538l0.076,-16.987Z" style="fill:#484646;"/><path d="M1413.15,520.216c0,0 -0.313,-44.26 -0.38,-53.868c-0.001,-0.087 0.065,-0.161 0.152,-0.169c0.086,-0.009 0.165,0.05 0.182,0.135c1.826,9.423 10.228,52.792 10.228,52.792l-10.182,1.11Z" style="fill:#484646;"/><path d="M1424.74,517.847l0.921,46.182c-19.509,2.187 -34.366,-7.971 -34.366,-21.223c0,-18.558 14.941,-23.555 33.445,-24.959Z" style="fill:#b5ad95;"/></g><g><path d="M1241.6,360.498c-16.721,2.992 -51.93,15.786 -40.796,38.159c2.348,4.719 5.298,9.211 8.745,13.283c2.107,2.488 4.846,4.514 7.726,6.174c8.288,4.778 20.453,5.819 29.286,6.308c20.751,1.147 48.56,1.938 69.285,-3.781c8.716,-2.405 18.122,-5.818 23.734,-13.016c10.882,-13.957 5.82,-33.427 -10.395,-41.085c-7.547,-3.565 -22.832,-5.33 -30.947,-5.933c-16.2,-1.203 -39.748,-3.13 -56.638,-0.109Z" style="fill:#fff;fill-opacity:0.5;"/><path d="M625.862,141.76c-16.721,2.992 -51.93,15.786 -40.796,38.159c2.348,4.719 5.298,9.211 8.745,13.283c2.106,2.488 4.846,4.514 7.726,6.174c8.288,4.778 20.453,5.819 29.286,6.308c20.751,1.147 48.56,1.938 69.285,-3.781c8.716,-2.405 18.122,-5.818 23.733,-13.016c10.883,-13.957 5.821,-33.427 -10.394,-41.085c-7.547,-3.564 -22.832,-5.33 -30.947,-5.933c-16.2,-1.203 -39.748,-3.13 -56.638,-0.109Z" style="fill:#fff;fill-opacity:0.5;"/><path d="M1710.3,59.731c-16.721,2.992 -51.931,15.786 -40.796,38.159c2.348,4.719 5.297,9.211 8.745,13.283c2.106,2.488 4.845,4.514 7.725,6.174c8.289,4.778 20.454,5.819 29.287,6.308c20.75,1.147 48.559,1.938 69.285,-3.781c8.716,-2.405 18.121,-5.818 23.733,-13.016c10.882,-13.957 5.821,-33.427 -10.395,-41.085c-7.546,-3.565 -22.832,-5.33 -30.946,-5.933c-16.201,-1.203 -39.748,-3.13 -56.638,-0.109Z" style="fill:#fff;fill-opacity:0.5;"/><path d="M869.656,40.656c-16.721,4.627 -51.93,24.416 -40.796,59.021c2.348,7.297 5.298,14.245 8.745,20.544c2.106,3.848 4.846,6.982 7.726,9.55c8.288,7.39 20.453,8.999 29.286,9.755c20.751,1.775 48.56,2.999 69.285,-5.847c8.716,-3.72 18.122,-9 23.734,-20.132c10.882,-21.588 5.82,-51.702 -10.395,-63.547c-7.547,-5.513 -22.832,-8.244 -30.947,-9.176c-16.2,-1.86 -39.748,-4.842 -56.638,-0.168Z" style="fill:#fff;fill-opacity:0.5;"/><path d="M595.96,396.478c-16.721,4.626 -51.93,24.416 -40.796,59.02c2.348,7.298 5.298,14.246 8.745,20.545c2.106,3.848 4.846,6.982 7.725,9.549c8.289,7.39 20.454,9 29.287,9.756c20.751,1.775 48.559,2.998 69.285,-5.848c8.716,-3.72 18.121,-8.999 23.733,-20.132c10.882,-21.587 5.821,-51.701 -10.395,-63.546c-7.546,-5.513 -22.831,-8.244 -30.946,-9.176c-16.2,-1.861 -39.748,-4.842 -56.638,-0.168Z" style="fill:#fff;fill-opacity:0.5;"/><path d="M118.778,341.433c-16.721,4.626 -51.93,24.416 -40.796,59.02c2.349,7.298 5.298,14.246 8.746,20.545c2.106,3.848 4.845,6.982 7.725,9.549c8.288,7.39 20.454,9 29.287,9.756c20.75,1.775 48.559,2.998 69.285,-5.847c8.716,-3.721 18.121,-9 23.733,-20.133c10.882,-21.587 5.82,-51.701 -10.395,-63.546c-7.547,-5.513 -22.832,-8.244 -30.947,-9.176c-16.2,-1.86 -39.748,-4.842 -56.638,-0.168Z" style="fill:#fff;fill-opacity:0.5;"/><path d="M742.648,637.946c-16.721,2.189 -51.93,11.552 -40.796,27.925c2.348,3.453 5.298,6.74 8.746,9.721c2.106,1.821 4.845,3.303 7.725,4.518c8.288,3.497 20.454,4.258 29.286,4.616c20.751,0.84 48.56,1.418 69.285,-2.767c8.717,-1.76 18.122,-4.258 23.734,-9.525c10.882,-10.214 5.82,-24.462 -10.395,-30.067c-7.547,-2.608 -22.832,-3.9 -30.947,-4.341c-16.2,-0.881 -39.748,-2.291 -56.638,-0.08Z" style="fill:#fff;fill-opacity:0.5;"/><path d="M1115.76,181.107c-16.721,2.992 -51.93,15.786 -40.796,38.159c2.348,4.718 5.298,9.21 8.745,13.283c2.107,2.488 4.846,4.514 7.726,6.174c8.288,4.778 20.453,5.819 29.286,6.307c20.751,1.148 48.56,1.939 69.285,-3.78c8.716,-2.405 18.122,-5.819 23.734,-13.016c10.882,-13.957 5.82,-33.427 -10.395,-41.086c-7.547,-3.564 -22.832,-5.329 -30.947,-5.932c-16.2,-1.203 -39.748,-3.131 -56.638,-0.109Z" style="fill:#fff;fill-opacity:0.5;"/><path d="M1506.14,239.337c-16.721,3.82 -51.93,20.16 -40.796,48.734c2.348,6.026 5.298,11.762 8.745,16.964c2.107,3.177 4.846,5.765 7.726,7.885c8.288,6.102 20.454,7.431 29.286,8.055c20.751,1.466 48.56,2.476 69.285,-4.828c8.716,-3.072 18.122,-7.431 23.734,-16.623c10.882,-17.825 5.82,-42.691 -10.395,-52.471c-7.547,-4.552 -22.832,-6.807 -30.947,-7.577c-16.2,-1.536 -39.748,-3.998 -56.638,-0.139Z" style="fill:#fff;fill-opacity:0.5;"/><path d="M382.308,2.191c-16.721,3.821 -51.93,20.161 -40.796,48.734c2.348,6.026 5.298,11.763 8.745,16.964c2.107,3.178 4.846,5.765 7.726,7.885c8.288,6.102 20.454,7.431 29.286,8.055c20.751,1.466 48.56,2.476 69.285,-4.828c8.716,-3.071 18.122,-7.431 23.734,-16.623c10.882,-17.825 5.82,-42.691 -10.395,-52.471c-7.547,-4.552 -22.832,-6.807 -30.947,-7.577c-16.2,-1.536 -39.748,-3.998 -56.638,-0.139Z" style="fill:#fff;fill-opacity:0.5;"/><path d="M104.36,45.348c-16.721,3.821 -51.931,20.161 -40.796,48.734c2.348,6.026 5.297,11.763 8.745,16.964c2.106,3.178 4.845,5.765 7.725,7.885c8.288,6.102 20.454,7.432 29.287,8.055c20.75,1.466 48.559,2.476 69.285,-4.828c8.716,-3.071 18.121,-7.431 23.733,-16.623c10.882,-17.825 5.82,-42.69 -10.395,-52.471c-7.547,-4.552 -22.832,-6.807 -30.946,-7.576c-16.201,-1.537 -39.749,-3.998 -56.638,-0.14Z" style="fill:#fff;fill-opacity:0.5;"/><path d="M394.835,515.682c-14.703,1.91 -45.661,10.08 -35.871,24.367c2.065,3.013 4.658,5.881 7.689,8.482c1.852,1.589 4.261,2.882 6.793,3.942c7.288,3.051 17.984,3.716 25.751,4.028c18.245,0.733 42.697,1.238 60.92,-2.414c7.664,-1.536 15.934,-3.716 20.868,-8.312c9.569,-8.912 5.118,-21.345 -9.14,-26.235c-6.635,-2.276 -20.075,-3.404 -27.21,-3.789c-14.245,-0.768 -34.95,-1.999 -49.8,-0.069Z" style="fill:#fff;fill-opacity:0.5;"/><path d="M1111.69,592.172c-16.721,2.991 -51.93,15.786 -40.796,38.159c2.348,4.718 5.298,9.21 8.745,13.283c2.107,2.488 4.846,4.514 7.726,6.174c8.288,4.778 20.454,5.819 29.286,6.307c20.751,1.148 48.56,1.939 69.285,-3.78c8.716,-2.405 18.122,-5.819 23.734,-13.016c10.882,-13.957 5.82,-33.427 -10.395,-41.086c-7.547,-3.564 -22.832,-5.33 -30.947,-5.932c-16.2,-1.203 -39.748,-3.131 -56.638,-0.109Z" style="fill:#fff;fill-opacity:0.5;"/><path d="M370.506,297.767c-16.721,2.991 -51.931,15.786 -40.796,38.159c2.348,4.718 5.297,9.21 8.745,13.283c2.106,2.488 4.845,4.514 7.725,6.174c8.289,4.778 20.454,5.819 29.287,6.307c20.75,1.148 48.559,1.939 69.285,-3.78c8.716,-2.405 18.121,-5.819 23.733,-13.016c10.882,-13.957 5.821,-33.427 -10.395,-41.086c-7.546,-3.564 -22.832,-5.33 -30.946,-5.932c-16.201,-1.203 -39.749,-3.131 -56.638,-0.109Z" style="fill:#fff;fill-opacity:0.5;"/><path d="M984.267,413.245c-16.976,3.852 -52.723,20.327 -41.419,49.137c2.384,6.076 5.379,11.86 8.879,17.105c2.138,3.204 4.919,5.813 7.843,7.95c8.415,6.153 20.766,7.493 29.734,8.122c21.067,1.478 49.301,2.496 70.343,-4.868c8.849,-3.097 18.398,-7.493 24.096,-16.761c11.048,-17.973 5.909,-43.044 -10.554,-52.906c-7.662,-4.589 -23.181,-6.863 -31.419,-7.639c-16.448,-1.549 -40.355,-4.031 -57.503,-0.14Z" style="fill:#fff;fill-opacity:0.5;"/><path d="M1349.04,775.775c-10.033,2.176 -31.159,11.482 -24.478,27.754c1.409,3.432 3.179,6.699 5.247,9.661c1.264,1.81 2.908,3.284 4.635,4.491c4.974,3.475 12.273,4.232 17.573,4.587c12.45,0.835 29.135,1.41 41.571,-2.749c5.229,-1.75 10.873,-4.232 14.24,-9.467c6.529,-10.152 3.492,-24.312 -6.237,-29.883c-4.528,-2.592 -13.699,-3.876 -18.568,-4.314c-9.72,-0.875 -23.849,-2.277 -33.983,-0.08Z" style="fill:#fff;fill-opacity:0.5;"/><path d="M1412.13,81.596c-10.033,2.176 -31.159,11.481 -24.478,27.754c1.409,3.431 3.179,6.698 5.247,9.661c1.264,1.809 2.908,3.283 4.635,4.49c4.973,3.475 12.273,4.232 17.572,4.588c12.451,0.834 29.136,1.41 41.572,-2.75c5.229,-1.749 10.873,-4.232 14.24,-9.467c6.529,-10.151 3.492,-24.312 -6.237,-29.882c-4.528,-2.592 -13.699,-3.877 -18.568,-4.315c-9.72,-0.875 -23.849,-2.277 -33.983,-0.079Z" style="fill:#fff;fill-opacity:0.5;"/><path d="M1200.09,35.204c-10.033,2.176 -31.159,11.481 -24.478,27.754c1.409,3.432 3.179,6.699 5.247,9.661c1.264,1.809 2.908,3.283 4.635,4.49c4.973,3.475 12.273,4.232 17.572,4.588c12.451,0.835 29.136,1.41 41.572,-2.75c5.229,-1.749 10.873,-4.232 14.24,-9.467c6.529,-10.151 3.492,-24.312 -6.237,-29.882c-4.528,-2.592 -13.699,-3.877 -18.568,-4.315c-9.72,-0.875 -23.849,-2.277 -33.983,-0.079Z" style="fill:#fff;fill-opacity:0.5;"/><path d="M265.319,141.962c-10.032,2.176 -31.158,11.481 -24.477,27.754c1.409,3.432 3.178,6.699 5.247,9.661c1.264,1.81 2.907,3.283 4.635,4.49c4.973,3.476 12.272,4.232 17.572,4.588c12.451,0.835 29.136,1.41 41.571,-2.75c5.23,-1.749 10.873,-4.232 14.24,-9.467c6.53,-10.151 3.493,-24.312 -6.237,-29.882c-4.528,-2.592 -13.699,-3.876 -18.568,-4.315c-9.72,-0.875 -23.849,-2.277 -33.983,-0.079Z" style="fill:#fff;fill-opacity:0.5;"/><path d="M767.953,321.311c-10.033,2.176 -31.158,11.481 -24.478,27.754c1.409,3.431 3.179,6.699 5.247,9.661c1.264,1.809 2.908,3.283 4.635,4.49c4.974,3.475 12.273,4.232 17.573,4.588c12.45,0.834 29.135,1.41 41.571,-2.75c5.229,-1.749 10.873,-4.232 14.24,-9.467c6.529,-10.151 3.492,-24.312 -6.237,-29.882c-4.528,-2.592 -13.699,-3.877 -18.568,-4.315c-9.72,-0.875 -23.849,-2.277 -33.983,-0.079Z" style="fill:#fff;fill-opacity:0.5;"/></g></g></svg>