<?xml version="1.0" encoding="UTF-8" standalone="no"?><!DOCTYPE svg PUBLIC "-//W3C//DTD SVG 1.1//EN" "http://www.w3.org/Graphics/SVG/1.1/DTD/svg11.dtd"><svg width="100%" height="100%" viewBox="0 0 1876 1276" version="1.1" xmlns="http://www.w3.org/2000/svg" xmlns:xlink="http://www.w3.org/1999/xlink" xml:space="preserve" xmlns:serif="http://www.serif.com/" style="fill-rule:evenodd;clip-rule:evenodd;stroke-linecap:round;stroke-linejoin:round;stroke-miterlimit:3.56707;"><path id="postcard-flight" d="M1875.24,1275.44l0,-1275l-1875,0l0,1275l1875,0Z" style="fill:none;"/><clipPath id="_clip1"><path d="M1875.24,1275.44l0,-1275l-1875,0l0,1275l1875,0Z"/></clipPath><g clip-path="url(#_clip1)"><g><path d="M221.835,600.571l-25.21,51.098c1.201,12.361 7.796,20.006 16.648,25.677c14.184,-18.83 21.162,-39.144 23.557,-60.4c-1.234,-9.392 -6.112,-14.975 -14.995,-16.375Z" style="fill:#484e60;"/><path d="M265.809,578.534c-3.246,-9.803 -2.52,-17.309 6.85,-19.819c0.33,-0.088 0.666,-0.153 1.005,-0.193c59.667,-7.2 65.388,4.394 85.6,26.262l-69.742,3.408l-23.713,-9.658Z" style="fill:#6ebae7;"/><path d="M207.061,837.014l104.059,-0c31.898,-20.357 75.194,-26.896 119.065,-32.738l0,-7.787c-110.524,-1.125 -205.864,3.897 -223.124,40.525Z" style="fill:#ede2d3;"/><path d="M184.292,826.787l22.754,10.227c18.928,-36.38 124.414,-36.426 223.139,-39.311c-128.529,-2.949 -246.224,-2.957 -245.893,29.084Z" style="fill:#5fcae8;"/><path d="M160.519,811.684l23.93,15.103c10.61,-28.523 136.188,-27.129 245.736,-29.907l-269.666,-5.956l0,20.76Z" style="fill:#5da4da;"/><path d="M160.519,773.941l0,16.983l269.666,5.565c0,-0 -2.873,-17.216 -3.599,-21.561c-0.095,-0.57 -0.587,-0.987 -1.165,-0.987l-264.902,-0Z" style="fill:#ede2d3;"/><path d="M212.848,765.709l92.212,-0c34.446,-14.416 71.215,-22.744 108.988,-28.44c0.726,-0.109 1.376,-0.51 1.801,-1.109c0.424,-0.599 0.586,-1.345 0.448,-2.066c-0.739,-3.855 -1.989,-10.383 -1.989,-10.383c-80.002,-3.284 -158.41,-4.423 -201.46,41.998Z" style="fill:#b5ad95;stroke:#b5ad95;stroke-width:4.14px;"/><path d="M436.176,704.288l48.443,0c2.801,0 5.072,-2.271 5.072,-5.072c0,-11.87 0,-40.463 0,-40.463c-22.45,-4.095 -42.176,13.55 -53.515,45.535Z" style="fill:#b5ad95;"/><path d="M174.02,745.029l38.094,22.556c5.752,-12.168 20.454,-18.64 34.827,-20.069l-72.921,-14.565l-0,12.078Z" style="fill:#6b97b4;"/><path d="M174.02,745.029l-0,-12.078l-8.554,-4.271c0,-0 -4.379,10.598 8.554,16.349Z" style="fill:#484646;"/><path d="M160.519,773.941l0,37.743c0,-0 -32.212,-28.708 0,-37.743Z" style="fill:#484646;"/><path d="M174.02,732.951c29.506,12.76 63.566,16.75 101.647,12.998l-6.545,28.137l12.885,-0l3.748,-27.131l12.977,-0.095l7.588,27.07l14.745,-0l-9.404,-27.704c57.002,4.592 96.323,-14.495 127.769,-42.888c7.631,-6.891 14.798,-14.329 21.642,-22.11c-144.638,-5.01 -286.004,-6.611 -287.052,51.723Z" style="fill:#efe1d2;"/><path d="M496.339,624.851l0.098,36.849l-56.29,0.64l-9.687,-36.881l65.879,-0.608Z" style="fill:#6ebae7;"/><path d="M468.098,674.693l-7.367,7.252c0,-0 -239.086,16.211 -253.635,17.197c-0.575,0.039 -1.147,0.115 -1.712,0.229c-15.621,3.207 -26.271,13.956 -31.082,33.58l-20.478,-9.762l-0.218,-16.947l7.551,-16.171l59.043,-3.433l100.133,-8.17l147.765,-3.775Z" style="fill:#5fcae8;"/><path d="M151.306,661.345c13.89,-8.625 28.726,-10.954 46.142,-10.019c1.877,10.245 6.146,18.612 13.808,24.315c0.587,0.424 1.333,0.562 2.032,0.375c0.699,-0.187 1.276,-0.679 1.572,-1.339c8.481,-18.85 16.708,-37.712 21.904,-56.615c0.153,-0.557 0.102,-1.15 -0.144,-1.674c-3.634,-7.707 -8.616,-12.972 -14.833,-16.004c10.838,-26.647 50.105,-23.645 91.568,-18.353c0.479,-15.363 4.894,-27.705 11.402,-38.442c0.096,-0.154 0.289,-0.218 0.458,-0.151c0.169,0.066 0.266,0.245 0.231,0.423c-2.502,12.729 -3.212,25.459 -0.71,38.188c34.535,4.032 68.294,5.057 99.809,-2.616c2.892,-0.725 5.327,-2.669 6.673,-5.329c4.635,-9.119 15.293,-30.169 15.293,-30.169l58.389,-0.158l-7.844,87.194l-64.746,0l13.145,30.374l31.878,-0l-9.892,13.107l-280.749,14.98c-22.727,2.009 -31.644,14.477 -32.862,32.775l-2.524,-60.862Z" style="fill:#5aa6dc;"/><path d="M372.464,585.151c17.847,-0.01 35.279,-1.628 52.074,-5.716c2.898,-0.723 5.339,-2.67 6.689,-5.335c4.631,-9.125 15.284,-30.165 15.284,-30.165l58.389,-0.158l-6.388,71.017l-126.048,-29.643Z" style="fill:#479bd5;"/><path d="M243.013,628.594c0.254,-0.715 0.93,-1.193 1.689,-1.193c3.174,0 11.22,0 11.22,0l13.384,11.558l-0,38.782c-0,0.989 -0.803,1.792 -1.792,1.792c-6.925,-0 -31.95,-0 -40.033,-0c-0.582,-0 -1.128,-0.283 -1.464,-0.758c-0.336,-0.476 -0.42,-1.085 -0.225,-1.633c3.251,-9.166 14.855,-41.877 17.221,-48.548Z" style="fill:#484e60;"/><path d="M330.092,640.14c-0,-0.313 -0.125,-0.614 -0.346,-0.835c-0.222,-0.222 -0.522,-0.346 -0.835,-0.346c-6.365,-0 -36.53,-0 -42.895,-0c-0.313,-0 -0.614,0.124 -0.835,0.346c-0.222,0.221 -0.346,0.522 -0.346,0.835c-0,4.683 -0,21.922 -0,26.605c-0,0.314 0.124,0.614 0.346,0.836c0.221,0.221 0.522,0.346 0.835,0.346c6.365,-0 36.53,-0 42.895,-0c0.313,-0 0.613,-0.125 0.835,-0.346c0.221,-0.222 0.346,-0.522 0.346,-0.836c-0,-4.683 -0,-21.922 -0,-26.605Z" style="fill:#484e60;"/><path d="M390.906,640.14c-0,-0.313 -0.124,-0.614 -0.346,-0.835c-0.221,-0.222 -0.522,-0.346 -0.835,-0.346c-6.365,-0 -36.53,-0 -42.895,-0c-0.313,-0 -0.614,0.124 -0.835,0.346c-0.222,0.221 -0.346,0.522 -0.346,0.835c-0,4.683 -0,21.922 -0,26.605c-0,0.314 0.124,0.614 0.346,0.836c0.221,0.221 0.522,0.346 0.835,0.346c6.365,-0 36.53,-0 42.895,-0c0.313,-0 0.614,-0.125 0.835,-0.346c0.222,-0.222 0.346,-0.522 0.346,-0.836c-0,-4.683 -0,-21.922 -0,-26.605Z" style="fill:#484e60;"/><path d="M265.844,601.889c-1.218,0.021 -2.277,0.841 -2.601,2.015c-1.852,6.7 -7.769,28.104 -7.769,28.104c0.5,4.848 5.761,6.764 13.832,6.951c-0,-0 55.317,-0 69.381,-0c2.184,0 4.324,-0.616 6.172,-1.779c18.696,-11.732 23.524,-23.46 0.034,-35.189c-1.853,-0.929 -3.904,-1.395 -5.977,-1.359c-12.747,0.212 -62.343,1.071 -73.072,1.257Z" style="fill:#6ebae7;"/><path d="M446.225,544.042c-0,0 6.792,-13.611 8.619,-17.272c0.274,-0.549 0.838,-0.894 1.452,-0.889c6.204,0.056 39.331,0.351 47.013,0.42c0.881,0.008 1.591,0.724 1.591,1.606c0,4.44 0,16.64 0,16.64l-58.675,-0.505Z" style="fill:#6ebae7;"/><ellipse cx="468.098" cy="580.195" rx="19.952" ry="20.488" style="fill:#6ebae7;"/><path d="M153.83,706.243c-0,0 -4.161,56.962 -5.163,70.685c-0.007,0.097 -0.089,0.173 -0.188,0.172c-0.098,-0.001 -0.178,-0.078 -0.183,-0.176c-0.723,-13.698 -3.713,-70.409 -3.713,-70.409l9.247,-0.272Z" style="fill:#484646;"/><path d="M152.415,663.714c0,0 10.292,-19.833 13.367,-25.758c0.109,-0.212 0.346,-0.325 0.579,-0.277c0.234,0.048 0.407,0.246 0.423,0.484c0.753,13.479 -4.487,28.403 -14.445,42.538l0.076,-16.987Z" style="fill:#484646;"/><path d="M141.322,663.714c0,0 -0.312,-44.261 -0.38,-53.869c-0.001,-0.087 0.065,-0.16 0.152,-0.169c0.087,-0.008 0.166,0.05 0.182,0.136c1.826,9.423 10.228,52.791 10.228,52.791l-10.182,1.111Z" style="fill:#484646;"/><path d="M152.909,661.345l0.921,46.182c-19.509,2.187 -34.365,-7.972 -34.365,-21.223c-0,-18.558 14.94,-23.556 33.444,-24.959Z" style="fill:#b5ad95;"/></g><path d="M1358.63,300.347c-16.721,2.992 -51.931,15.786 -40.796,38.159c2.348,4.719 5.297,9.211 8.745,13.283c2.106,2.488 4.845,4.514 7.725,6.174c8.288,4.778 20.454,5.819 29.287,6.308c20.75,1.147 48.559,1.938 69.285,-3.781c8.716,-2.405 18.121,-5.818 23.733,-13.016c10.882,-13.957 5.82,-33.427 -10.395,-41.085c-7.547,-3.565 -22.832,-5.33 -30.946,-5.933c-16.201,-1.203 -39.749,-3.13 -56.638,-0.109Z" style="fill:#ececed;fill-opacity:0.5;"/><path d="M1575.04,755.095c-16.721,2.991 -51.93,15.786 -40.796,38.159c2.348,4.718 5.297,9.21 8.745,13.283c2.106,2.488 4.846,4.514 7.725,6.174c8.289,4.778 20.454,5.819 29.287,6.307c20.751,1.148 48.559,1.939 69.285,-3.78c8.716,-2.405 18.121,-5.819 23.733,-13.016c10.882,-13.958 5.821,-33.427 -10.395,-41.086c-7.546,-3.564 -22.831,-5.33 -30.946,-5.932c-16.201,-1.203 -39.748,-3.131 -56.638,-0.109Z" style="fill:#ececed;fill-opacity:0.5;"/><path d="M1842.36,1053.9c-16.721,2.992 -51.931,15.786 -40.796,38.159c2.348,4.719 5.297,9.211 8.745,13.283c2.106,2.488 4.845,4.514 7.725,6.174c8.289,4.778 20.454,5.819 29.287,6.308c20.75,1.147 48.559,1.938 69.285,-3.781c8.716,-2.405 18.121,-5.818 23.733,-13.016c10.882,-13.957 5.821,-33.427 -10.395,-41.085c-7.546,-3.565 -22.832,-5.33 -30.946,-5.933c-16.201,-1.203 -39.749,-3.13 -56.638,-0.109Z" style="fill:#ececed;fill-opacity:0.5;"/><path d="M742.893,81.609c-16.721,2.992 -51.93,15.786 -40.796,38.159c2.348,4.719 5.298,9.211 8.746,13.283c2.106,2.488 4.845,4.514 7.725,6.174c8.288,4.778 20.454,5.819 29.287,6.308c20.75,1.147 48.559,1.938 69.284,-3.781c8.717,-2.405 18.122,-5.818 23.734,-13.016c10.882,-13.957 5.82,-33.427 -10.395,-41.085c-7.547,-3.565 -22.832,-5.33 -30.947,-5.933c-16.2,-1.203 -39.748,-3.13 -56.638,-0.109Z" style="fill:#ececed;fill-opacity:0.5;"/><path d="M1827.33,-0.42c-16.721,2.992 -51.93,15.786 -40.796,38.159c2.348,4.719 5.298,9.21 8.745,13.283c2.106,2.488 4.846,4.514 7.726,6.174c8.288,4.778 20.453,5.819 29.286,6.308c20.751,1.147 48.56,1.938 69.285,-3.781c8.716,-2.405 18.122,-5.818 23.734,-13.016c10.882,-13.957 5.82,-33.427 -10.395,-41.085c-7.547,-3.565 -22.832,-5.33 -30.947,-5.933c-16.2,-1.203 -39.748,-3.13 -56.638,-0.109Z" style="fill:#ececed;fill-opacity:0.5;"/><path d="M986.687,-19.495c-16.721,4.627 -51.93,24.416 -40.796,59.02c2.349,7.298 5.298,14.246 8.746,20.545c2.106,3.848 4.845,6.982 7.725,9.55c8.288,7.389 20.454,8.999 29.287,9.755c20.75,1.775 48.559,2.998 69.285,-5.847c8.716,-3.72 18.121,-9 23.733,-20.132c10.882,-21.588 5.82,-51.702 -10.395,-63.547c-7.547,-5.513 -22.832,-8.244 -30.947,-9.176c-16.2,-1.86 -39.748,-4.842 -56.638,-0.168Z" style="fill:#ececed;fill-opacity:0.5;"/><path d="M712.991,336.326c-16.721,4.627 -51.93,24.416 -40.796,59.021c2.348,7.298 5.298,14.245 8.745,20.545c2.107,3.848 4.846,6.982 7.726,9.549c8.288,7.39 20.454,9 29.286,9.755c20.751,1.776 48.56,2.999 69.285,-5.847c8.716,-3.72 18.122,-8.999 23.734,-20.132c10.882,-21.587 5.82,-51.701 -10.395,-63.546c-7.547,-5.513 -22.832,-8.244 -30.947,-9.176c-16.2,-1.861 -39.748,-4.842 -56.638,-0.169Z" style="fill:#ececed;fill-opacity:0.5;"/><path d="M235.81,281.282c-16.721,4.626 -51.93,24.416 -40.796,59.02c2.348,7.298 5.298,14.245 8.745,20.545c2.106,3.848 4.846,6.982 7.725,9.549c8.289,7.39 20.454,9 29.287,9.755c20.751,1.776 48.559,2.999 69.285,-5.847c8.716,-3.72 18.121,-8.999 23.733,-20.132c10.882,-21.587 5.821,-51.701 -10.395,-63.546c-7.546,-5.513 -22.831,-8.244 -30.946,-9.176c-16.2,-1.861 -39.748,-4.842 -56.638,-0.168Z" style="fill:#ececed;fill-opacity:0.5;"/><path d="M-17.221,640.434c-16.721,4.627 -51.93,24.416 -40.796,59.021c2.348,7.298 5.298,14.245 8.746,20.544c2.106,3.849 4.845,6.982 7.725,9.55c8.288,7.39 20.454,9 29.287,9.755c20.75,1.775 48.559,2.999 69.284,-5.847c8.717,-3.72 18.122,-8.999 23.734,-20.132c10.882,-21.587 5.82,-51.701 -10.395,-63.547c-7.547,-5.512 -22.832,-8.243 -30.947,-9.175c-16.2,-1.861 -39.748,-4.842 -56.638,-0.169Z" style="fill:#ececed;fill-opacity:0.5;"/><path d="M859.68,577.795c-16.721,2.189 -51.93,11.552 -40.796,27.925c2.348,3.453 5.297,6.74 8.745,9.721c2.106,1.82 4.845,3.303 7.725,4.518c8.289,3.496 20.454,4.258 29.287,4.616c20.751,0.839 48.559,1.418 69.285,-2.767c8.716,-1.76 18.121,-4.258 23.733,-9.525c10.882,-10.214 5.821,-24.463 -10.395,-30.067c-7.546,-2.608 -22.832,-3.901 -30.946,-4.341c-16.201,-0.881 -39.748,-2.291 -56.638,-0.08Z" style="fill:#ececed;fill-opacity:0.5;"/><path d="M1232.8,120.956c-16.721,2.991 -51.931,15.786 -40.796,38.159c2.348,4.718 5.297,9.21 8.745,13.283c2.106,2.488 4.845,4.514 7.725,6.174c8.288,4.778 20.454,5.819 29.287,6.307c20.75,1.148 48.559,1.939 69.285,-3.78c8.716,-2.405 18.121,-5.819 23.733,-13.016c10.882,-13.957 5.82,-33.427 -10.395,-41.086c-7.547,-3.564 -22.832,-5.33 -30.946,-5.932c-16.201,-1.203 -39.749,-3.131 -56.638,-0.109Z" style="fill:#ececed;fill-opacity:0.5;"/><path d="M1623.17,179.186c-16.721,3.82 -51.931,20.16 -40.796,48.734c2.348,6.026 5.297,11.762 8.745,16.964c2.106,3.177 4.845,5.765 7.725,7.885c8.289,6.102 20.454,7.431 29.287,8.055c20.75,1.466 48.559,2.476 69.285,-4.828c8.716,-3.072 18.121,-7.431 23.733,-16.623c10.882,-17.825 5.821,-42.691 -10.395,-52.472c-7.547,-4.551 -22.832,-6.807 -30.946,-7.576c-16.201,-1.536 -39.749,-3.998 -56.638,-0.139Z" style="fill:#ececed;fill-opacity:0.5;"/><path d="M1839.58,633.934c-16.721,3.82 -51.93,20.16 -40.796,48.733c2.348,6.026 5.298,11.763 8.745,16.964c2.106,3.178 4.846,5.765 7.725,7.885c8.289,6.102 20.454,7.432 29.287,8.056c20.751,1.465 48.559,2.476 69.285,-4.828c8.716,-3.072 18.121,-7.432 23.733,-16.624c10.882,-17.825 5.821,-42.69 -10.395,-52.471c-7.546,-4.552 -22.831,-6.807 -30.946,-7.576c-16.2,-1.537 -39.748,-3.998 -56.638,-0.139Z" style="fill:#ececed;fill-opacity:0.5;"/><path d="M499.34,-57.96c-16.721,3.82 -51.931,20.161 -40.796,48.734c2.348,6.026 5.297,11.763 8.745,16.964c2.106,3.177 4.845,5.765 7.725,7.885c8.289,6.102 20.454,7.431 29.287,8.055c20.75,1.466 48.559,2.476 69.285,-4.828c8.716,-3.072 18.121,-7.431 23.733,-16.623c10.882,-17.825 5.821,-42.691 -10.395,-52.471c-7.546,-4.552 -22.832,-6.807 -30.946,-7.577c-16.201,-1.536 -39.749,-3.998 -56.638,-0.139Z" style="fill:#ececed;fill-opacity:0.5;"/><path d="M221.391,-14.803c-16.721,3.821 -51.93,20.161 -40.796,48.734c2.348,6.026 5.298,11.763 8.745,16.964c2.106,3.178 4.846,5.765 7.725,7.885c8.289,6.102 20.454,7.431 29.287,8.055c20.751,1.466 48.559,2.476 69.285,-4.828c8.716,-3.071 18.122,-7.431 23.733,-16.623c10.882,-17.825 5.821,-42.69 -10.395,-52.471c-7.546,-4.552 -22.831,-6.807 -30.946,-7.577c-16.2,-1.536 -39.748,-3.998 -56.638,-0.139Z" style="fill:#ececed;fill-opacity:0.5;"/><path d="M511.866,455.531c-14.702,1.91 -45.661,10.08 -35.871,24.367c2.065,3.013 4.658,5.881 7.69,8.482c1.852,1.588 4.26,2.882 6.792,3.942c7.288,3.051 17.985,3.716 25.751,4.028c18.246,0.733 42.697,1.238 60.921,-2.414c7.663,-1.536 15.933,-3.716 20.868,-8.312c9.568,-8.912 5.117,-21.345 -9.14,-26.235c-6.636,-2.276 -20.076,-3.404 -27.211,-3.789c-14.244,-0.768 -34.949,-1.999 -49.8,-0.069Z" style="fill:#ececed;fill-opacity:0.5;"/><path d="M1228.72,532.021c-16.721,2.991 -51.931,15.786 -40.796,38.159c2.348,4.718 5.297,9.21 8.745,13.283c2.106,2.488 4.845,4.514 7.725,6.174c8.289,4.778 20.454,5.819 29.287,6.307c20.75,1.148 48.559,1.939 69.285,-3.78c8.716,-2.405 18.121,-5.819 23.733,-13.016c10.882,-13.958 5.821,-33.427 -10.395,-41.086c-7.546,-3.564 -22.832,-5.33 -30.946,-5.932c-16.201,-1.203 -39.749,-3.131 -56.638,-0.109Z" style="fill:#ececed;fill-opacity:0.5;"/><path d="M487.537,237.616c-16.721,2.991 -51.93,15.786 -40.796,38.159c2.348,4.718 5.298,9.21 8.745,13.283c2.106,2.488 4.846,4.514 7.725,6.174c8.289,4.778 20.454,5.819 29.287,6.307c20.751,1.148 48.56,1.939 69.285,-3.78c8.716,-2.405 18.122,-5.819 23.733,-13.016c10.883,-13.957 5.821,-33.427 -10.395,-41.086c-7.546,-3.564 -22.831,-5.33 -30.946,-5.932c-16.2,-1.203 -39.748,-3.131 -56.638,-0.109Z" style="fill:#ececed;fill-opacity:0.5;"/><path d="M149.766,449.637c-16.721,2.991 -51.93,15.785 -40.796,38.159c2.348,4.718 5.298,9.21 8.745,13.283c2.107,2.488 4.846,4.514 7.726,6.174c8.288,4.778 20.454,5.818 29.286,6.307c20.751,1.148 48.56,1.939 69.285,-3.78c8.716,-2.406 18.122,-5.819 23.734,-13.017c10.882,-13.957 5.82,-33.427 -10.395,-41.085c-7.547,-3.564 -22.832,-5.33 -30.947,-5.933c-16.2,-1.202 -39.748,-3.13 -56.638,-0.108Z" style="fill:#ececed;fill-opacity:0.5;"/><path d="M1101.3,353.094c-16.976,3.852 -52.723,20.327 -41.419,49.137c2.384,6.076 5.379,11.86 8.879,17.105c2.139,3.204 4.92,5.812 7.843,7.95c8.415,6.153 20.767,7.493 29.734,8.122c21.068,1.478 49.301,2.496 70.343,-4.868c8.849,-3.097 18.398,-7.493 24.096,-16.761c11.048,-17.973 5.909,-43.044 -10.554,-52.906c-7.662,-4.589 -23.18,-6.863 -31.419,-7.639c-16.447,-1.549 -40.355,-4.031 -57.503,-0.14Z" style="fill:#ececed;fill-opacity:0.5;"/><path d="M1468.17,590.852c-10.033,2.176 -31.159,11.481 -24.478,27.754c1.409,3.432 3.178,6.699 5.247,9.661c1.264,1.809 2.907,3.283 4.635,4.49c4.973,3.475 12.273,4.232 17.572,4.588c12.451,0.834 29.136,1.41 41.571,-2.75c5.23,-1.749 10.873,-4.232 14.241,-9.467c6.529,-10.151 3.492,-24.312 -6.237,-29.882c-4.528,-2.592 -13.7,-3.877 -18.568,-4.315c-9.721,-0.875 -23.849,-2.277 -33.983,-0.079Z" style="fill:#ececed;fill-opacity:0.5;"/><path d="M1529.16,21.445c-10.033,2.175 -31.158,11.481 -24.478,27.754c1.409,3.431 3.179,6.698 5.248,9.66c1.263,1.81 2.907,3.284 4.635,4.491c4.973,3.475 12.272,4.232 17.572,4.587c12.45,0.835 29.136,1.411 41.571,-2.749c5.23,-1.749 10.873,-4.232 14.24,-9.467c6.529,-10.151 3.492,-24.312 -6.237,-29.882c-4.528,-2.593 -13.699,-3.877 -18.568,-4.315c-9.72,-0.875 -23.849,-2.277 -33.983,-0.079Z" style="fill:#ececed;fill-opacity:0.5;"/><path d="M1745.57,476.192c-10.032,2.176 -31.158,11.482 -24.477,27.754c1.408,3.432 3.178,6.699 5.247,9.661c1.264,1.81 2.907,3.283 4.635,4.491c4.973,3.475 12.272,4.232 17.572,4.587c12.451,0.835 29.136,1.41 41.571,-2.749c5.23,-1.75 10.873,-4.232 14.24,-9.467c6.53,-10.152 3.493,-24.313 -6.237,-29.883c-4.528,-2.592 -13.699,-3.876 -18.568,-4.314c-9.72,-0.875 -23.849,-2.277 -33.983,-0.08Z" style="fill:#ececed;fill-opacity:0.5;"/><path d="M1317.12,-24.947c-10.033,2.176 -31.158,11.481 -24.478,27.754c1.409,3.431 3.179,6.699 5.248,9.661c1.263,1.809 2.907,3.283 4.635,4.49c4.973,3.475 12.272,4.232 17.572,4.588c12.45,0.834 29.136,1.41 41.571,-2.75c5.23,-1.749 10.873,-4.232 14.24,-9.467c6.529,-10.151 3.492,-24.312 -6.237,-29.882c-4.528,-2.592 -13.699,-3.877 -18.568,-4.315c-9.72,-0.875 -23.849,-2.277 -33.983,-0.079Z" style="fill:#ececed;fill-opacity:0.5;"/><path d="M1533.52,429.801c-10.032,2.175 -31.158,11.481 -24.477,27.754c1.408,3.431 3.178,6.698 5.247,9.66c1.264,1.81 2.907,3.284 4.635,4.491c4.973,3.475 12.272,4.232 17.572,4.587c12.451,0.835 29.136,1.41 41.571,-2.749c5.23,-1.75 10.873,-4.232 14.24,-9.467c6.53,-10.151 3.493,-24.312 -6.237,-29.882c-4.528,-2.593 -13.699,-3.877 -18.568,-4.315c-9.72,-0.875 -23.849,-2.277 -33.983,-0.079Z" style="fill:#ececed;fill-opacity:0.5;"/><path d="M382.351,81.811c-10.033,2.176 -31.159,11.481 -24.478,27.754c1.409,3.432 3.179,6.699 5.247,9.661c1.264,1.809 2.908,3.283 4.635,4.49c4.974,3.475 12.273,4.232 17.572,4.588c12.451,0.834 29.136,1.41 41.572,-2.75c5.229,-1.749 10.873,-4.232 14.24,-9.467c6.529,-10.151 3.492,-24.312 -6.237,-29.882c-4.528,-2.592 -13.699,-3.877 -18.568,-4.315c-9.72,-0.875 -23.849,-2.277 -33.983,-0.079Z" style="fill:#ececed;fill-opacity:0.5;"/><path d="M114.58,153.832c-10.033,2.175 -31.158,11.481 -24.478,27.754c1.409,3.431 3.179,6.698 5.247,9.66c1.264,1.81 2.908,3.284 4.636,4.491c4.973,3.475 12.272,4.232 17.572,4.587c12.45,0.835 29.136,1.41 41.571,-2.749c5.23,-1.75 10.873,-4.232 14.24,-9.467c6.529,-10.151 3.492,-24.312 -6.237,-29.882c-4.528,-2.593 -13.699,-3.877 -18.568,-4.315c-9.72,-0.875 -23.849,-2.277 -33.983,-0.079Z" style="fill:#ececed;fill-opacity:0.5;"/><path d="M884.984,261.16c-10.032,2.176 -31.158,11.481 -24.478,27.754c1.409,3.431 3.179,6.698 5.248,9.661c1.263,1.809 2.907,3.283 4.635,4.49c4.973,3.475 12.272,4.232 17.572,4.588c12.45,0.834 29.136,1.41 41.571,-2.75c5.23,-1.749 10.873,-4.232 14.24,-9.467c6.53,-10.151 3.493,-24.312 -6.237,-29.882c-4.528,-2.592 -13.699,-3.877 -18.568,-4.315c-9.72,-0.875 -23.849,-2.277 -33.983,-0.079Z" style="fill:#ececed;fill-opacity:0.5;"/><path d="M572.7,1013.47c16.721,-2.991 51.931,-15.786 40.796,-38.159c-2.348,-4.718 -5.297,-9.21 -8.745,-13.283c-2.106,-2.488 -4.845,-4.514 -7.725,-6.174c-8.289,-4.778 -20.454,-5.818 -29.287,-6.307c-20.751,-1.148 -48.559,-1.939 -69.285,3.78c-8.716,2.406 -18.121,5.819 -23.733,13.017c-10.882,13.957 -5.821,33.427 10.395,41.085c7.546,3.564 22.832,5.33 30.946,5.932c16.201,1.203 39.748,3.131 56.638,0.109Z" style="fill:#ececed;fill-opacity:0.5;"/><path d="M1188.44,1232.21c16.721,-2.991 51.931,-15.786 40.796,-38.159c-2.348,-4.718 -5.297,-9.21 -8.745,-13.283c-2.106,-2.488 -4.845,-4.514 -7.725,-6.174c-8.289,-4.778 -20.454,-5.818 -29.287,-6.307c-20.75,-1.148 -48.559,-1.939 -69.285,3.78c-8.716,2.405 -18.121,5.819 -23.733,13.017c-10.882,13.957 -5.821,33.427 10.395,41.085c7.547,3.564 22.832,5.33 30.946,5.932c16.201,1.203 39.749,3.131 56.638,0.109Z" style="fill:#ececed;fill-opacity:0.5;"/><path d="M104,1314.24c16.721,-2.991 51.93,-15.786 40.796,-38.159c-2.348,-4.718 -5.298,-9.21 -8.745,-13.283c-2.107,-2.488 -4.846,-4.514 -7.726,-6.174c-8.288,-4.778 -20.454,-5.818 -29.286,-6.307c-20.751,-1.148 -48.56,-1.939 -69.285,3.78c-8.716,2.406 -18.122,5.819 -23.734,13.017c-10.882,13.957 -5.82,33.427 10.395,41.085c7.547,3.564 22.832,5.33 30.947,5.932c16.2,1.203 39.748,3.131 56.638,0.109Z" style="fill:#ececed;fill-opacity:0.5;"/><path d="M171.284,969.132c16.721,-2.991 51.93,-15.786 40.796,-38.159c-2.348,-4.718 -5.297,-9.21 -8.745,-13.283c-2.106,-2.488 -4.846,-4.514 -7.725,-6.174c-8.289,-4.778 -20.454,-5.819 -29.287,-6.307c-20.751,-1.148 -48.559,-1.939 -69.285,3.78c-8.716,2.405 -18.121,5.819 -23.733,13.016c-10.882,13.957 -5.821,33.427 10.395,41.086c7.546,3.564 22.832,5.329 30.946,5.932c16.201,1.203 39.748,3.131 56.638,0.109Z" style="fill:#ececed;fill-opacity:0.5;"/><path d="M944.645,1333.31c16.721,-4.627 51.931,-24.416 40.796,-59.021c-2.348,-7.298 -5.297,-14.245 -8.745,-20.544c-2.106,-3.849 -4.845,-6.982 -7.725,-9.55c-8.289,-7.39 -20.454,-9 -29.287,-9.755c-20.75,-1.775 -48.559,-2.999 -69.285,5.847c-8.716,3.72 -18.121,8.999 -23.733,20.132c-10.882,21.587 -5.821,51.701 10.395,63.547c7.546,5.512 22.832,8.243 30.946,9.175c16.201,1.861 39.749,4.842 56.638,0.169Z" style="fill:#ececed;fill-opacity:0.5;"/><path d="M1218.34,977.49c16.721,-4.627 51.93,-24.416 40.796,-59.021c-2.348,-7.297 -5.298,-14.245 -8.746,-20.544c-2.106,-3.848 -4.845,-6.982 -7.725,-9.55c-8.288,-7.39 -20.454,-8.999 -29.287,-9.755c-20.75,-1.775 -48.559,-2.999 -69.285,5.847c-8.716,3.72 -18.121,9 -23.733,20.132c-10.882,21.588 -5.82,51.702 10.395,63.547c7.547,5.513 22.832,8.244 30.947,9.176c16.2,1.86 39.748,4.842 56.638,0.168Z" style="fill:#ececed;fill-opacity:0.5;"/><path d="M1695.52,1032.54c16.721,-4.627 51.93,-24.416 40.796,-59.021c-2.348,-7.297 -5.298,-14.245 -8.745,-20.544c-2.106,-3.848 -4.846,-6.982 -7.726,-9.55c-8.288,-7.39 -20.453,-8.999 -29.286,-9.755c-20.751,-1.775 -48.56,-2.999 -69.285,5.847c-8.716,3.72 -18.122,9 -23.733,20.132c-10.883,21.588 -5.821,51.702 10.395,63.547c7.546,5.512 22.831,8.244 30.946,9.176c16.2,1.86 39.748,4.841 56.638,0.168Z" style="fill:#ececed;fill-opacity:0.5;"/><path d="M1071.65,736.022c16.721,-2.189 51.93,-11.553 40.796,-27.926c-2.348,-3.452 -5.298,-6.74 -8.745,-9.72c-2.106,-1.821 -4.846,-3.304 -7.725,-4.518c-8.289,-3.497 -20.454,-4.259 -29.287,-4.616c-20.751,-0.84 -48.559,-1.419 -69.285,2.766c-8.716,1.761 -18.122,4.259 -23.733,9.526c-10.882,10.214 -5.821,24.462 10.395,30.067c7.546,2.608 22.831,3.9 30.946,4.341c16.2,0.88 39.748,2.291 56.638,0.08Z" style="fill:#ececed;fill-opacity:0.5;"/><path d="M698.537,1192.86c16.721,-2.992 51.931,-15.786 40.796,-38.16c-2.348,-4.718 -5.297,-9.21 -8.745,-13.282c-2.106,-2.489 -4.845,-4.515 -7.725,-6.175c-8.289,-4.778 -20.454,-5.818 -29.287,-6.307c-20.75,-1.148 -48.559,-1.939 -69.285,3.781c-8.716,2.405 -18.121,5.818 -23.733,13.016c-10.882,13.957 -5.821,33.427 10.395,41.085c7.546,3.564 22.832,5.33 30.946,5.933c16.201,1.203 39.748,3.13 56.638,0.109Z" style="fill:#ececed;fill-opacity:0.5;"/><path d="M308.164,1134.63c16.721,-3.821 51.93,-20.161 40.796,-48.734c-2.348,-6.026 -5.297,-11.763 -8.745,-16.964c-2.106,-3.178 -4.846,-5.765 -7.725,-7.885c-8.289,-6.102 -20.454,-7.431 -29.287,-8.055c-20.751,-1.466 -48.559,-2.476 -69.285,4.828c-8.716,3.071 -18.121,7.431 -23.733,16.623c-10.882,17.825 -5.821,42.69 10.395,52.471c7.546,4.552 22.832,6.807 30.946,7.577c16.201,1.536 39.748,3.998 56.638,0.139Z" style="fill:#ececed;fill-opacity:0.5;"/><path d="M1709.94,1328.62c16.721,-3.82 51.93,-20.16 40.796,-48.734c-2.348,-6.026 -5.298,-11.762 -8.745,-16.964c-2.106,-3.177 -4.846,-5.765 -7.726,-7.885c-8.288,-6.102 -20.453,-7.431 -29.286,-8.055c-20.751,-1.466 -48.56,-2.476 -69.285,4.828c-8.716,3.072 -18.122,7.431 -23.734,16.623c-10.882,17.825 -5.82,42.691 10.395,52.472c7.547,4.551 22.832,6.807 30.947,7.576c16.2,1.536 39.748,3.998 56.638,0.139Z" style="fill:#ececed;fill-opacity:0.5;"/><path d="M1419.47,858.286c14.702,-1.91 45.661,-10.081 35.871,-24.367c-2.065,-3.013 -4.659,-5.882 -7.69,-8.482c-1.852,-1.589 -4.26,-2.883 -6.793,-3.943c-7.287,-3.051 -17.984,-3.715 -25.75,-4.027c-18.246,-0.733 -42.697,-1.238 -60.921,2.414c-7.663,1.536 -15.933,3.715 -20.868,8.311c-9.568,8.913 -5.118,21.346 9.14,26.236c6.636,2.276 20.076,3.403 27.211,3.788c14.244,0.768 34.949,1.999 49.8,0.07Z" style="fill:#ececed;fill-opacity:0.5;"/><path d="M702.613,781.796c16.721,-2.992 51.93,-15.786 40.796,-38.159c-2.348,-4.719 -5.298,-9.211 -8.745,-13.283c-2.106,-2.488 -4.846,-4.514 -7.725,-6.174c-8.289,-4.778 -20.454,-5.819 -29.287,-6.308c-20.751,-1.147 -48.559,-1.938 -69.285,3.781c-8.716,2.405 -18.121,5.818 -23.733,13.016c-10.882,13.957 -5.821,33.427 10.395,41.085c7.546,3.564 22.831,5.33 30.946,5.933c16.2,1.203 39.748,3.13 56.638,0.109Z" style="fill:#ececed;fill-opacity:0.5;"/><path d="M1443.8,1076.2c16.721,-2.992 51.93,-15.786 40.796,-38.16c-2.348,-4.718 -5.298,-9.21 -8.745,-13.282c-2.107,-2.488 -4.846,-4.515 -7.726,-6.175c-8.288,-4.777 -20.454,-5.818 -29.286,-6.307c-20.751,-1.147 -48.56,-1.938 -69.285,3.781c-8.716,2.405 -18.122,5.818 -23.734,13.016c-10.882,13.957 -5.82,33.427 10.395,41.085c7.547,3.564 22.832,5.33 30.947,5.933c16.2,1.203 39.748,3.13 56.638,0.109Z" style="fill:#ececed;fill-opacity:0.5;"/><path d="M830.034,960.723c16.977,-3.852 52.724,-20.328 41.419,-49.138c-2.384,-6.075 -5.378,-11.86 -8.878,-17.104c-2.139,-3.204 -4.92,-5.813 -7.844,-7.951c-8.415,-6.152 -20.766,-7.492 -29.733,-8.121c-21.068,-1.478 -49.301,-2.497 -70.343,4.868c-8.849,3.097 -18.399,7.492 -24.096,16.761c-11.048,17.972 -5.909,43.044 10.554,52.905c7.661,4.59 23.18,6.863 31.419,7.639c16.447,1.549 40.355,4.032 57.502,0.141Z" style="fill:#ececed;fill-opacity:0.5;"/><path d="M465.264,598.192c10.032,-2.176 31.158,-11.481 24.477,-27.754c-1.408,-3.431 -3.178,-6.699 -5.247,-9.661c-1.263,-1.809 -2.907,-3.283 -4.635,-4.49c-4.973,-3.475 -12.272,-4.232 -17.572,-4.588c-12.451,-0.834 -29.136,-1.41 -41.571,2.75c-5.23,1.749 -10.873,4.232 -14.24,9.467c-6.53,10.151 -3.493,24.312 6.237,29.882c4.528,2.592 13.699,3.877 18.568,4.315c9.72,0.875 23.849,2.277 33.983,0.079Z" style="fill:#ececed;fill-opacity:0.5;"/><path d="M402.172,1292.37c10.032,-2.176 31.158,-11.482 24.477,-27.754c-1.408,-3.432 -3.178,-6.699 -5.247,-9.661c-1.263,-1.81 -2.907,-3.283 -4.635,-4.491c-4.973,-3.475 -12.272,-4.232 -17.572,-4.587c-12.45,-0.835 -29.136,-1.41 -41.571,2.75c-5.23,1.749 -10.873,4.232 -14.24,9.467c-6.53,10.151 -3.493,24.312 6.237,29.882c4.528,2.592 13.699,3.876 18.568,4.315c9.72,0.875 23.849,2.277 33.983,0.079Z" style="fill:#ececed;fill-opacity:0.5;"/><path d="M1548.98,1232.01c10.033,-2.176 31.158,-11.482 24.478,-27.754c-1.409,-3.432 -3.179,-6.699 -5.247,-9.661c-1.264,-1.81 -2.908,-3.283 -4.636,-4.491c-4.973,-3.475 -12.272,-4.232 -17.572,-4.587c-12.45,-0.835 -29.135,-1.41 -41.571,2.749c-5.23,1.75 -10.873,4.232 -14.24,9.467c-6.529,10.152 -3.492,24.312 6.237,29.883c4.528,2.592 13.699,3.876 18.568,4.314c9.72,0.875 23.849,2.277 33.983,0.08Z" style="fill:#ececed;fill-opacity:0.5;"/><path d="M1046.35,1052.66c10.032,-2.176 31.158,-11.482 24.477,-27.754c-1.409,-3.432 -3.178,-6.699 -5.247,-9.661c-1.264,-1.81 -2.907,-3.283 -4.635,-4.491c-4.973,-3.475 -12.272,-4.232 -17.572,-4.587c-12.451,-0.835 -29.136,-1.41 -41.571,2.75c-5.23,1.749 -10.873,4.232 -14.24,9.466c-6.53,10.152 -3.493,24.313 6.237,29.883c4.528,2.592 13.699,3.876 18.568,4.314c9.72,0.875 23.849,2.277 33.983,0.08Z" style="fill:#ececed;fill-opacity:0.5;"/><path d="M1938.18,1151.14c3.877,0.11 -33.028,0.356 -43.497,2.259c-33.558,6.102 -76.954,11.157 -108.099,-7.801c-71.707,-43.647 -95.872,-151.082 -125.929,-226.226c-23.772,-59.431 -55.459,-137.53 -61.293,-201.71c-1.301,-14.303 3.343,-28.156 3.343,-42.348c0,-103.767 23.626,-213.299 -10.03,-314.266c-11.36,-34.079 -35.464,-67.807 -62.407,-91.382c-37.071,-32.437 -139.464,-63.6 -187.222,-45.691c-28.477,10.679 -51.197,39.113 -70.209,61.293c-97.191,113.389 -36.346,278.348 22.289,395.618c14.346,28.692 39.13,53.248 57.949,79.124c32.751,45.032 71.623,81.951 96.955,132.616c32.299,64.598 14.656,135.19 -27.861,188.336c-12.522,15.653 -23.043,36.514 -43.462,42.348c-129.495,36.999 -197.171,0.392 -286.405,-96.954c-33.486,-36.53 -70.875,-84.913 -88.039,-131.502c-27.182,-73.78 -94.292,-203.386 23.402,-239.599c50.996,-15.691 110.218,18.955 150.447,46.805c11.55,7.997 18.197,21.271 28.975,30.089c84.467,69.11 146.697,287.262 52.377,371.102c-30.603,27.202 -92.604,41.498 -132.615,44.576c-171.178,13.168 -278.928,-119.922 -296.436,-277.49c-5.897,-53.078 1.04,-107.581 -5.572,-160.476c-0.958,-7.663 -37.675,-64.456 -39.736,-71.92c-32.466,-117.616 -231,2.237 -239.042,18.321" style="fill:none;stroke:#000;stroke-opacity:0.5;stroke-width:12.71px;stroke-dasharray:23.95,60.2,0,0;stroke-dashoffset:506.79;"/></g></svg>