<?xml version="1.0" encoding="UTF-8" standalone="no"?><!DOCTYPE svg PUBLIC "-//W3C//DTD SVG 1.1//EN" "http://www.w3.org/Graphics/SVG/1.1/DTD/svg11.dtd"><svg width="100%" height="100%" viewBox="0 0 1876 1276" version="1.1" xmlns="http://www.w3.org/2000/svg" xmlns:xlink="http://www.w3.org/1999/xlink" xml:space="preserve" xmlns:serif="http://www.serif.com/" style="fill-rule:evenodd;clip-rule:evenodd;stroke-linejoin:round;stroke-miterlimit:2;"><path id="postcard-border" d="M1875.35,1275.13l-0,-1275l-1875,0l-0,1275l1875,0Z" style="fill:none;"/><clipPath id="_clip1"><path d="M1875.35,1275.13l-0,-1275l-1875,0l-0,1275l1875,0Z"/></clipPath><g clip-path="url(#_clip1)"><g><g><path d="M208.937,42.798l-40.657,-42.668l-83.996,0l40.216,42.668l84.437,-0Z" style="fill:#c32126;"/><path d="M384.768,42.798l-40.658,-42.668l-83.995,0l40.216,42.668l84.437,-0Z" style="fill:#c32126;"/><path d="M384.768,42.798l-84.437,-0l-40.216,-42.668l83.995,0l40.658,42.668Z" style="fill:#4659a8;"/><path d="M560.599,42.798l-40.658,-42.668l-83.996,0l40.217,42.668l84.437,-0Z" style="fill:#c32126;"/><path d="M736.429,42.798l-40.657,-42.668l-83.996,0l40.216,42.668l84.437,-0Z" style="fill:#c32126;"/><path d="M736.429,42.798l-84.437,-0l-40.216,-42.668l83.996,0l40.657,42.668Z" style="fill:#4659a8;"/><path d="M912.26,42.798l-40.657,-42.668l-83.996,0l40.216,42.668l84.437,-0Z" style="fill:#c32126;"/><path d="M1088.09,42.798l-40.658,-42.668l-83.996,0l40.217,42.668l84.437,-0Z" style="fill:#c32126;"/><path d="M1088.09,42.798l-84.437,-0l-40.217,-42.668l83.996,0l40.658,42.668Z" style="fill:#4659a8;"/><path d="M1263.92,42.798l-40.657,-42.668l-83.996,0l40.217,42.668l84.436,-0Z" style="fill:#c32126;"/><path d="M1439.75,42.798l-40.657,-42.668l-83.996,0l40.216,42.668l84.437,-0Z" style="fill:#c32126;"/><path d="M1439.75,42.798l-84.437,-0l-40.216,-42.668l83.996,0l40.657,42.668Z" style="fill:#4659a8;"/><path d="M1791.41,42.798l-40.658,-42.668l-83.996,0l40.217,42.668l84.437,-0Z" style="fill:#c32126;"/><path d="M1791.41,42.798l-84.437,-0l-40.217,-42.668l83.996,0l40.658,42.668Z" style="fill:#4659a8;"/><path d="M1615.58,42.798l-40.658,-42.668l-83.995,0l40.216,42.668l84.437,-0Z" style="fill:#c32126;"/></g><path d="M1875.35,50.071l-42.668,40.657l0,83.996l42.668,-40.216l-0,-84.437Z" style="fill:#c32126;"/><path d="M1875.35,380.471l-42.668,40.658l0,83.996l42.668,-40.217l-0,-84.437Z" style="fill:#c32126;"/><path d="M1875.35,710.872l-42.668,40.657l0,83.996l42.668,-40.216l-0,-84.437Z" style="fill:#c32126;"/><path d="M1875.35,1041.27l-42.668,40.658l0,83.996l42.668,-40.217l-0,-84.437Z" style="fill:#c32126;"/><path d="M1875.35,1041.27l-0,84.437l-42.668,40.217l0,-83.996l42.668,-40.658Z" style="fill:#c32126;"/><path d="M1875.35,215.271l-42.668,40.658l0,83.995l42.668,-40.216l-0,-84.437Z" style="fill:#c32126;"/><path d="M1875.35,215.271l-0,84.437l-42.668,40.216l0,-83.995l42.668,-40.658Z" style="fill:#4659a8;"/><path d="M1875.35,545.672l-42.668,40.657l0,83.996l42.668,-40.216l-0,-84.437Z" style="fill:#c32126;"/><path d="M1875.35,545.672l-0,84.437l-42.668,40.216l0,-83.996l42.668,-40.657Z" style="fill:#4659a8;"/><path d="M1875.35,876.072l-42.668,40.658l0,83.995l42.668,-40.216l-0,-84.437Z" style="fill:#c32126;"/><path d="M1875.35,876.072l-0,84.437l-42.668,40.216l0,-83.995l42.668,-40.658Z" style="fill:#4659a8;"/><g><path d="M1666.76,1232.46l40.658,42.667l83.996,0l-40.217,-42.667l-84.437,-0Z" style="fill:#c32126;"/><path d="M1490.93,1232.46l40.657,42.667l83.996,0l-40.217,-42.667l-84.436,-0Z" style="fill:#c32126;"/><path d="M1490.93,1232.46l84.436,-0l40.217,42.667l-83.996,0l-40.657,-42.667Z" style="fill:#4659a8;"/><path d="M1315.1,1232.46l40.657,42.667l83.996,0l-40.216,-42.667l-84.437,-0Z" style="fill:#c32126;"/><path d="M1139.27,1232.46l40.658,42.667l83.995,0l-40.216,-42.667l-84.437,-0Z" style="fill:#c32126;"/><path d="M1139.27,1232.46l84.437,-0l40.216,42.667l-83.995,0l-40.658,-42.667Z" style="fill:#4659a8;"/><path d="M963.437,1232.46l40.658,42.667l83.996,0l-40.217,-42.667l-84.437,-0Z" style="fill:#c32126;"/><path d="M787.607,1232.46l40.657,42.667l83.996,0l-40.216,-42.667l-84.437,-0Z" style="fill:#c32126;"/><path d="M787.607,1232.46l84.437,-0l40.216,42.667l-83.996,0l-40.657,-42.667Z" style="fill:#4659a8;"/><path d="M611.776,1232.46l40.657,42.667l83.996,0l-40.216,-42.667l-84.437,-0Z" style="fill:#c32126;"/><path d="M435.945,1232.46l40.658,42.667l83.996,0l-40.217,-42.667l-84.437,-0Z" style="fill:#c32126;"/><path d="M435.945,1232.46l84.437,-0l40.217,42.667l-83.996,0l-40.658,-42.667Z" style="fill:#4659a8;"/><path d="M84.284,1232.46l40.657,42.667l83.996,0l-40.216,-42.667l-84.437,-0Z" style="fill:#c32126;"/><path d="M84.284,1232.46l84.437,-0l40.216,42.667l-83.996,0l-40.657,-42.667Z" style="fill:#4659a8;"/><path d="M260.115,1232.46l40.657,42.667l83.996,0l-40.217,-42.667l-84.436,-0Z" style="fill:#c32126;"/></g><path d="M0.349,1225.19l42.667,-40.658l0,-83.996l-42.667,40.217l-0,84.437Z" style="fill:#c32126;"/><path d="M0.349,894.789l42.667,-40.657l0,-83.996l-42.667,40.216l-0,84.437Z" style="fill:#c32126;"/><path d="M0.349,564.389l42.667,-40.658l0,-83.996l-42.667,40.217l-0,84.437Z" style="fill:#c32126;"/><path d="M0.349,233.988l42.667,-40.657l0,-83.996l-42.667,40.216l-0,84.437Z" style="fill:#c32126;"/><path d="M0.349,233.988l-0,-84.437l42.667,-40.216l0,83.996l-42.667,40.657Z" style="fill:#c32126;"/><path d="M0.349,1059.99l42.667,-40.657l0,-83.996l-42.667,40.217l-0,84.436Z" style="fill:#c32126;"/><path d="M0.349,1059.99l-0,-84.436l42.667,-40.217l0,83.996l-42.667,40.657Z" style="fill:#4659a8;"/><path d="M0.349,729.589l42.667,-40.658l0,-83.995l-42.667,40.216l-0,84.437Z" style="fill:#c32126;"/><path d="M0.349,729.589l-0,-84.437l42.667,-40.216l0,83.995l-42.667,40.658Z" style="fill:#4659a8;"/><path d="M0.349,399.188l42.667,-40.657l0,-83.996l-42.667,40.217l-0,84.436Z" style="fill:#c32126;"/><path d="M0.349,399.188l-0,-84.436l42.667,-40.217l0,83.996l-42.667,40.657Z" style="fill:#4659a8;"/></g></g></svg>