<?xml version="1.0" encoding="UTF-8" standalone="no"?><!DOCTYPE svg PUBLIC "-//W3C//DTD SVG 1.1//EN" "http://www.w3.org/Graphics/SVG/1.1/DTD/svg11.dtd"><svg width="100%" height="100%" viewBox="0 0 1001 1001" version="1.1" xmlns="http://www.w3.org/2000/svg" xmlns:xlink="http://www.w3.org/1999/xlink" xml:space="preserve" xmlns:serif="http://www.serif.com/" style="fill-rule:evenodd;clip-rule:evenodd;stroke-linecap:round;stroke-linejoin:round;stroke-miterlimit:1.5;"><rect id="progress" x="0.149" y="0.925" width="1000" height="1000" style="fill:none;"/><clipPath id="_clip1"><rect x="0.149" y="0.925" width="1000" height="1000"/></clipPath><g clip-path="url(#_clip1)"><path d="M783.67,368.312c-5.166,-0.452 -9.13,-4.779 -9.128,-9.965c-0.09,-49.75 -18.573,-92.016 -87.666,-113.666c-4.163,-1.304 -6.997,-5.161 -6.997,-9.524c-0.02,-11.263 -0.02,-32.652 -0.02,-45.262c0,-5.523 -4.477,-10 -10,-10c-13.305,0 -36.606,0 -49.174,0c-4.953,0 -9.159,3.626 -9.89,8.525c-1.287,8.623 -3.272,21.933 -4.616,30.938c-0.797,5.344 -5.697,9.088 -11.064,8.454c-166.183,-19.49 -263.553,29.544 -299.885,139.354c-1.029,3.122 -3.53,5.538 -6.686,6.459c-3.156,0.921 -6.563,0.231 -9.111,-1.847c-4.518,-3.669 -9.328,-7.592 -12.386,-10.085c-2.016,-1.644 -3.312,-4.01 -3.613,-6.594c-16.195,-137.22 -187.121,-72.76 -79.459,30.351c0.129,0.123 0.26,0.243 0.395,0.359c28.34,24.371 61.938,35.134 99.773,34.932c5.417,-0.045 9.881,4.238 10.061,9.652c0.707,22.883 8.495,42.902 30.993,56.954c2.273,1.43 3.87,3.72 4.425,6.347c0.555,2.628 0.022,5.368 -1.478,7.595c-9.839,14.748 -29.127,43.395 -36.917,54.964c-2.08,3.089 -2.271,7.078 -0.495,10.351c5.515,10.172 17.563,32.39 23.916,44.106c2.361,4.355 7.555,6.325 12.211,4.63c23.462,-8.54 90.734,-33.027 105.605,-38.439c1.9,-0.692 3.966,-0.791 5.924,-0.284c55.414,14.189 111.037,6.635 166.738,-9.226c2.309,-0.659 4.778,-0.466 6.956,0.544c15.222,7.061 77.375,35.895 95.673,44.384c3.162,1.467 6.86,1.181 9.759,-0.754c9.611,-6.413 31.826,-21.237 45.179,-30.148c2.572,-1.716 4.206,-4.525 4.425,-7.609c0.219,-3.084 -1.001,-6.096 -3.304,-8.159c-11.762,-10.532 -31.2,-27.939 -40.029,-35.845c-2.83,-2.534 -3.98,-6.453 -2.968,-10.114c0.593,-2.145 1.255,-4.538 1.821,-6.585c0.853,-3.086 3.131,-5.576 6.129,-6.7c60.308,-22.779 99.618,-63.143 119.15,-120.066c0.98,-2.9 0.575,-6.09 -1.099,-8.652c-1.675,-2.563 -4.433,-4.215 -7.482,-4.481c-15.508,-1.381 -41.762,-3.678 -55.666,-4.894Z" style="fill:#74664b;"/><clipPath id="_clip2"><path d="M783.67,368.312c-5.166,-0.452 -9.13,-4.779 -9.128,-9.965c-0.09,-49.75 -18.573,-92.016 -87.666,-113.666c-4.163,-1.304 -6.997,-5.161 -6.997,-9.524c-0.02,-11.263 -0.02,-32.652 -0.02,-45.262c0,-5.523 -4.477,-10 -10,-10c-13.305,0 -36.606,0 -49.174,0c-4.953,0 -9.159,3.626 -9.89,8.525c-1.287,8.623 -3.272,21.933 -4.616,30.938c-0.797,5.344 -5.697,9.088 -11.064,8.454c-166.183,-19.49 -263.553,29.544 -299.885,139.354c-1.029,3.122 -3.53,5.538 -6.686,6.459c-3.156,0.921 -6.563,0.231 -9.111,-1.847c-4.518,-3.669 -9.328,-7.592 -12.386,-10.085c-2.016,-1.644 -3.312,-4.01 -3.613,-6.594c-16.195,-137.22 -187.121,-72.76 -79.459,30.351c0.129,0.123 0.26,0.243 0.395,0.359c28.34,24.371 61.938,35.134 99.773,34.932c5.417,-0.045 9.881,4.238 10.061,9.652c0.707,22.883 8.495,42.902 30.993,56.954c2.273,1.43 3.87,3.72 4.425,6.347c0.555,2.628 0.022,5.368 -1.478,7.595c-9.839,14.748 -29.127,43.395 -36.917,54.964c-2.08,3.089 -2.271,7.078 -0.495,10.351c5.515,10.172 17.563,32.39 23.916,44.106c2.361,4.355 7.555,6.325 12.211,4.63c23.462,-8.54 90.734,-33.027 105.605,-38.439c1.9,-0.692 3.966,-0.791 5.924,-0.284c55.414,14.189 111.037,6.635 166.738,-9.226c2.309,-0.659 4.778,-0.466 6.956,0.544c15.222,7.061 77.375,35.895 95.673,44.384c3.162,1.467 6.86,1.181 9.759,-0.754c9.611,-6.413 31.826,-21.237 45.179,-30.148c2.572,-1.716 4.206,-4.525 4.425,-7.609c0.219,-3.084 -1.001,-6.096 -3.304,-8.159c-11.762,-10.532 -31.2,-27.939 -40.029,-35.845c-2.83,-2.534 -3.98,-6.453 -2.968,-10.114c0.593,-2.145 1.255,-4.538 1.821,-6.585c0.853,-3.086 3.131,-5.576 6.129,-6.7c60.308,-22.779 99.618,-63.143 119.15,-120.066c0.98,-2.9 0.575,-6.09 -1.099,-8.652c-1.675,-2.563 -4.433,-4.215 -7.482,-4.481c-15.508,-1.381 -41.762,-3.678 -55.666,-4.894Z"/></clipPath><g clip-path="url(#_clip2)"><path d="M148.653,323.074c6.832,61.611 76.38,-10.659 115.215,36.026c-10.327,-110.4 -117.915,-96.379 -115.215,-36.026" style="fill:#ffce7f;"/><path d="M774.387,367.5c-0.836,21.123 -11.962,37.495 -27.12,47.479c-23.888,15.718 -55.962,9.415 -72.126,-14.174c-16.163,-23.588 -10.463,-55.775 12.818,-72.378c18.19,-12.88 43.466,-19.699 78.763,-17.948c6.618,17.352 8.471,36.645 7.665,57.021Zm-43.354,-13.008c-9.862,-0 -17.868,8.006 -17.868,17.867c-0,9.862 8.006,17.868 17.868,17.868c9.861,0 17.868,-8.006 17.868,-17.868c-0,-9.861 -8.007,-17.867 -17.868,-17.867Z" style="fill:#ffce7f;"/></g><path d="M649.981,205.615l-0,26.326" style="fill:none;stroke:#918b8d;stroke-width:25px;"/><circle cx="509.408" cy="971.262" r="339.188" style="fill:#b9c7fe;"/><clipPath id="_clip3"><circle cx="509.408" cy="971.262" r="339.188"/></clipPath><g clip-path="url(#_clip3)"><path d="M422.079,701.894c-0,-0 31.738,12.634 34.91,33.04c3.172,20.407 103.699,-30.149 129.047,3.065c25.349,33.213 -118.133,67.843 -135.471,60.662c-17.338,-7.181 51.816,3.329 47.958,24.826c-3.858,21.497 -96.341,80.577 -166.633,12.365c-32.568,-31.604 -121.383,46.531 -143.187,42.925c-21.804,-3.606 -18.483,-125.118 -18.483,-125.118l184.695,-121.584l98.169,-0c-0,-0 6.463,29.505 -31.005,69.819Z" style="fill:#5ece9b;"/><path d="M589.03,971.262c-0,0 -53.311,71.414 -72.346,0c-19.036,-71.414 39.772,-62.213 39.772,-62.213c-0,-0 -25.717,-60.774 32.574,-58.408c58.291,2.365 15.04,-35.47 66.735,11.958c9.305,8.536 41.255,1.609 45.444,26.454c4.19,24.846 -51.208,47.019 -51.208,47.019l21.263,56.233l-82.234,-21.043Z" style="fill:#5ece9b;"/><path d="M759.652,783.208c-0,0 -83.031,64.418 -11.981,123.452c26.385,21.924 53.358,-43.424 53.358,-43.424l47.413,39.607l14.444,-125.08l-108.318,-71.902l5.084,77.347Z" style="fill:#5ece9b;"/></g></g></svg>