<?xml version="1.0" encoding="UTF-8" standalone="no"?><!DOCTYPE svg PUBLIC "-//W3C//DTD SVG 1.1//EN" "http://www.w3.org/Graphics/SVG/1.1/DTD/svg11.dtd"><svg width="100%" height="100%" viewBox="0 0 1001 1000" version="1.1" xmlns="http://www.w3.org/2000/svg" xmlns:xlink="http://www.w3.org/1999/xlink" xml:space="preserve" xmlns:serif="http://www.serif.com/" style="fill-rule:evenodd;clip-rule:evenodd;stroke-linecap:round;stroke-linejoin:round;stroke-miterlimit:1.5;"><rect id="progress" x="0.246" y="0" width="1000" height="1000" style="fill:none;"/><g><path d="M331.483,323.492l0,39.227c0,10.825 -8.788,19.614 -19.613,19.614l-83.548,-0c-10.825,-0 -19.614,-8.789 -19.614,-19.614l0,-39.227c0,-10.825 8.789,-19.614 19.614,-19.614l83.548,0c10.825,0 19.613,8.789 19.613,19.614Z" style="fill:#ef7acd;"/><path d="M640.695,350.269l87.433,0c55.146,0 99.918,44.772 99.918,99.919l-0,199.836c-0,55.147 -44.772,99.919 -99.918,99.919l-455.763,-0c-55.147,-0 -99.918,-44.772 -99.918,-99.919l-0,-199.836c-0,-55.147 44.771,-99.919 99.918,-99.919l95.162,0l-0,-81.827c-0,-10.147 8.237,-18.385 18.384,-18.385l236.399,0c10.147,0 18.385,8.238 18.385,18.385l-0,81.827Z" style="fill:#55443a;"/><path d="M556.967,314.725l-0,30.277c-0,8.356 -6.784,15.139 -15.139,15.139l-73.815,0c-8.355,0 -15.138,-6.783 -15.138,-15.139l-0,-30.277c-0,-8.355 6.783,-15.139 15.138,-15.139l73.815,0c8.355,0 15.139,6.784 15.139,15.139Z" style="fill:#fff;"/><ellipse cx="504.921" cy="554.534" rx="155.055" ry="156.033" style="fill:#fff;"/><g><circle cx="504.921" cy="554.534" r="109.31" style="fill:#9c6ce7;"/><path d="M500.246,477.529c0,-0 38.024,-5.053 68.918,49.638" style="fill:none;stroke:#fff;stroke-width:29.17px;"/><circle cx="577.905" cy="564.241" r="20.386" style="fill:#fff;"/></g></g></svg>