<?xml version="1.0" encoding="UTF-8" standalone="no"?><!DOCTYPE svg PUBLIC "-//W3C//DTD SVG 1.1//EN" "http://www.w3.org/Graphics/SVG/1.1/DTD/svg11.dtd"><svg width="100%" height="100%" viewBox="0 0 1001 1001" version="1.1" xmlns="http://www.w3.org/2000/svg" xmlns:xlink="http://www.w3.org/1999/xlink" xml:space="preserve" xmlns:serif="http://www.serif.com/" style="fill-rule:evenodd;clip-rule:evenodd;stroke-linecap:round;stroke-linejoin:round;stroke-miterlimit:1.5;"><rect id="resources" x="0.149" y="0.857" width="1000" height="1000" style="fill:none;"/><path d="M513.982,191.765l-27.667,97.732" style="fill:none;stroke:#ffce7f;stroke-width:41.67px;"/><g><path d="M524.628,408.291l256.558,57.954c52.286,55.418 98.983,78.313 126.735,-9.028c-120.016,23.59 32.76,-313.813 -178.675,-194.46c-97.395,-51.217 -247.198,39.074 -204.618,145.534Z" style="fill:#74664b;"/><path d="M511.687,443.893c1.286,0.247 2.172,1.435 2.04,2.738c-4.896,48.797 19.083,69.671 53.353,79.766c0.023,0.007 0.045,0.013 0.068,0.019c2.121,0.561 101.68,26.9 105.862,28.006c0.091,0.024 0.183,0.043 0.275,0.057c53.58,7.961 84.303,-6.935 99.736,-37.12c0.557,-1.099 1.825,-1.637 3.002,-1.274c74.575,22.897 67.81,-97.586 9.418,-50.007c-0.787,0.635 -1.878,0.738 -2.77,0.263c-0.892,-0.476 -1.415,-1.439 -1.327,-2.446c1.3,-15.031 4.585,-52.748 5.431,-62.461c0.114,-1.307 -0.79,-2.485 -2.082,-2.713c-10.808,-1.91 -56.712,-10.023 -66.635,-11.777c-1.121,-0.198 -1.972,-1.119 -2.08,-2.252c-0.486,-5.064 -1.839,-19.166 -2.892,-30.145c-0.117,-1.223 -1.096,-2.186 -2.322,-2.283c-1.225,-0.096 -2.343,0.701 -2.651,1.891c-2.598,10.051 -5.875,22.731 -7.22,27.934c-0.344,1.331 -1.688,2.145 -3.027,1.833c-11.083,-2.583 -57.122,-13.312 -68.371,-15.933c-0.658,-0.153 -1.228,-0.563 -1.582,-1.138c-0.354,-0.575 -0.464,-1.268 -0.305,-1.925c1.259,-5.198 4.274,-17.653 6.926,-28.603c0.3,-1.241 -0.37,-2.511 -1.564,-2.964c-1.194,-0.453 -2.538,0.054 -3.136,1.183c-5.76,10.873 -12.461,23.522 -14.862,28.056c-0.539,1.016 -1.695,1.542 -2.815,1.28c-8.954,-2.094 -46.884,-10.964 -56.207,-13.144c-1.2,-0.281 -2.428,0.343 -2.909,1.478c-3.375,7.964 -16.119,38.039 -21.486,50.705c-0.856,2.023 -2.958,3.225 -5.136,2.939c-2.179,-0.286 -3.898,-1.991 -4.203,-4.167c-0.385,-2.769 -0.08,-6.418 0.996,-11.041c0.81,-3.701 -1.298,-7.417 -4.89,-8.622c-52.265,-17.783 -61.995,51.108 -6.635,61.867Z" style="fill:#f7f5e6;"/><circle cx="602.529" cy="408.594" r="18.828" style="fill:#74664b;"/><circle cx="719.183" cy="438.71" r="18.828" style="fill:#74664b;"/><path d="M621.357,465.604c-9.106,28.87 43.301,51.679 66.419,16.658" style="fill:none;stroke:#654f3e;stroke-width:20.83px;"/></g><g><path d="M239.883,737.117l246.231,-77.316c73.118,21.417 -25.054,-203.545 -170.823,-165.398c-105.18,27.525 -167.07,194.776 -75.408,242.714Z" style="fill:#74664b;"/><path d="M242.233,776.642c1.235,-0.437 2.599,0.141 3.144,1.332c20.423,44.587 51.662,50.49 86.338,41.892c0.023,-0.006 0.046,-0.012 0.068,-0.018c2.115,-0.588 101.343,-28.146 105.511,-29.304c0.09,-0.025 0.179,-0.055 0.266,-0.09c50.263,-20.194 69.254,-48.568 67.326,-82.415c-0.075,-1.23 0.748,-2.335 1.947,-2.616c75.928,-17.909 9.23,-118.474 -17.131,-47.915c-0.359,0.945 -1.248,1.585 -2.258,1.625c-1.011,0.041 -1.948,-0.526 -2.381,-1.44c-6.471,-13.629 -22.687,-47.84 -26.863,-56.65c-0.563,-1.186 -1.938,-1.746 -3.168,-1.29c-10.293,3.811 -54.007,19.997 -63.457,23.496c-1.068,0.395 -2.267,0.03 -2.933,-0.893c-2.978,-4.126 -11.269,-15.613 -17.723,-24.556c-0.719,-0.997 -2.051,-1.333 -3.157,-0.798c-1.107,0.536 -1.669,1.789 -1.333,2.971c2.835,9.987 6.411,22.586 7.879,27.756c0.375,1.322 -0.373,2.703 -1.687,3.11c-10.869,3.369 -56.023,17.366 -67.056,20.786c-0.645,0.2 -1.343,0.134 -1.939,-0.184c-0.597,-0.317 -1.041,-0.859 -1.236,-1.506c-1.539,-5.122 -5.228,-17.395 -8.471,-28.184c-0.368,-1.223 -1.588,-1.981 -2.847,-1.769c-1.259,0.213 -2.163,1.329 -2.109,2.605c0.522,12.294 1.128,26.595 1.345,31.721c0.049,1.149 -0.683,2.187 -1.782,2.527c-8.786,2.716 -46.001,14.22 -55.149,17.047c-1.178,0.364 -1.922,1.523 -1.764,2.745c0.909,7.018 3.88,29.973 5.898,45.562c0.418,3.221 -1.683,6.231 -4.851,6.948c-3.168,0.717 -6.361,-1.095 -7.37,-4.182c-0.015,-0.118 -0.049,-0.231 -0.084,-0.344c-1.098,-3.44 -4.61,-5.501 -8.149,-4.784c-54.551,10.846 -28.15,75.532 25.176,56.815Z" style="fill:#f7f5e6;"/><path d="M293.294,684.041c8.968,-5.249 20.51,-2.23 25.759,6.739c5.249,8.968 2.23,20.51 -6.739,25.759c-8.968,5.249 -20.51,2.23 -25.759,-6.738c-5.249,-8.969 -2.23,-20.511 6.739,-25.76Z" style="fill:#74664b;"/><path d="M409.184,651.107c8.968,-5.249 20.51,-2.229 25.759,6.739c5.249,8.968 2.23,20.51 -6.739,25.759c-8.968,5.249 -20.51,2.23 -25.759,-6.738c-5.249,-8.969 -2.23,-20.511 6.739,-25.76Z" style="fill:#74664b;"/><path d="M347.85,739.981c6.724,29.517 63.476,22.729 65.737,-19.173" style="fill:none;stroke:#654f3e;stroke-width:20.83px;"/></g><path d="M412.768,165.609l-0,101.572" style="fill:none;stroke:#ffce7f;stroke-width:41.67px;"/><path d="M279.415,197.492l53.601,86.278" style="fill:none;stroke:#ffce7f;stroke-width:41.67px;"/><path d="M202.925,292.097l89.444,48.132" style="fill:none;stroke:#ffce7f;stroke-width:41.67px;"/><path d="M153.03,399.124l99.791,18.94" style="fill:none;stroke:#ffce7f;stroke-width:41.67px;"/></svg>