<?xml version="1.0" encoding="UTF-8" standalone="no"?><!DOCTYPE svg PUBLIC "-//W3C//DTD SVG 1.1//EN" "http://www.w3.org/Graphics/SVG/1.1/DTD/svg11.dtd"><svg width="100%" height="100%" viewBox="0 0 1000 1000" version="1.1" xmlns="http://www.w3.org/2000/svg" xmlns:xlink="http://www.w3.org/1999/xlink" xml:space="preserve" xmlns:serif="http://www.serif.com/" style="fill-rule:evenodd;clip-rule:evenodd;stroke-linecap:round;stroke-linejoin:round;stroke-miterlimit:1.5;"><rect id="resources" x="0" y="0" width="1000" height="1000" style="fill:none;"/><path d="M513.834,190.908l-27.668,97.732" style="fill:none;stroke:#ffce7f;stroke-width:41.67px;"/><g><path d="M524.479,407.435l256.559,57.954c52.286,55.417 98.982,78.312 126.734,-9.029c-120.015,23.59 32.761,-313.813 -178.674,-194.46c-97.396,-51.217 -247.199,39.074 -204.619,145.535Z" style="fill:#654f3e;"/><path d="M511.538,443.036c1.287,0.247 2.172,1.435 2.041,2.738c-4.897,48.797 19.083,69.671 53.352,79.766c0.023,0.007 0.046,0.013 0.068,0.019c2.122,0.561 101.681,26.9 105.863,28.006c0.09,0.024 0.182,0.043 0.275,0.057c53.579,7.961 84.302,-6.935 99.736,-37.12c0.556,-1.099 1.824,-1.637 3.002,-1.274c74.574,22.897 67.81,-97.586 9.417,-50.007c-0.787,0.635 -1.877,0.738 -2.77,0.263c-0.892,-0.476 -1.414,-1.438 -1.327,-2.446c1.3,-15.031 4.585,-52.748 5.431,-62.46c0.114,-1.308 -0.79,-2.486 -2.082,-2.714c-10.808,-1.91 -56.711,-10.023 -66.635,-11.776c-1.12,-0.198 -1.971,-1.12 -2.08,-2.253c-0.486,-5.064 -1.838,-19.166 -2.891,-30.145c-0.118,-1.223 -1.097,-2.186 -2.322,-2.283c-1.226,-0.096 -2.344,0.701 -2.651,1.891c-2.598,10.051 -5.876,22.731 -7.221,27.934c-0.344,1.331 -1.687,2.145 -3.026,1.833c-11.083,-2.583 -57.123,-13.312 -68.372,-15.933c-0.658,-0.153 -1.227,-0.563 -1.581,-1.138c-0.355,-0.575 -0.465,-1.268 -0.306,-1.924c1.259,-5.199 4.275,-17.654 6.926,-28.604c0.3,-1.241 -0.37,-2.511 -1.564,-2.964c-1.194,-0.453 -2.538,0.054 -3.135,1.183c-5.76,10.873 -12.461,23.523 -14.863,28.056c-0.538,1.016 -1.694,1.542 -2.814,1.28c-8.955,-2.094 -46.884,-10.964 -56.208,-13.144c-1.2,-0.281 -2.428,0.343 -2.908,1.478c-3.375,7.964 -16.119,38.039 -21.486,50.705c-0.857,2.023 -2.959,3.226 -5.137,2.939c-2.178,-0.286 -3.898,-1.991 -4.202,-4.167c-0.386,-2.769 -0.081,-6.418 0.996,-11.041c0.809,-3.701 -1.299,-7.417 -4.89,-8.622c-52.266,-17.783 -61.996,51.108 -6.636,61.867Z" style="fill:#f7f5e6;"/><circle cx="602.381" cy="407.737" r="18.828" style="fill:#654f3e;"/><circle cx="719.035" cy="437.853" r="18.828" style="fill:#654f3e;"/><path d="M621.208,464.747c-9.106,28.87 43.302,51.679 66.419,16.658" style="fill:none;stroke:#654f3e;stroke-width:20.83px;"/></g><g><path d="M239.734,736.26l246.232,-77.316c73.118,21.417 -25.055,-203.545 -170.824,-165.398c-105.179,27.525 -167.069,194.776 -75.408,242.714Z" style="fill:#654f3e;"/><path d="M242.085,775.785c1.234,-0.437 2.599,0.141 3.144,1.332c20.423,44.587 51.662,50.49 86.338,41.892c0.022,-0.006 0.045,-0.012 0.068,-0.018c2.114,-0.587 101.342,-28.146 105.51,-29.304c0.091,-0.025 0.18,-0.055 0.267,-0.09c50.262,-20.194 69.253,-48.568 67.326,-82.415c-0.075,-1.23 0.747,-2.335 1.947,-2.616c75.927,-17.909 9.23,-118.474 -17.132,-47.915c-0.359,0.945 -1.248,1.585 -2.258,1.625c-1.01,0.041 -1.947,-0.526 -2.38,-1.44c-6.471,-13.629 -22.688,-47.839 -26.864,-56.65c-0.562,-1.185 -1.937,-1.745 -3.168,-1.29c-10.292,3.811 -54.007,19.997 -63.457,23.496c-1.067,0.395 -2.267,0.03 -2.933,-0.893c-2.978,-4.126 -11.268,-15.613 -17.723,-24.556c-0.719,-0.997 -2.05,-1.333 -3.157,-0.798c-1.106,0.536 -1.668,1.789 -1.332,2.972c2.834,9.986 6.411,22.585 7.878,27.755c0.376,1.323 -0.373,2.703 -1.686,3.11c-10.87,3.37 -56.024,17.366 -67.056,20.786c-0.645,0.2 -1.344,0.134 -1.94,-0.183c-0.596,-0.318 -1.041,-0.86 -1.235,-1.507c-1.54,-5.122 -5.229,-17.395 -8.472,-28.184c-0.367,-1.223 -1.587,-1.981 -2.846,-1.769c-1.259,0.213 -2.163,1.329 -2.109,2.605c0.521,12.294 1.128,26.596 1.345,31.721c0.049,1.149 -0.683,2.187 -1.782,2.527c-8.786,2.716 -46.002,14.22 -55.15,17.048c-1.177,0.364 -1.922,1.522 -1.763,2.744c0.908,7.018 3.879,29.973 5.897,45.562c0.419,3.221 -1.683,6.231 -4.851,6.948c-3.167,0.717 -6.36,-1.095 -7.369,-4.182c-0.015,-0.118 -0.05,-0.231 -0.084,-0.344c-1.099,-3.44 -4.611,-5.501 -8.15,-4.784c-54.55,10.847 -28.15,75.532 25.177,56.815Z" style="fill:#f7f5e6;"/><path d="M293.145,683.184c8.968,-5.249 20.511,-2.229 25.76,6.739c5.249,8.968 2.229,20.51 -6.739,25.759c-8.968,5.249 -20.511,2.23 -25.76,-6.738c-5.249,-8.969 -2.229,-20.511 6.739,-25.76Z" style="fill:#654f3e;"/><path d="M409.035,650.25c8.968,-5.249 20.511,-2.229 25.76,6.739c5.249,8.968 2.229,20.511 -6.739,25.76c-8.968,5.249 -20.511,2.229 -25.76,-6.739c-5.249,-8.968 -2.229,-20.511 6.739,-25.76Z" style="fill:#654f3e;"/><path d="M347.702,739.124c6.724,29.517 63.475,22.729 65.737,-19.173" style="fill:none;stroke:#654f3e;stroke-width:20.83px;"/></g><path d="M412.619,164.752l0,101.572" style="fill:none;stroke:#ffce7f;stroke-width:41.67px;"/><path d="M279.266,196.635l53.601,86.278" style="fill:none;stroke:#ffce7f;stroke-width:41.67px;"/><path d="M202.777,291.24l89.443,48.132" style="fill:none;stroke:#ffce7f;stroke-width:41.67px;"/><path d="M152.881,398.267l99.791,18.94" style="fill:none;stroke:#ffce7f;stroke-width:41.67px;"/></svg>