<?xml version="1.0" encoding="UTF-8" standalone="no"?><!DOCTYPE svg PUBLIC "-//W3C//DTD SVG 1.1//EN" "http://www.w3.org/Graphics/SVG/1.1/DTD/svg11.dtd"><svg width="100%" height="100%" viewBox="0 0 1001 1001" version="1.1" xmlns="http://www.w3.org/2000/svg" xmlns:xlink="http://www.w3.org/1999/xlink" xml:space="preserve" xmlns:serif="http://www.serif.com/" style="fill-rule:evenodd;clip-rule:evenodd;stroke-linejoin:round;stroke-miterlimit:2;"><rect id="spotify" x="0.926" y="0.346" width="1000" height="1000" style="fill:none;"/><path d="M678.383,466.303c-96.702,-57.429 -256.21,-62.71 -348.524,-34.688c-14.828,4.495 -30.504,-3.873 -34.993,-18.697c-4.496,-14.834 3.865,-30.5 18.7,-35.007c105.974,-32.166 282.133,-25.95 393.459,40.134c13.337,7.913 17.711,25.134 9.805,38.446c-7.91,13.333 -25.145,17.729 -38.447,9.812Zm-3.166,85.059c-6.782,11.009 -21.176,14.459 -32.17,7.703c-80.621,-49.555 -203.561,-63.914 -298.941,-34.961c-12.367,3.74 -25.432,-3.235 -29.19,-15.58c-3.725,-12.369 3.25,-25.409 15.598,-29.171c108.958,-33.065 244.411,-17.052 337.008,39.854c10.994,6.771 14.455,21.172 7.695,32.155Zm-36.709,81.689c-5.388,8.838 -16.901,11.611 -25.707,6.223c-70.451,-43.057 -159.122,-52.783 -263.548,-28.928c-10.062,2.307 -20.093,-4.001 -22.386,-14.061c-2.307,-10.063 3.977,-20.09 14.061,-22.386c114.278,-26.123 212.305,-14.881 291.379,33.438c8.816,5.384 11.593,16.902 6.201,25.714Zm-137.584,-432.703c-165.681,-0 -299.998,134.313 -299.998,299.994c-0,165.696 134.317,300.002 299.998,300.002c165.691,0 300.002,-134.306 300.002,-300.002c-0,-165.681 -134.311,-299.994 -300.002,-299.994Z" style="fill:#fff;fill-rule:nonzero;"/></svg>