<?xml version="1.0" encoding="UTF-8" standalone="no"?><!DOCTYPE svg PUBLIC "-//W3C//DTD SVG 1.1//EN" "http://www.w3.org/Graphics/SVG/1.1/DTD/svg11.dtd"><svg width="100%" height="100%" viewBox="0 0 1001 1001" version="1.1" xmlns="http://www.w3.org/2000/svg" xmlns:xlink="http://www.w3.org/1999/xlink" xml:space="preserve" xmlns:serif="http://www.serif.com/" style="fill-rule:evenodd;clip-rule:evenodd;stroke-linejoin:round;stroke-miterlimit:2;"><rect id="spotify" x="0.985" y="0.627" width="1000" height="1000" style="fill:none;"/><path d="M678.443,466.584c-96.703,-57.429 -256.211,-62.709 -348.525,-34.688c-14.828,4.496 -30.504,-3.873 -34.993,-18.696c-4.496,-14.835 3.866,-30.501 18.7,-35.007c105.974,-32.166 282.133,-25.951 393.459,40.133c13.337,7.913 17.711,25.134 9.805,38.446c-7.91,13.334 -25.145,17.729 -38.446,9.812Zm-3.167,85.06c-6.782,11.008 -21.175,14.458 -32.17,7.702c-80.621,-49.555 -203.561,-63.913 -298.941,-34.96c-12.367,3.74 -25.431,-3.235 -29.189,-15.58c-3.726,-12.37 3.249,-25.41 15.597,-29.171c108.958,-33.066 244.411,-17.052 337.008,39.854c10.994,6.77 14.455,21.171 7.695,32.155Zm-36.709,81.689c-5.388,8.837 -16.901,11.61 -25.707,6.222c-70.451,-43.056 -159.121,-52.782 -263.547,-28.927c-10.063,2.307 -20.094,-4.002 -22.387,-14.061c-2.307,-10.063 3.977,-20.09 14.061,-22.386c114.278,-26.123 212.306,-14.882 291.379,33.437c8.816,5.385 11.593,16.902 6.201,25.715Zm-137.584,-432.704c-165.681,0 -299.998,134.314 -299.998,299.995c-0,165.695 134.317,300.002 299.998,300.002c165.692,-0 300.002,-134.307 300.002,-300.002c-0,-165.681 -134.31,-299.995 -300.002,-299.995Z" style="fill:#fff;fill-rule:nonzero;"/></svg>