<?xml version="1.0" encoding="UTF-8" standalone="no"?><!DOCTYPE svg PUBLIC "-//W3C//DTD SVG 1.1//EN" "http://www.w3.org/Graphics/SVG/1.1/DTD/svg11.dtd"><svg width="100%" height="100%" viewBox="0 0 1001 1001" version="1.1" xmlns="http://www.w3.org/2000/svg" xmlns:xlink="http://www.w3.org/1999/xlink" xml:space="preserve" xmlns:serif="http://www.serif.com/" style="fill-rule:evenodd;clip-rule:evenodd;stroke-linejoin:round;stroke-miterlimit:2;"><rect id="triangle" x="0.363" y="0.482" width="1000" height="1000" style="fill:none;"/><path d="M558.967,759.11c-13.943,18.277 -35.616,29.003 -58.604,29.003c-22.989,0 -44.661,-10.726 -58.604,-29.003c-81.672,-107.061 -230.463,-302.107 -326.382,-427.844c-16.999,-22.284 -19.889,-52.281 -7.458,-77.4c12.432,-25.12 38.034,-41.016 66.062,-41.016c178.155,0 474.608,0 652.763,0c28.028,0 53.63,15.896 66.062,41.016c12.432,25.119 9.541,55.116 -7.458,77.4c-95.919,125.737 -244.71,320.783 -326.381,427.844Z" style="fill:#fdb400;"/></svg>