<?xml version="1.0" encoding="UTF-8" standalone="no"?><!DOCTYPE svg PUBLIC "-//W3C//DTD SVG 1.1//EN" "http://www.w3.org/Graphics/SVG/1.1/DTD/svg11.dtd"><svg width="100%" height="100%" viewBox="0 0 1000 1001" version="1.1" xmlns="http://www.w3.org/2000/svg" xmlns:xlink="http://www.w3.org/1999/xlink" xml:space="preserve" xmlns:serif="http://www.serif.com/" style="fill-rule:evenodd;clip-rule:evenodd;stroke-linecap:round;stroke-linejoin:round;stroke-miterlimit:1.5;"><rect id="weaving" x="0" y="0.163" width="1000" height="1000" style="fill:none;"/><g><path d="M719.475,637.369l-120.667,175.975c-8.644,12.607 -25.897,15.824 -38.504,7.179l-45.684,-31.325c-12.606,-8.644 -15.823,-25.897 -7.179,-38.504l120.667,-175.975c8.645,-12.607 25.898,-15.824 38.504,-7.179l45.684,31.325c12.606,8.644 15.823,25.898 7.179,38.504Z" style="fill:#fdd52f;"/><rect x="204.318" y="214.95" width="345.917" height="477.255" style="fill:#e09d79;"/><path d="M612.735,214.95l-0,477.255c-0,34.518 -27.983,62.5 -62.5,62.5l-345.917,0c-34.518,0 -62.5,-27.982 -62.5,-62.5l0,-477.255c0,-34.517 27.982,-62.5 62.5,-62.5l345.917,0c34.517,0 62.5,27.983 62.5,62.5Zm-62.5,0l-345.917,0l0,477.255l345.917,0l-0,-477.255Z" style="fill:#ffefdd;"/><path d="M622.975,537.617c-7.629,8.278 -20.081,10.11 -29.264,3.813l-36.664,-25.141c-10.118,-6.937 -12.461,-21.133 -5.228,-31.68l65.062,-94.885c7.232,-10.547 21.318,-13.477 31.436,-6.539l36.664,25.141c9.183,6.296 11.962,18.571 6.99,28.671l7.248,4.97c12.224,-5.912 26.882,-5.446 38.518,2.533l63.7,43.679c11.659,7.995 17.375,21.536 16.237,35.096c23.15,20.625 19.955,73.561 12.527,118.283c-0.586,3.592 -3.4,6.409 -6.992,6.998c-3.591,0.589 -7.158,-1.181 -8.861,-4.398c-11.36,-22.893 -30.342,-30.757 -54.598,-28.19c-13.335,13.257 -34.125,15.916 -49.583,5.316l-63.7,-43.679c-11.636,-7.979 -17.353,-21.484 -16.244,-35.018l-7.248,-4.97Z" style="fill:#59413c;"/><path d="M369.733,260.777l27.286,-0.265l-4.946,33.441c125.357,-5.257 119.432,61.639 94.028,139.24l-221.254,0c-37.527,-86.809 -19.751,-143.097 104.49,-140.627l0.396,-31.789Z" style="fill:#f5cb37;"/><path d="M264.314,433.193c32.222,-55.061 157.339,-58.809 210.968,-12.019c7.206,6.279 12.429,14.52 15.034,23.716c31.721,111.31 -79.434,134.35 -108.874,195.114c-90.016,-59.334 -136.841,-126.805 -117.128,-206.811Z" style="fill:#59413c;"/><g><path d="M446.875,437.175c-0,0 26.304,20.111 11.808,72.359" style="fill:none;stroke:#d0a897;stroke-width:25.18px;"/><path d="M449.801,528.343c6.871,6.864 6.877,18.016 0.013,24.887c-6.864,6.872 -18.015,6.878 -24.887,0.014c-6.871,-6.864 -6.878,-18.016 -0.014,-24.887c6.864,-6.872 18.016,-6.878 24.888,-0.014Z" style="fill:#d0a897;"/></g></g></svg>