<?xml version="1.0" encoding="UTF-8" standalone="no"?><!DOCTYPE svg PUBLIC "-//W3C//DTD SVG 1.1//EN" "http://www.w3.org/Graphics/SVG/1.1/DTD/svg11.dtd"><svg width="100%" height="100%" viewBox="0 0 1001 1001" version="1.1" xmlns="http://www.w3.org/2000/svg" xmlns:xlink="http://www.w3.org/1999/xlink" xml:space="preserve" xmlns:serif="http://www.serif.com/" style="fill-rule:evenodd;clip-rule:evenodd;stroke-linecap:round;stroke-linejoin:round;stroke-miterlimit:1.5;"><rect id="weaving" x="0.149" y="0.841" width="1000" height="1000" style="fill:none;"/><path d="M719.623,638.048l-120.666,175.975c-8.645,12.606 -25.898,15.823 -38.505,7.179l-45.683,-31.325c-12.607,-8.645 -15.823,-25.898 -7.179,-38.505l120.667,-175.975c8.644,-12.606 25.897,-15.823 38.504,-7.179l45.683,31.325c12.607,8.645 15.824,25.898 7.179,38.505Z" style="fill:#ffce7f;"/><rect x="204.467" y="215.629" width="345.917" height="477.255" style="fill:#fa9a6a;"/><path d="M612.883,215.629l0,477.255c0,34.517 -27.982,62.5 -62.5,62.5l-345.916,-0c-34.518,-0 -62.5,-27.983 -62.5,-62.5l-0,-477.255c-0,-34.518 27.982,-62.5 62.5,-62.5l345.916,-0c34.518,-0 62.5,27.982 62.5,62.5Zm-62.5,-0l-345.916,-0l-0,477.255l345.916,-0l0,-477.255Z" style="fill:#f7f5e6;"/><path d="M623.124,538.296c-7.63,8.277 -20.081,10.109 -29.264,3.813l-36.664,-25.141c-10.118,-6.938 -12.461,-21.134 -5.229,-31.681l65.063,-94.884c7.232,-10.547 21.318,-13.478 31.436,-6.54l36.664,25.141c9.183,6.297 11.961,18.572 6.989,28.672l7.248,4.97c12.225,-5.913 26.882,-5.446 38.519,2.533l63.699,43.679c11.659,7.994 17.376,21.536 16.238,35.095c23.149,20.626 19.955,73.561 12.526,118.283c-0.585,3.592 -3.399,6.409 -6.991,6.999c-3.592,0.589 -7.158,-1.181 -8.861,-4.398c-11.36,-22.893 -30.342,-30.758 -54.599,-28.191c-13.335,13.258 -34.124,15.916 -49.583,5.316l-63.699,-43.679c-11.637,-7.979 -17.354,-21.483 -16.244,-35.017l-7.248,-4.97Z" style="fill:#74664b;"/><path d="M369.882,261.455l27.286,-0.265l-4.947,33.442c125.358,-5.258 119.432,61.638 94.029,139.24l-221.254,-0c-37.527,-86.81 -19.751,-143.098 104.489,-140.627l0.397,-31.79Z" style="fill:#ffce7f;"/><path d="M264.462,433.872c32.223,-55.061 157.339,-58.81 210.969,-12.02c7.205,6.28 12.429,14.52 15.033,23.717c31.722,111.309 -79.433,134.349 -108.873,195.113c-90.016,-59.334 -136.842,-126.804 -117.129,-206.81Z" style="fill:#74664b;"/><g><path d="M447.023,437.854c0,-0 26.305,20.111 11.809,72.358" style="fill:none;stroke:#d0a897;stroke-width:25.18px;"/><path d="M449.949,529.021c6.872,6.864 6.878,18.016 0.014,24.888c-6.864,6.871 -18.016,6.877 -24.887,0.013c-6.872,-6.864 -6.878,-18.015 -0.014,-24.887c6.864,-6.871 18.016,-6.878 24.887,-0.014Z" style="fill:#d0a897;"/></g></svg>