<?xml version="1.0" encoding="UTF-8" standalone="no"?><!DOCTYPE svg PUBLIC "-//W3C//DTD SVG 1.1//EN" "http://www.w3.org/Graphics/SVG/1.1/DTD/svg11.dtd"><svg width="100%" height="100%" viewBox="0 0 1001 1001" version="1.1" xmlns="http://www.w3.org/2000/svg" xmlns:xlink="http://www.w3.org/1999/xlink" xml:space="preserve" xmlns:serif="http://www.serif.com/" style="fill-rule:evenodd;clip-rule:evenodd;stroke-linejoin:round;stroke-miterlimit:2;"><rect id="YouTube" x="0.926" y="0.841" width="1000" height="1000" style="fill:none;"/><path d="M762.626,368.941c-6.3,-23.7 -24.8,-42.3 -48.3,-48.6c-42.6,-11.5 -213.4,-11.5 -213.4,-11.5c-0,0 -170.8,0 -213.4,11.5c-23.5,6.3 -42,24.9 -48.3,48.6c-11.4,42.9 -11.4,132.3 -11.4,132.3c-0,0 -0,89.4 11.4,132.3c6.3,23.7 24.8,41.5 48.3,47.8c42.6,11.5 213.4,11.5 213.4,11.5c-0,0 170.8,0 213.4,-11.5c23.5,-6.3 42,-24.2 48.3,-47.8c11.4,-42.9 11.4,-132.3 11.4,-132.3c-0,0 -0,-89.4 -11.4,-132.3Zm-317.5,213.5l-0,-162.4l142.7,81.2l-142.7,81.2Z" style="fill:#fff;fill-rule:nonzero;"/></svg>